<?xml version="1.0" encoding="UTF-8" standalone="no"?>
<!-- Created with Inkscape (http://www.inkscape.org/) -->

<svg
   xmlns:dc="http://purl.org/dc/elements/1.1/"
   xmlns:cc="http://creativecommons.org/ns#"
   xmlns:rdf="http://www.w3.org/1999/02/22-rdf-syntax-ns#"
   xmlns:svg="http://www.w3.org/2000/svg"
   xmlns="http://www.w3.org/2000/svg"
   xmlns:sodipodi="http://sodipodi.sourceforge.net/DTD/sodipodi-0.dtd"
   xmlns:inkscape="http://www.inkscape.org/namespaces/inkscape"
   id="svg3336"
   version="1.1"
   inkscape:version="0.91 r13725"
   xml:space="preserve"
   width="130mm"
   height="130mm"
   viewBox="0 0 460.62989 460.62991"
   sodipodi:docname="plexi_bottom.svg"><metadata
     id="metadata3342"><rdf:RDF><cc:Work
         rdf:about=""><dc:format>image/svg+xml</dc:format><dc:type
           rdf:resource="http://purl.org/dc/dcmitype/StillImage" /><dc:title></dc:title></cc:Work></rdf:RDF></metadata><defs
     id="defs3340" /><sodipodi:namedview
     pagecolor="#ffffff"
     bordercolor="#666666"
     borderopacity="1"
     objecttolerance="10"
     gridtolerance="10"
     guidetolerance="10"
     inkscape:pageopacity="0"
     inkscape:pageshadow="2"
     inkscape:window-width="1596"
     inkscape:window-height="859"
     id="namedview3338"
     showgrid="false"
     inkscape:zoom="0.90509668"
     inkscape:cx="293.51822"
     inkscape:cy="241.51726"
     inkscape:window-x="0"
     inkscape:window-y="18"
     inkscape:window-maximized="0"
     inkscape:current-layer="g3344"
     fit-margin-top="0"
     fit-margin-left="0"
     fit-margin-right="0"
     fit-margin-bottom="0"
     units="mm" /><g
     id="g3344"
     inkscape:groupmode="layer"
     inkscape:label="plexi_bottom"
     transform="matrix(1.25,0,0,-1.25,-274.99858,663.6292)"><g
       transform="matrix(1,0,0,-1,0,595.27557)"
       id="g3348"><path
         inkscape:connector-curvature="0"
         id="path3350"
         style="fill:none;stroke:#000000;stroke-width:0.79826701;stroke-linecap:butt;stroke-linejoin:miter;stroke-miterlimit:31.5;stroke-dasharray:none;stroke-opacity:1"
         d="m 247.945,64.77 312.614,0 c 15.261,0 27.546,12.289 27.546,27.546 l 0,312.614 c 0,15.261 -12.285,27.547 -27.546,27.547 l -312.614,0 c -15.261,0 -27.547,-12.286 -27.547,-27.547 l 0,-312.614 c 0,-15.257 12.286,-27.546 27.547,-27.546 z" /></g><g
       transform="matrix(1,0,0,-1,0,595.27557)"
       id="g3352"><path
         inkscape:connector-curvature="0"
         id="path3354"
         style="fill:none;stroke:#000000;stroke-width:0.80000001;stroke-linecap:butt;stroke-linejoin:miter;stroke-miterlimit:31.5;stroke-dasharray:none;stroke-opacity:1"
         d="m 245.91,83.812 c 0,3.133 -2.535,5.672 -5.668,5.672 -3.129,0 -5.668,-2.539 -5.668,-5.672 0,-3.128 2.539,-5.667 5.668,-5.667 3.133,0 5.668,2.539 5.668,5.667 z" /></g><g
       transform="matrix(1,0,0,-1,0,595.27557)"
       id="g3356"><path
         inkscape:connector-curvature="0"
         id="path3358"
         style="fill:none;stroke:#000000;stroke-width:0.80000001;stroke-linecap:butt;stroke-linejoin:miter;stroke-miterlimit:31.5;stroke-dasharray:none;stroke-opacity:1"
         d="m 245.91,412.633 c 0,3.133 -2.535,5.668 -5.668,5.668 -3.129,0 -5.668,-2.535 -5.668,-5.668 0,-3.129 2.539,-5.668 5.668,-5.668 3.133,0 5.668,2.539 5.668,5.668 z" /></g><g
       transform="matrix(1,0,0,-1,0,595.27557)"
       id="g3360"><path
         inkscape:connector-curvature="0"
         id="path3362"
         style="fill:none;stroke:#000000;stroke-width:0.80000001;stroke-linecap:butt;stroke-linejoin:miter;stroke-miterlimit:31.5;stroke-dasharray:none;stroke-opacity:1"
         d="m 574.73,412.633 c 0,3.133 -2.539,5.668 -5.668,5.668 -3.132,0 -5.671,-2.535 -5.671,-5.668 0,-3.129 2.539,-5.668 5.671,-5.668 3.129,0 5.668,2.539 5.668,5.668 z" /></g><g
       transform="matrix(1,0,0,-1,0,595.27557)"
       id="g3364"><path
         inkscape:connector-curvature="0"
         id="path3366"
         style="fill:none;stroke:#000000;stroke-width:0.80000001;stroke-linecap:butt;stroke-linejoin:miter;stroke-miterlimit:31.5;stroke-dasharray:none;stroke-opacity:1"
         d="m 574.73,83.812 c 0,3.133 -2.539,5.672 -5.668,5.672 -3.132,0 -5.671,-2.539 -5.671,-5.672 0,-3.128 2.539,-5.667 5.671,-5.667 3.129,0 5.668,2.539 5.668,5.667 z" /></g><g
       transform="matrix(0,-0.90650749,0.90650749,0,23.521901,579.22995)"
       id="g3368"><path
         inkscape:connector-curvature="0"
         id="path3370"
         style="fill:none;stroke:#000000;stroke-width:0.80000001;stroke-linecap:butt;stroke-linejoin:miter;stroke-miterlimit:31.5;stroke-dasharray:none;stroke-opacity:1"
         d="m 177.293,251.605 c 0,3.133 -2.535,5.672 -5.668,5.672 -3.133,0 -5.668,-2.539 -5.668,-5.672 0,-3.128 2.535,-5.667 5.668,-5.667 3.133,0 5.668,2.539 5.668,5.667 z" /></g><g
       transform="matrix(0,-0.90649801,-0.90649801,0,38.104096,568.36087)"
       id="g3372"><path
         inkscape:connector-curvature="0"
         id="path3374"
         style="fill:none;stroke:#000000;stroke-width:0.80000001;stroke-linecap:butt;stroke-linejoin:miter;stroke-miterlimit:31.5;stroke-dasharray:none;stroke-opacity:1"
         d="m 293.516,-407.512 c 0,3.133 -2.539,5.668 -5.672,5.668 -3.129,0 -5.668,-2.535 -5.668,-5.668 0,-3.133 2.539,-5.668 5.668,-5.668 3.133,0 5.672,2.535 5.672,5.668 z" /></g><g
       transform="matrix(0,-0.90650749,0.90650749,0,23.521901,563.32898)"
       id="g3376"><path
         inkscape:connector-curvature="0"
         id="path3378"
         style="fill:none;stroke:#000000;stroke-width:0.80000001;stroke-linecap:butt;stroke-linejoin:miter;stroke-miterlimit:31.5;stroke-dasharray:none;stroke-opacity:1"
         d="m 347.375,251.605 c 0,3.133 -2.539,5.672 -5.672,5.672 -3.129,0 -5.668,-2.539 -5.668,-5.672 0,-3.128 2.539,-5.667 5.668,-5.667 3.133,0 5.672,2.539 5.672,5.667 z" /></g></g></svg>