M48
;DRILL file {KiCad no-vcs-found-product} date Sun 20 Mar 2016 22:20:12 CET
;FORMAT={-:-/ absolute / metric / decimal}
FMAT,2
METRIC,TZ
T1C0.400
T2C0.500
T3C0.550
T4C0.600
T5C0.813
T6C1.016
T7C3.100
%
G90
G05
M71
T1
X42.25Y-50.
X42.75Y-37.25
X43.75Y-58.5
X45.Y-47.5
X46.5Y-46.
X48.75Y-37.25
X50.5Y-68.5
X51.Y-69.25
X54.Y-64.5
X54.Y-71.
X54.014Y-37.575
X54.5Y-49.
X59.5Y-65.5
X61.25Y-39.5
X62.5Y-51.625
X63.Y-60.5
X64.375Y-57.
X65.Y-43.25
X65.75Y-42.25
X67.Y-51.
X69.Y-58.
X69.725Y-46.5
X70.Y-59.
X70.5Y-47.75
X71.086Y-59.586
X71.5Y-50.25
X72.Y-33.5
X72.Y-58.75
X72.269Y-47.5
X72.499Y-49.901
X72.6Y-49.107
X72.625Y-59.403
X73.25Y-52.5
X75.Y-57.
X78.5Y-45.5
T4
X72.Y-55.
X74.Y-55.
X76.Y-55.
X78.Y-55.
T5
X40.96Y-48.88
X40.96Y-56.5
X41.Y-59.19
X41.Y-66.81
X46.04Y-48.88
X46.04Y-56.5
X46.08Y-59.19
X46.08Y-66.81
X82.5Y-39.38
X82.5Y-47.
X87.58Y-39.38
X87.58Y-47.
T6
X47.Y-40.5
X47.Y-43.04
X47.92Y-35.
X50.46Y-35.
X53.Y-35.
X58.22Y-35.
X60.76Y-35.
X63.3Y-35.
X65.84Y-35.
X67.9Y-39.
X67.9Y-41.54
X67.9Y-44.08
X68.38Y-35.
X70.92Y-35.
X71.5Y-39.
X71.5Y-41.54
X71.5Y-44.08
X73.46Y-35.
X75.Y-39.
X75.Y-41.54
X75.Y-44.08
X75.Y-46.62
X76.Y-35.
X78.5Y-39.
X78.5Y-41.54
X78.5Y-47.5
X78.5Y-50.04
X87.5Y-50.92
X87.5Y-53.46
X87.5Y-56.
X87.5Y-58.54
X87.5Y-61.08
T7
X42.5Y-34.
X42.5Y-73.
X86.5Y-34.
X86.5Y-73.
T2
X40.575Y-38.999G85X41.225Y-38.999
G05
X40.575Y-45.999G85X41.225Y-45.999
G05
T3
X43.6Y-39.849G85X43.6Y-40.149
G05
X43.6Y-44.849G85X43.6Y-45.149
G05
T0
M30
