%TF.GenerationSoftware,KiCad,Pcbnew,no-vcs-found-product*%
%TF.CreationDate,2016-03-20T22:20:04+01:00*%
%TF.ProjectId,dust_sensor,647573745F73656E736F722E6B696361,rev?*%
%TF.FileFunction,Soldermask,Bot*%
%FSLAX46Y46*%
G04 Gerber Fmt 4.6, Leading zero omitted, Abs format (unit mm)*
G04 Created by KiCad (PCBNEW no-vcs-found-product) date Sun 20 Mar 2016 22:20:04 CET*
%MOMM*%
G01*
G04 APERTURE LIST*
%ADD10C,0.100000*%
%ADD11R,2.000000X2.400000*%
%ADD12R,1.650000X1.900000*%
%ADD13R,2.432000X2.432000*%
%ADD14O,2.432000X2.432000*%
%ADD15O,1.350000X1.650000*%
%ADD16O,1.950000X1.400000*%
%ADD17R,2.127200X2.432000*%
%ADD18O,2.127200X2.432000*%
%ADD19R,2.432000X2.127200*%
%ADD20O,2.432000X2.127200*%
%ADD21R,1.700000X1.900000*%
%ADD22R,1.900000X1.700000*%
%ADD23C,1.797000*%
%ADD24R,2.432000X4.057600*%
%ADD25R,2.432000X1.416000*%
%ADD26R,1.900000X1.000000*%
%ADD27C,1.200000*%
%ADD28C,3.600000*%
G04 APERTURE END LIST*
D10*
D11*
X64500000Y-55000000D03*
X64500000Y-51000000D03*
D12*
X53500000Y-40000000D03*
X53500000Y-42500000D03*
D13*
X78500000Y-39000000D03*
D14*
X78500000Y-41540000D03*
D15*
X43600000Y-39999100D03*
X43600000Y-44999100D03*
D16*
X40900000Y-38999100D03*
X40900000Y-45999100D03*
D17*
X76000000Y-35000000D03*
D18*
X73460000Y-35000000D03*
X70920000Y-35000000D03*
X68380000Y-35000000D03*
X65840000Y-35000000D03*
X63300000Y-35000000D03*
X60760000Y-35000000D03*
X58220000Y-35000000D03*
D19*
X67900000Y-39000000D03*
D20*
X67900000Y-41540000D03*
X67900000Y-44080000D03*
D17*
X53000000Y-35000000D03*
D18*
X50460000Y-35000000D03*
X47920000Y-35000000D03*
D19*
X71500000Y-39000000D03*
D20*
X71500000Y-41540000D03*
X71500000Y-44080000D03*
D19*
X87500000Y-50920000D03*
D20*
X87500000Y-53460000D03*
X87500000Y-56000000D03*
X87500000Y-58540000D03*
X87500000Y-61080000D03*
D21*
X85500000Y-44850000D03*
X85500000Y-42150000D03*
D22*
X42300000Y-52000000D03*
X45000000Y-52000000D03*
X42300000Y-63000000D03*
X45000000Y-63000000D03*
X79350000Y-58500000D03*
X76650000Y-58500000D03*
D23*
X82500000Y-39380000D03*
X87580000Y-39380000D03*
X82500000Y-47000000D03*
X87580000Y-47000000D03*
X46040000Y-56500000D03*
X40960000Y-56500000D03*
X46040000Y-48880000D03*
X40960000Y-48880000D03*
X46080000Y-66810000D03*
X41000000Y-66810000D03*
X46080000Y-59190000D03*
X41000000Y-59190000D03*
D24*
X63504000Y-41000000D03*
D25*
X56900000Y-41000000D03*
X56900000Y-38714000D03*
X56900000Y-43286000D03*
D26*
X61650000Y-62555000D03*
X61650000Y-63825000D03*
X61650000Y-65095000D03*
X61650000Y-66365000D03*
X61650000Y-67635000D03*
X61650000Y-68905000D03*
X61650000Y-70175000D03*
X61650000Y-71445000D03*
X52350000Y-71445000D03*
X52350000Y-70175000D03*
X52350000Y-68905000D03*
X52350000Y-67635000D03*
X52350000Y-66365000D03*
X52350000Y-65095000D03*
X52350000Y-63825000D03*
X52350000Y-62555000D03*
D19*
X75000000Y-39000000D03*
D20*
X75000000Y-41540000D03*
X75000000Y-44080000D03*
X75000000Y-46620000D03*
D12*
X51000000Y-40000000D03*
X51000000Y-42500000D03*
D13*
X78500000Y-47500000D03*
D14*
X78500000Y-50040000D03*
D13*
X47000000Y-40500000D03*
D14*
X47000000Y-43040000D03*
D27*
X78000000Y-55000000D03*
X76000000Y-55000000D03*
X74000000Y-55000000D03*
X72000000Y-55000000D03*
D28*
X86500000Y-34000000D03*
X86500000Y-73000000D03*
X42500000Y-73000000D03*
X42500000Y-34000000D03*
M02*
