%TF.GenerationSoftware,KiCad,Pcbnew,no-vcs-found-product*%
%TF.CreationDate,2016-03-20T22:20:04+01:00*%
%TF.ProjectId,dust_sensor,647573745F73656E736F722E6B696361,rev?*%
%TF.FileFunction,Copper,L1,Top,Signal*%
%FSLAX46Y46*%
G04 Gerber Fmt 4.6, Leading zero omitted, Abs format (unit mm)*
G04 Created by KiCad (PCBNEW no-vcs-found-product) date Sun 20 Mar 2016 22:20:04 CET*
%MOMM*%
G01*
G04 APERTURE LIST*
%ADD10C,0.100000*%
%ADD11C,0.200000*%
%ADD12R,2.032000X2.032000*%
%ADD13O,2.032000X2.032000*%
%ADD14R,1.350000X0.400000*%
%ADD15O,0.950000X1.250000*%
%ADD16O,1.550000X1.000000*%
%ADD17R,1.727200X2.032000*%
%ADD18O,1.727200X2.032000*%
%ADD19R,2.032000X1.727200*%
%ADD20O,2.032000X1.727200*%
%ADD21R,1.500000X1.300000*%
%ADD22C,1.397000*%
%ADD23O,1.100000X2.400000*%
%ADD24R,2.400000X1.100000*%
%ADD25O,2.400000X1.100000*%
%ADD26C,0.800000*%
%ADD27C,3.200000*%
%ADD28C,0.600000*%
%ADD29C,0.250000*%
%ADD30C,0.254000*%
G04 APERTURE END LIST*
D10*
D11*
X83559524Y-69285714D02*
X83797619Y-69952381D01*
X84035715Y-69285714D01*
X84607143Y-68952381D02*
X84702382Y-68952381D01*
X84797620Y-69000000D01*
X84845239Y-69047619D01*
X84892858Y-69142857D01*
X84940477Y-69333333D01*
X84940477Y-69571429D01*
X84892858Y-69761905D01*
X84845239Y-69857143D01*
X84797620Y-69904762D01*
X84702382Y-69952381D01*
X84607143Y-69952381D01*
X84511905Y-69904762D01*
X84464286Y-69857143D01*
X84416667Y-69761905D01*
X84369048Y-69571429D01*
X84369048Y-69333333D01*
X84416667Y-69142857D01*
X84464286Y-69047619D01*
X84511905Y-69000000D01*
X84607143Y-68952381D01*
X85369048Y-69857143D02*
X85416667Y-69904762D01*
X85369048Y-69952381D01*
X85321429Y-69904762D01*
X85369048Y-69857143D01*
X85369048Y-69952381D01*
X86369048Y-69952381D02*
X85797619Y-69952381D01*
X86083333Y-69952381D02*
X86083333Y-68952381D01*
X85988095Y-69095238D01*
X85892857Y-69190476D01*
X85797619Y-69238095D01*
X87226191Y-69952381D02*
X87226191Y-68952381D01*
X87226191Y-69904762D02*
X87130953Y-69952381D01*
X86940476Y-69952381D01*
X86845238Y-69904762D01*
X86797619Y-69857143D01*
X86750000Y-69761905D01*
X86750000Y-69476190D01*
X86797619Y-69380952D01*
X86845238Y-69333333D01*
X86940476Y-69285714D01*
X87130953Y-69285714D01*
X87226191Y-69333333D01*
X88083334Y-69904762D02*
X87988096Y-69952381D01*
X87797619Y-69952381D01*
X87702381Y-69904762D01*
X87654762Y-69809524D01*
X87654762Y-69428571D01*
X87702381Y-69333333D01*
X87797619Y-69285714D01*
X87988096Y-69285714D01*
X88083334Y-69333333D01*
X88130953Y-69428571D01*
X88130953Y-69523810D01*
X87654762Y-69619048D01*
X88464286Y-69285714D02*
X88702381Y-69952381D01*
X88940477Y-69285714D01*
D12*
X78500000Y-39000000D03*
D13*
X78500000Y-41540000D03*
D14*
X43600000Y-41199100D03*
X43600000Y-41849100D03*
X43600000Y-42499100D03*
X43600000Y-43149100D03*
X43600000Y-43799100D03*
D15*
X43600000Y-39999100D03*
X43600000Y-44999100D03*
D16*
X40900000Y-38999100D03*
X40900000Y-45999100D03*
D17*
X76000000Y-35000000D03*
D18*
X73460000Y-35000000D03*
X70920000Y-35000000D03*
X68380000Y-35000000D03*
X65840000Y-35000000D03*
X63300000Y-35000000D03*
X60760000Y-35000000D03*
X58220000Y-35000000D03*
D19*
X67900000Y-39000000D03*
D20*
X67900000Y-41540000D03*
X67900000Y-44080000D03*
D17*
X53000000Y-35000000D03*
D18*
X50460000Y-35000000D03*
X47920000Y-35000000D03*
D19*
X71500000Y-39000000D03*
D20*
X71500000Y-41540000D03*
X71500000Y-44080000D03*
D19*
X87500000Y-50920000D03*
D20*
X87500000Y-53460000D03*
X87500000Y-56000000D03*
X87500000Y-58540000D03*
X87500000Y-61080000D03*
D21*
X59150000Y-40200000D03*
X56450000Y-40200000D03*
X56450000Y-43400000D03*
X59150000Y-43400000D03*
X52750000Y-40200000D03*
X50050000Y-40200000D03*
X52750000Y-43400000D03*
X50050000Y-43400000D03*
D22*
X82500000Y-39380000D03*
X87580000Y-39380000D03*
X82500000Y-47000000D03*
X87580000Y-47000000D03*
X46040000Y-56500000D03*
X40960000Y-56500000D03*
X46040000Y-48880000D03*
X40960000Y-48880000D03*
X46080000Y-66810000D03*
X41000000Y-66810000D03*
X46080000Y-59190000D03*
X41000000Y-59190000D03*
D23*
X62010000Y-57750000D03*
X60010000Y-57750000D03*
X58010000Y-57750000D03*
X56010000Y-57750000D03*
X54010000Y-57750000D03*
X52010000Y-57750000D03*
D24*
X65000000Y-73500000D03*
D25*
X65000000Y-71500000D03*
X65000000Y-69500000D03*
X65000000Y-67500000D03*
X65000000Y-65500000D03*
X65000000Y-63500000D03*
X65000000Y-61500000D03*
X65000000Y-59500000D03*
X49000000Y-59500000D03*
X49000000Y-61500000D03*
X49000000Y-63500000D03*
X49000000Y-65500000D03*
X49000000Y-67500000D03*
X49000000Y-69500000D03*
X49000000Y-71500000D03*
X49000000Y-73500000D03*
D19*
X75000000Y-39000000D03*
D20*
X75000000Y-41540000D03*
X75000000Y-44080000D03*
X75000000Y-46620000D03*
D12*
X78500000Y-47500000D03*
D13*
X78500000Y-50040000D03*
D12*
X47000000Y-40500000D03*
D13*
X47000000Y-43040000D03*
D26*
X78000000Y-55000000D03*
X76000000Y-55000000D03*
X74000000Y-55000000D03*
X72000000Y-55000000D03*
D27*
X86500000Y-34000000D03*
X86500000Y-73000000D03*
X42500000Y-73000000D03*
X42500000Y-34000000D03*
D28*
X48750000Y-37250000D03*
X42250000Y-50000000D03*
X45000000Y-47500000D03*
X64374990Y-57000000D03*
X63000000Y-60500000D03*
X72499024Y-49900722D03*
X46500000Y-46000000D03*
X54500000Y-49000000D03*
X42750000Y-37250000D03*
X72000000Y-33500000D03*
X69724978Y-46500000D03*
X69000000Y-58000000D03*
X65750000Y-42250000D03*
X65000000Y-43250000D03*
X61250000Y-39500000D03*
X59500000Y-65500000D03*
X62500000Y-51625010D03*
X43750000Y-58500000D03*
X75000000Y-57000000D03*
X70500000Y-47750000D03*
X71500000Y-50250000D03*
X72000000Y-58750000D03*
X72268705Y-47499989D03*
X70000000Y-59000000D03*
X72599762Y-49107078D03*
X71085551Y-59585551D03*
X72625010Y-59403500D03*
X78500000Y-45500000D03*
X73250000Y-52500000D03*
X54000000Y-71000000D03*
X54000000Y-64500000D03*
X50500000Y-68500000D03*
X51000000Y-69250000D03*
X67000000Y-51000000D03*
X54013593Y-37575011D03*
D29*
X54799988Y-38200012D02*
X54799988Y-37313338D01*
X54799988Y-37313338D02*
X54436651Y-36950001D01*
X50050000Y-40200000D02*
X50150000Y-40200000D01*
X50150000Y-40200000D02*
X52149988Y-38200012D01*
X52149988Y-38200012D02*
X54799988Y-38200012D01*
X49049999Y-36950001D02*
X54436651Y-36950001D01*
X63300000Y-34847600D02*
X63300000Y-35000000D01*
X48750000Y-37250000D02*
X49049999Y-36950001D01*
X54436651Y-36950001D02*
X57727662Y-33658990D01*
X57727662Y-33658990D02*
X62111390Y-33658990D01*
X62111390Y-33658990D02*
X63300000Y-34847600D01*
X45000000Y-47500000D02*
X42500000Y-50000000D01*
X42500000Y-50000000D02*
X42250000Y-50000000D01*
X65000000Y-58700000D02*
X64374990Y-58074990D01*
X65000000Y-59500000D02*
X65000000Y-58700000D01*
X64374990Y-58074990D02*
X64374990Y-57000000D01*
X63000000Y-60500000D02*
X64800000Y-60500000D01*
X64800000Y-60500000D02*
X65000000Y-60300000D01*
X65000000Y-60300000D02*
X65000000Y-59500000D01*
X72799023Y-50200721D02*
X72499024Y-49900722D01*
X76873301Y-54274999D02*
X72799023Y-50200721D01*
X87500000Y-58540000D02*
X87347600Y-58540000D01*
X83082599Y-54274999D02*
X76873301Y-54274999D01*
X87347600Y-58540000D02*
X83082599Y-54274999D01*
X54500000Y-49000000D02*
X51500000Y-46000000D01*
X51500000Y-46000000D02*
X46500000Y-46000000D01*
X45000000Y-42500000D02*
X45540000Y-43040000D01*
X45540000Y-43040000D02*
X47000000Y-43040000D01*
X45000000Y-41674100D02*
X45000000Y-42500000D01*
X43600000Y-41199100D02*
X44525000Y-41199100D01*
X44525000Y-41199100D02*
X45000000Y-41674100D01*
X78500000Y-37734000D02*
X78500000Y-39000000D01*
X78127388Y-37361388D02*
X78500000Y-37734000D01*
X71550002Y-36374998D02*
X72536392Y-37361388D01*
X61638601Y-37811399D02*
X69263597Y-37811399D01*
X70699998Y-36374998D02*
X71550002Y-36374998D01*
X69263597Y-37811399D02*
X70699998Y-36374998D01*
X59150000Y-40200000D02*
X59250000Y-40200000D01*
X72536392Y-37361388D02*
X78127388Y-37361388D01*
X59250000Y-40200000D02*
X61638601Y-37811399D01*
X42750000Y-37250000D02*
X41000900Y-38999100D01*
X41000900Y-38999100D02*
X40900000Y-38999100D01*
X40900000Y-45999100D02*
X42750000Y-45999100D01*
X42750000Y-45999100D02*
X43600000Y-45149100D01*
X43600000Y-45149100D02*
X43600000Y-44999100D01*
X72000000Y-33500000D02*
X74500000Y-33500000D01*
X74500000Y-33500000D02*
X74734000Y-33734000D01*
X74734000Y-33734000D02*
X74886400Y-33734000D01*
X76000000Y-34847600D02*
X76000000Y-35000000D01*
X74886400Y-33734000D02*
X76000000Y-34847600D01*
X67900000Y-41540000D02*
X68052400Y-41540000D01*
X69000000Y-47224978D02*
X69424979Y-46799999D01*
X69000000Y-58000000D02*
X69000000Y-47224978D01*
X69424979Y-46799999D02*
X69724978Y-46500000D01*
X65750000Y-42674264D02*
X65750000Y-42250000D01*
X65750000Y-57726139D02*
X65750000Y-42674264D01*
X66975021Y-58951159D02*
X65750000Y-57726139D01*
X66975021Y-60048841D02*
X66975021Y-58951159D01*
X66525010Y-60498851D02*
X66975021Y-60048841D01*
X66525010Y-61862441D02*
X66525010Y-60498851D01*
X65000000Y-63387451D02*
X66525010Y-61862441D01*
X65000000Y-63500000D02*
X65000000Y-63387451D01*
X65000000Y-61500000D02*
X65000000Y-61387451D01*
X65000000Y-61387451D02*
X66525010Y-59862441D01*
X66525010Y-59862441D02*
X66525010Y-59137559D01*
X66525010Y-59137559D02*
X65000000Y-57612549D01*
X65000000Y-57612549D02*
X65000000Y-43250000D01*
X61134990Y-39615010D02*
X61250000Y-39500000D01*
X59500000Y-65500000D02*
X61134990Y-63865010D01*
X61134990Y-63865010D02*
X61134990Y-39615010D01*
X62500000Y-44247600D02*
X62500000Y-51200746D01*
X67900000Y-39000000D02*
X67747600Y-39000000D01*
X62500000Y-51200746D02*
X62500000Y-51625010D01*
X67747600Y-39000000D02*
X62500000Y-44247600D01*
X65000000Y-73500000D02*
X65650000Y-73500000D01*
X67900000Y-57966906D02*
X67900000Y-50672820D01*
X67900000Y-48827179D02*
X67900000Y-45193600D01*
X68325054Y-58391959D02*
X67900000Y-57966906D01*
X68325054Y-60608041D02*
X68325054Y-58391959D01*
X65650000Y-73500000D02*
X67900000Y-71250000D01*
X67900000Y-61033094D02*
X68325054Y-60608041D01*
X67900000Y-71250000D02*
X67900000Y-61033094D01*
X67900000Y-50672820D02*
X67599980Y-50372801D01*
X67900000Y-45193600D02*
X67900000Y-44080000D01*
X67599980Y-49127199D02*
X67900000Y-48827179D01*
X67599980Y-50372801D02*
X67599980Y-49127199D01*
X72144738Y-42891390D02*
X70354610Y-42891390D01*
X72841010Y-43587662D02*
X72144738Y-42891390D01*
X76925390Y-47808610D02*
X74072218Y-47808610D01*
X70354610Y-42891390D02*
X69166000Y-44080000D01*
X77234000Y-47500000D02*
X76925390Y-47808610D01*
X78500000Y-47500000D02*
X77234000Y-47500000D01*
X69166000Y-44080000D02*
X67900000Y-44080000D01*
X74072218Y-47808610D02*
X72841010Y-46577402D01*
X72841010Y-46577402D02*
X72841010Y-43587662D01*
X88071281Y-38356499D02*
X88841001Y-39126219D01*
X88841001Y-39126219D02*
X88841001Y-52271399D01*
X88841001Y-52271399D02*
X87652400Y-53460000D01*
X87652400Y-53460000D02*
X87500000Y-53460000D01*
X85856499Y-38356499D02*
X88071281Y-38356499D01*
X71775007Y-32799991D02*
X74436402Y-32799991D01*
X74436402Y-32799991D02*
X74845392Y-33208981D01*
X74845392Y-33208981D02*
X80708981Y-33208981D01*
X80708981Y-33208981D02*
X85856499Y-38356499D01*
X53000000Y-35000000D02*
X54113600Y-35000000D01*
X54113600Y-35000000D02*
X55904619Y-33208981D01*
X55904619Y-33208981D02*
X71366017Y-33208981D01*
X71366017Y-33208981D02*
X71775007Y-32799991D01*
X49000000Y-73500000D02*
X47550000Y-73500000D01*
X42000010Y-39340830D02*
X42000010Y-39086642D01*
X49967662Y-36341010D02*
X51811390Y-36341010D01*
X47550000Y-73500000D02*
X41883501Y-67833501D01*
X39799990Y-67124772D02*
X39799990Y-41540850D01*
X41883501Y-67833501D02*
X40508719Y-67833501D01*
X47427662Y-33658990D02*
X48412338Y-33658990D01*
X49271390Y-34518042D02*
X49271390Y-35644738D01*
X40508719Y-67833501D02*
X39799990Y-67124772D01*
X42000010Y-39086642D02*
X47427662Y-33658990D01*
X39799990Y-41540850D02*
X42000010Y-39340830D01*
X48412338Y-33658990D02*
X49271390Y-34518042D01*
X49271390Y-35644738D02*
X49967662Y-36341010D01*
X51811390Y-36341010D02*
X53000000Y-35152400D01*
X53000000Y-35152400D02*
X53000000Y-35000000D01*
X49000000Y-71500000D02*
X48350000Y-71500000D01*
X48350000Y-71500000D02*
X43750000Y-66900000D01*
X43750000Y-66900000D02*
X43750000Y-58500000D01*
X71500000Y-39000000D02*
X75000000Y-39000000D01*
X67425032Y-58764759D02*
X66975021Y-58314749D01*
X69241010Y-42195118D02*
X69241010Y-41106590D01*
X67255262Y-42891390D02*
X68544738Y-42891390D01*
X66374999Y-51300001D02*
X66374999Y-43771653D01*
X66374999Y-43771653D02*
X67255262Y-42891390D01*
X66975021Y-58314749D02*
X66975021Y-51900023D01*
X66975021Y-51900023D02*
X66374999Y-51300001D01*
X67425032Y-60235241D02*
X67425032Y-58764759D01*
X66549990Y-62473871D02*
X66975021Y-62048841D01*
X66975021Y-62048841D02*
X66975021Y-60685251D01*
X66975021Y-60685251D02*
X67425032Y-60235241D01*
X66549990Y-64600010D02*
X66549990Y-62473871D01*
X65000000Y-65500000D02*
X65650000Y-65500000D01*
X65650000Y-65500000D02*
X66549990Y-64600010D01*
X71347600Y-39000000D02*
X71500000Y-39000000D01*
X69241010Y-41106590D02*
X71347600Y-39000000D01*
X68544738Y-42891390D02*
X69241010Y-42195118D01*
X76000000Y-55000000D02*
X76000000Y-56000000D01*
X76000000Y-56000000D02*
X75000000Y-57000000D01*
X70500000Y-45500000D02*
X71193600Y-45500000D01*
X71193600Y-45500000D02*
X71500000Y-45193600D01*
X71500000Y-45193600D02*
X71500000Y-44080000D01*
X70500000Y-47750000D02*
X70500000Y-45500000D01*
X71500000Y-53426998D02*
X71500000Y-50250000D01*
X72725001Y-58024999D02*
X72725001Y-54651999D01*
X72000000Y-58750000D02*
X72725001Y-58024999D01*
X72725001Y-54651999D02*
X71500000Y-53426998D01*
X56450000Y-43400000D02*
X56450000Y-42500000D01*
X56450000Y-42500000D02*
X56450000Y-40200000D01*
X65000000Y-71500000D02*
X64350000Y-71500000D01*
X64350000Y-71500000D02*
X56885010Y-64035010D01*
X56885010Y-64035010D02*
X56885010Y-44735010D01*
X56450000Y-44300000D02*
X56450000Y-43400000D01*
X56885010Y-44735010D02*
X56450000Y-44300000D01*
X71968706Y-47842707D02*
X71968706Y-47799988D01*
X70000000Y-49811413D02*
X71968706Y-47842707D01*
X71968706Y-47799988D02*
X72268705Y-47499989D01*
X70000000Y-59000000D02*
X70000000Y-49811413D01*
X71750000Y-48999989D02*
X72492673Y-48999989D01*
X72492673Y-48999989D02*
X72599762Y-49107078D01*
X70785552Y-59285552D02*
X70785552Y-49964437D01*
X71085551Y-59585551D02*
X70785552Y-59285552D01*
X70785552Y-49964437D02*
X71750000Y-48999989D01*
X73250000Y-52500000D02*
X73250000Y-58778510D01*
X72925009Y-59103501D02*
X72625010Y-59403500D01*
X73250000Y-58778510D02*
X72925009Y-59103501D01*
X78500000Y-45500000D02*
X75006400Y-45500000D01*
X75006400Y-45500000D02*
X75000000Y-45506400D01*
X75000000Y-45506400D02*
X75000000Y-46620000D01*
X82500000Y-52833348D02*
X82500000Y-47987828D01*
X88841010Y-58047662D02*
X88144738Y-57351390D01*
X81106392Y-59728610D02*
X88144738Y-59728610D01*
X88144738Y-57351390D02*
X87018042Y-57351390D01*
X66460001Y-74375001D02*
X81106392Y-59728610D01*
X58800003Y-74375001D02*
X66460001Y-74375001D01*
X88144738Y-59728610D02*
X88841010Y-59032338D01*
X50725002Y-66300000D02*
X58800003Y-74375001D01*
X49650000Y-65500000D02*
X50450000Y-66300000D01*
X87018042Y-57351390D02*
X82500000Y-52833348D01*
X88841010Y-59032338D02*
X88841010Y-58047662D01*
X50450000Y-66300000D02*
X50725002Y-66300000D01*
X82500000Y-47987828D02*
X82500000Y-47000000D01*
X49000000Y-65500000D02*
X49650000Y-65500000D01*
X54000000Y-71000000D02*
X53375010Y-70375010D01*
X53375010Y-70375010D02*
X47987559Y-70375010D01*
X47987559Y-70375010D02*
X46080000Y-68467451D01*
X46080000Y-68467451D02*
X46080000Y-67797828D01*
X46080000Y-67797828D02*
X46080000Y-66810000D01*
X65000000Y-69500000D02*
X65650000Y-69500000D01*
X55134990Y-56737559D02*
X55647559Y-56224990D01*
X65650000Y-69500000D02*
X66525010Y-70375010D01*
X53825001Y-42760003D02*
X53825001Y-42175001D01*
X66525010Y-70375010D02*
X66525010Y-71862441D01*
X66525010Y-71862441D02*
X66012441Y-72375010D01*
X66012441Y-72375010D02*
X63987559Y-72375010D01*
X53825001Y-42175001D02*
X52750000Y-41100000D01*
X63987559Y-72375010D02*
X55134990Y-63522441D01*
X55134990Y-63522441D02*
X55134990Y-56737559D01*
X55647559Y-56224990D02*
X55647559Y-44582561D01*
X55647559Y-44582561D02*
X53825001Y-42760003D01*
X52750000Y-41100000D02*
X52750000Y-40200000D01*
X49000000Y-61500000D02*
X50450000Y-61500000D01*
X50450000Y-61500000D02*
X51134990Y-60815010D01*
X51134990Y-53290012D02*
X55125001Y-49300001D01*
X55125001Y-49300001D02*
X55125001Y-46675001D01*
X51134990Y-60815010D02*
X51134990Y-53290012D01*
X55125001Y-46675001D02*
X52750000Y-44300000D01*
X52750000Y-44300000D02*
X52750000Y-43400000D01*
X51500000Y-64500000D02*
X50500000Y-63500000D01*
X50500000Y-63500000D02*
X49000000Y-63500000D01*
X54000000Y-64500000D02*
X51500000Y-64500000D01*
X49000000Y-63500000D02*
X49650000Y-63500000D01*
X50500000Y-68500000D02*
X50000000Y-68500000D01*
X50000000Y-68500000D02*
X49000000Y-67500000D01*
X49000000Y-69500000D02*
X50750000Y-69500000D01*
X50750000Y-69500000D02*
X51000000Y-69250000D01*
X67875043Y-58578359D02*
X67425032Y-58128348D01*
X67000000Y-66150000D02*
X67000001Y-62660271D01*
X67875043Y-60421641D02*
X67875043Y-58578359D01*
X67299999Y-51299999D02*
X67000000Y-51000000D01*
X67425032Y-60871651D02*
X67875043Y-60421641D01*
X67425032Y-62235241D02*
X67425032Y-60871651D01*
X67000001Y-62660271D02*
X67425032Y-62235241D01*
X67425032Y-51425032D02*
X67299999Y-51299999D01*
X67425032Y-58128348D02*
X67425032Y-51425032D01*
X65650000Y-67500000D02*
X67000000Y-66150000D01*
X65000000Y-67500000D02*
X65650000Y-67500000D01*
X53589329Y-37575011D02*
X54013593Y-37575011D01*
X49924989Y-37575011D02*
X53589329Y-37575011D01*
X47000000Y-40500000D02*
X49924989Y-37575011D01*
D30*
G36*
X48701843Y-41097765D02*
X48842191Y-41307809D01*
X49052235Y-41448157D01*
X49300000Y-41497440D01*
X50800000Y-41497440D01*
X51047765Y-41448157D01*
X51257809Y-41307809D01*
X51398157Y-41097765D01*
X51400000Y-41088500D01*
X51401843Y-41097765D01*
X51542191Y-41307809D01*
X51752235Y-41448157D01*
X52000000Y-41497440D01*
X52119080Y-41497440D01*
X52212599Y-41637401D01*
X52677758Y-42102560D01*
X52000000Y-42102560D01*
X51752235Y-42151843D01*
X51542191Y-42292191D01*
X51401843Y-42502235D01*
X51396279Y-42530209D01*
X51338327Y-42390301D01*
X51159698Y-42211673D01*
X50926309Y-42115000D01*
X50335750Y-42115000D01*
X50177000Y-42273750D01*
X50177000Y-43273000D01*
X50197000Y-43273000D01*
X50197000Y-43527000D01*
X50177000Y-43527000D01*
X50177000Y-44526250D01*
X50335750Y-44685000D01*
X50926309Y-44685000D01*
X51159698Y-44588327D01*
X51338327Y-44409699D01*
X51396279Y-44269791D01*
X51401843Y-44297765D01*
X51542191Y-44507809D01*
X51752235Y-44648157D01*
X52000000Y-44697440D01*
X52119080Y-44697440D01*
X52212599Y-44837401D01*
X54365001Y-46989803D01*
X54365001Y-47790199D01*
X52037401Y-45462599D01*
X51790839Y-45297852D01*
X51500000Y-45240000D01*
X47062463Y-45240000D01*
X47030327Y-45207808D01*
X46686799Y-45065162D01*
X46314833Y-45064838D01*
X45971057Y-45206883D01*
X45707808Y-45469673D01*
X45565162Y-45813201D01*
X45564838Y-46185167D01*
X45706883Y-46528943D01*
X45969673Y-46792192D01*
X46313201Y-46934838D01*
X46685167Y-46935162D01*
X47028943Y-46793117D01*
X47062118Y-46760000D01*
X51185198Y-46760000D01*
X53564878Y-49139680D01*
X53564838Y-49185167D01*
X53706883Y-49528943D01*
X53764020Y-49586180D01*
X50597589Y-52752611D01*
X50432842Y-52999173D01*
X50374990Y-53290012D01*
X50374990Y-58582567D01*
X50220813Y-58453804D01*
X49777000Y-58315000D01*
X49127000Y-58315000D01*
X49127000Y-59373000D01*
X49147000Y-59373000D01*
X49147000Y-59627000D01*
X49127000Y-59627000D01*
X49127000Y-59647000D01*
X48873000Y-59647000D01*
X48873000Y-59627000D01*
X48853000Y-59627000D01*
X48853000Y-59373000D01*
X48873000Y-59373000D01*
X48873000Y-58315000D01*
X48223000Y-58315000D01*
X47779187Y-58453804D01*
X47422276Y-58751882D01*
X47377311Y-58837772D01*
X47211146Y-58435620D01*
X46836353Y-58060173D01*
X46346413Y-57856732D01*
X45815914Y-57856269D01*
X45325620Y-58058854D01*
X44950173Y-58433647D01*
X44746732Y-58923587D01*
X44746269Y-59454086D01*
X44948854Y-59944380D01*
X45323647Y-60319827D01*
X45813587Y-60523268D01*
X46344086Y-60523731D01*
X46834380Y-60321146D01*
X47209827Y-59946353D01*
X47233921Y-59888329D01*
X47422276Y-60248118D01*
X47721572Y-60498078D01*
X47476128Y-60662078D01*
X47219253Y-61046520D01*
X47129050Y-61500000D01*
X47219253Y-61953480D01*
X47476128Y-62337922D01*
X47718696Y-62500000D01*
X47476128Y-62662078D01*
X47219253Y-63046520D01*
X47129050Y-63500000D01*
X47219253Y-63953480D01*
X47476128Y-64337922D01*
X47718696Y-64500000D01*
X47476128Y-64662078D01*
X47219253Y-65046520D01*
X47129050Y-65500000D01*
X47219253Y-65953480D01*
X47476128Y-66337922D01*
X47718696Y-66500000D01*
X47476128Y-66662078D01*
X47413548Y-66755736D01*
X47413731Y-66545914D01*
X47211146Y-66055620D01*
X46836353Y-65680173D01*
X46346413Y-65476732D01*
X45815914Y-65476269D01*
X45325620Y-65678854D01*
X44950173Y-66053647D01*
X44746732Y-66543587D01*
X44746489Y-66821687D01*
X44510000Y-66585198D01*
X44510000Y-59062463D01*
X44542192Y-59030327D01*
X44684838Y-58686799D01*
X44685162Y-58314833D01*
X44543117Y-57971057D01*
X44280327Y-57707808D01*
X43936799Y-57565162D01*
X43564833Y-57564838D01*
X43221057Y-57706883D01*
X42957808Y-57969673D01*
X42815162Y-58313201D01*
X42814838Y-58685167D01*
X42956883Y-59028943D01*
X42990000Y-59062118D01*
X42990000Y-66900000D01*
X43047852Y-67190839D01*
X43212599Y-67437401D01*
X47153298Y-71378100D01*
X47129050Y-71500000D01*
X47219253Y-71953480D01*
X47476128Y-72337922D01*
X47718696Y-72500000D01*
X47662410Y-72537608D01*
X42420902Y-67296100D01*
X42276546Y-67199645D01*
X42345927Y-67002520D01*
X42317148Y-66472801D01*
X42169800Y-66117071D01*
X41934188Y-66055417D01*
X41179605Y-66810000D01*
X41193748Y-66824143D01*
X41014143Y-67003748D01*
X41000000Y-66989605D01*
X40985858Y-67003748D01*
X40806253Y-66824143D01*
X40820395Y-66810000D01*
X40806253Y-66795858D01*
X40985858Y-66616253D01*
X41000000Y-66630395D01*
X41754583Y-65875812D01*
X41692929Y-65640200D01*
X41192520Y-65464073D01*
X40662801Y-65492852D01*
X40559990Y-65535438D01*
X40559990Y-60448819D01*
X40807480Y-60535927D01*
X41337199Y-60507148D01*
X41692929Y-60359800D01*
X41754583Y-60124188D01*
X41000000Y-59369605D01*
X40985858Y-59383748D01*
X40806253Y-59204143D01*
X40820395Y-59190000D01*
X41179605Y-59190000D01*
X41934188Y-59944583D01*
X42169800Y-59882929D01*
X42345927Y-59382520D01*
X42317148Y-58852801D01*
X42169800Y-58497071D01*
X41934188Y-58435417D01*
X41179605Y-59190000D01*
X40820395Y-59190000D01*
X40806253Y-59175858D01*
X40985858Y-58996253D01*
X41000000Y-59010395D01*
X41754583Y-58255812D01*
X41692929Y-58020200D01*
X41192520Y-57844073D01*
X40662801Y-57872852D01*
X40559990Y-57915438D01*
X40559990Y-57772898D01*
X40767480Y-57845927D01*
X41297199Y-57817148D01*
X41652929Y-57669800D01*
X41714583Y-57434188D01*
X40960000Y-56679605D01*
X40945858Y-56693748D01*
X40766253Y-56514143D01*
X40780395Y-56500000D01*
X41139605Y-56500000D01*
X41894188Y-57254583D01*
X42129800Y-57192929D01*
X42280738Y-56764086D01*
X44706269Y-56764086D01*
X44908854Y-57254380D01*
X45283647Y-57629827D01*
X45773587Y-57833268D01*
X46304086Y-57833731D01*
X46794380Y-57631146D01*
X47169827Y-57256353D01*
X47373268Y-56766413D01*
X47373731Y-56235914D01*
X47171146Y-55745620D01*
X46796353Y-55370173D01*
X46306413Y-55166732D01*
X45775914Y-55166269D01*
X45285620Y-55368854D01*
X44910173Y-55743647D01*
X44706732Y-56233587D01*
X44706269Y-56764086D01*
X42280738Y-56764086D01*
X42305927Y-56692520D01*
X42277148Y-56162801D01*
X42129800Y-55807071D01*
X41894188Y-55745417D01*
X41139605Y-56500000D01*
X40780395Y-56500000D01*
X40766253Y-56485858D01*
X40945858Y-56306253D01*
X40960000Y-56320395D01*
X41714583Y-55565812D01*
X41652929Y-55330200D01*
X41152520Y-55154073D01*
X40622801Y-55182852D01*
X40559990Y-55208869D01*
X40559990Y-50152898D01*
X40767480Y-50225927D01*
X41297199Y-50197148D01*
X41316487Y-50189159D01*
X41456883Y-50528943D01*
X41719673Y-50792192D01*
X42063201Y-50934838D01*
X42435167Y-50935162D01*
X42778943Y-50793117D01*
X43030459Y-50542039D01*
X43037401Y-50537401D01*
X44706510Y-48868292D01*
X44706269Y-49144086D01*
X44908854Y-49634380D01*
X45283647Y-50009827D01*
X45773587Y-50213268D01*
X46304086Y-50213731D01*
X46794380Y-50011146D01*
X47169827Y-49636353D01*
X47373268Y-49146413D01*
X47373731Y-48615914D01*
X47171146Y-48125620D01*
X46796353Y-47750173D01*
X46306413Y-47546732D01*
X45934960Y-47546408D01*
X45935162Y-47314833D01*
X45793117Y-46971057D01*
X45530327Y-46707808D01*
X45186799Y-46565162D01*
X44814833Y-46564838D01*
X44471057Y-46706883D01*
X44207808Y-46969673D01*
X44065162Y-47313201D01*
X44065121Y-47360077D01*
X42360103Y-49065095D01*
X42305521Y-49065048D01*
X42277148Y-48542801D01*
X42129800Y-48187071D01*
X41894188Y-48125417D01*
X41139605Y-48880000D01*
X41153748Y-48894143D01*
X40974143Y-49073748D01*
X40960000Y-49059605D01*
X40945858Y-49073748D01*
X40766253Y-48894143D01*
X40780395Y-48880000D01*
X40766253Y-48865858D01*
X40945858Y-48686253D01*
X40960000Y-48700395D01*
X41714583Y-47945812D01*
X41652929Y-47710200D01*
X41152520Y-47534073D01*
X40622801Y-47562852D01*
X40559990Y-47588869D01*
X40559990Y-47126663D01*
X40597376Y-47134100D01*
X41202624Y-47134100D01*
X41636970Y-47047703D01*
X42005190Y-46801666D01*
X42033632Y-46759100D01*
X42750000Y-46759100D01*
X43040839Y-46701248D01*
X43287401Y-46536501D01*
X43550052Y-46273850D01*
X43600000Y-46283785D01*
X44024779Y-46199291D01*
X44384889Y-45958674D01*
X44625506Y-45598564D01*
X44710000Y-45173785D01*
X44710000Y-44824415D01*
X44649892Y-44522233D01*
X44813327Y-44358799D01*
X44910000Y-44125410D01*
X44910000Y-44057850D01*
X44751250Y-43899100D01*
X44594836Y-43899100D01*
X44732809Y-43806909D01*
X44873157Y-43596865D01*
X44878042Y-43572308D01*
X44910000Y-43540350D01*
X44910000Y-43484802D01*
X45002599Y-43577401D01*
X45249160Y-43742148D01*
X45526142Y-43797243D01*
X45800222Y-44207433D01*
X46335845Y-44565325D01*
X46967655Y-44691000D01*
X47032345Y-44691000D01*
X47664155Y-44565325D01*
X48199778Y-44207433D01*
X48548355Y-43685750D01*
X48665000Y-43685750D01*
X48665000Y-44176310D01*
X48761673Y-44409699D01*
X48940302Y-44588327D01*
X49173691Y-44685000D01*
X49764250Y-44685000D01*
X49923000Y-44526250D01*
X49923000Y-43527000D01*
X48823750Y-43527000D01*
X48665000Y-43685750D01*
X48548355Y-43685750D01*
X48557670Y-43671810D01*
X48667982Y-43117232D01*
X48823750Y-43273000D01*
X49923000Y-43273000D01*
X49923000Y-42273750D01*
X49764250Y-42115000D01*
X49173691Y-42115000D01*
X48940302Y-42211673D01*
X48761673Y-42390301D01*
X48665000Y-42623690D01*
X48665000Y-42947774D01*
X48557670Y-42408190D01*
X48331128Y-42069146D01*
X48473809Y-41973809D01*
X48614157Y-41763765D01*
X48663440Y-41516000D01*
X48663440Y-40904698D01*
X48701843Y-41097765D01*
X48701843Y-41097765D01*
G37*
X48701843Y-41097765D02*
X48842191Y-41307809D01*
X49052235Y-41448157D01*
X49300000Y-41497440D01*
X50800000Y-41497440D01*
X51047765Y-41448157D01*
X51257809Y-41307809D01*
X51398157Y-41097765D01*
X51400000Y-41088500D01*
X51401843Y-41097765D01*
X51542191Y-41307809D01*
X51752235Y-41448157D01*
X52000000Y-41497440D01*
X52119080Y-41497440D01*
X52212599Y-41637401D01*
X52677758Y-42102560D01*
X52000000Y-42102560D01*
X51752235Y-42151843D01*
X51542191Y-42292191D01*
X51401843Y-42502235D01*
X51396279Y-42530209D01*
X51338327Y-42390301D01*
X51159698Y-42211673D01*
X50926309Y-42115000D01*
X50335750Y-42115000D01*
X50177000Y-42273750D01*
X50177000Y-43273000D01*
X50197000Y-43273000D01*
X50197000Y-43527000D01*
X50177000Y-43527000D01*
X50177000Y-44526250D01*
X50335750Y-44685000D01*
X50926309Y-44685000D01*
X51159698Y-44588327D01*
X51338327Y-44409699D01*
X51396279Y-44269791D01*
X51401843Y-44297765D01*
X51542191Y-44507809D01*
X51752235Y-44648157D01*
X52000000Y-44697440D01*
X52119080Y-44697440D01*
X52212599Y-44837401D01*
X54365001Y-46989803D01*
X54365001Y-47790199D01*
X52037401Y-45462599D01*
X51790839Y-45297852D01*
X51500000Y-45240000D01*
X47062463Y-45240000D01*
X47030327Y-45207808D01*
X46686799Y-45065162D01*
X46314833Y-45064838D01*
X45971057Y-45206883D01*
X45707808Y-45469673D01*
X45565162Y-45813201D01*
X45564838Y-46185167D01*
X45706883Y-46528943D01*
X45969673Y-46792192D01*
X46313201Y-46934838D01*
X46685167Y-46935162D01*
X47028943Y-46793117D01*
X47062118Y-46760000D01*
X51185198Y-46760000D01*
X53564878Y-49139680D01*
X53564838Y-49185167D01*
X53706883Y-49528943D01*
X53764020Y-49586180D01*
X50597589Y-52752611D01*
X50432842Y-52999173D01*
X50374990Y-53290012D01*
X50374990Y-58582567D01*
X50220813Y-58453804D01*
X49777000Y-58315000D01*
X49127000Y-58315000D01*
X49127000Y-59373000D01*
X49147000Y-59373000D01*
X49147000Y-59627000D01*
X49127000Y-59627000D01*
X49127000Y-59647000D01*
X48873000Y-59647000D01*
X48873000Y-59627000D01*
X48853000Y-59627000D01*
X48853000Y-59373000D01*
X48873000Y-59373000D01*
X48873000Y-58315000D01*
X48223000Y-58315000D01*
X47779187Y-58453804D01*
X47422276Y-58751882D01*
X47377311Y-58837772D01*
X47211146Y-58435620D01*
X46836353Y-58060173D01*
X46346413Y-57856732D01*
X45815914Y-57856269D01*
X45325620Y-58058854D01*
X44950173Y-58433647D01*
X44746732Y-58923587D01*
X44746269Y-59454086D01*
X44948854Y-59944380D01*
X45323647Y-60319827D01*
X45813587Y-60523268D01*
X46344086Y-60523731D01*
X46834380Y-60321146D01*
X47209827Y-59946353D01*
X47233921Y-59888329D01*
X47422276Y-60248118D01*
X47721572Y-60498078D01*
X47476128Y-60662078D01*
X47219253Y-61046520D01*
X47129050Y-61500000D01*
X47219253Y-61953480D01*
X47476128Y-62337922D01*
X47718696Y-62500000D01*
X47476128Y-62662078D01*
X47219253Y-63046520D01*
X47129050Y-63500000D01*
X47219253Y-63953480D01*
X47476128Y-64337922D01*
X47718696Y-64500000D01*
X47476128Y-64662078D01*
X47219253Y-65046520D01*
X47129050Y-65500000D01*
X47219253Y-65953480D01*
X47476128Y-66337922D01*
X47718696Y-66500000D01*
X47476128Y-66662078D01*
X47413548Y-66755736D01*
X47413731Y-66545914D01*
X47211146Y-66055620D01*
X46836353Y-65680173D01*
X46346413Y-65476732D01*
X45815914Y-65476269D01*
X45325620Y-65678854D01*
X44950173Y-66053647D01*
X44746732Y-66543587D01*
X44746489Y-66821687D01*
X44510000Y-66585198D01*
X44510000Y-59062463D01*
X44542192Y-59030327D01*
X44684838Y-58686799D01*
X44685162Y-58314833D01*
X44543117Y-57971057D01*
X44280327Y-57707808D01*
X43936799Y-57565162D01*
X43564833Y-57564838D01*
X43221057Y-57706883D01*
X42957808Y-57969673D01*
X42815162Y-58313201D01*
X42814838Y-58685167D01*
X42956883Y-59028943D01*
X42990000Y-59062118D01*
X42990000Y-66900000D01*
X43047852Y-67190839D01*
X43212599Y-67437401D01*
X47153298Y-71378100D01*
X47129050Y-71500000D01*
X47219253Y-71953480D01*
X47476128Y-72337922D01*
X47718696Y-72500000D01*
X47662410Y-72537608D01*
X42420902Y-67296100D01*
X42276546Y-67199645D01*
X42345927Y-67002520D01*
X42317148Y-66472801D01*
X42169800Y-66117071D01*
X41934188Y-66055417D01*
X41179605Y-66810000D01*
X41193748Y-66824143D01*
X41014143Y-67003748D01*
X41000000Y-66989605D01*
X40985858Y-67003748D01*
X40806253Y-66824143D01*
X40820395Y-66810000D01*
X40806253Y-66795858D01*
X40985858Y-66616253D01*
X41000000Y-66630395D01*
X41754583Y-65875812D01*
X41692929Y-65640200D01*
X41192520Y-65464073D01*
X40662801Y-65492852D01*
X40559990Y-65535438D01*
X40559990Y-60448819D01*
X40807480Y-60535927D01*
X41337199Y-60507148D01*
X41692929Y-60359800D01*
X41754583Y-60124188D01*
X41000000Y-59369605D01*
X40985858Y-59383748D01*
X40806253Y-59204143D01*
X40820395Y-59190000D01*
X41179605Y-59190000D01*
X41934188Y-59944583D01*
X42169800Y-59882929D01*
X42345927Y-59382520D01*
X42317148Y-58852801D01*
X42169800Y-58497071D01*
X41934188Y-58435417D01*
X41179605Y-59190000D01*
X40820395Y-59190000D01*
X40806253Y-59175858D01*
X40985858Y-58996253D01*
X41000000Y-59010395D01*
X41754583Y-58255812D01*
X41692929Y-58020200D01*
X41192520Y-57844073D01*
X40662801Y-57872852D01*
X40559990Y-57915438D01*
X40559990Y-57772898D01*
X40767480Y-57845927D01*
X41297199Y-57817148D01*
X41652929Y-57669800D01*
X41714583Y-57434188D01*
X40960000Y-56679605D01*
X40945858Y-56693748D01*
X40766253Y-56514143D01*
X40780395Y-56500000D01*
X41139605Y-56500000D01*
X41894188Y-57254583D01*
X42129800Y-57192929D01*
X42280738Y-56764086D01*
X44706269Y-56764086D01*
X44908854Y-57254380D01*
X45283647Y-57629827D01*
X45773587Y-57833268D01*
X46304086Y-57833731D01*
X46794380Y-57631146D01*
X47169827Y-57256353D01*
X47373268Y-56766413D01*
X47373731Y-56235914D01*
X47171146Y-55745620D01*
X46796353Y-55370173D01*
X46306413Y-55166732D01*
X45775914Y-55166269D01*
X45285620Y-55368854D01*
X44910173Y-55743647D01*
X44706732Y-56233587D01*
X44706269Y-56764086D01*
X42280738Y-56764086D01*
X42305927Y-56692520D01*
X42277148Y-56162801D01*
X42129800Y-55807071D01*
X41894188Y-55745417D01*
X41139605Y-56500000D01*
X40780395Y-56500000D01*
X40766253Y-56485858D01*
X40945858Y-56306253D01*
X40960000Y-56320395D01*
X41714583Y-55565812D01*
X41652929Y-55330200D01*
X41152520Y-55154073D01*
X40622801Y-55182852D01*
X40559990Y-55208869D01*
X40559990Y-50152898D01*
X40767480Y-50225927D01*
X41297199Y-50197148D01*
X41316487Y-50189159D01*
X41456883Y-50528943D01*
X41719673Y-50792192D01*
X42063201Y-50934838D01*
X42435167Y-50935162D01*
X42778943Y-50793117D01*
X43030459Y-50542039D01*
X43037401Y-50537401D01*
X44706510Y-48868292D01*
X44706269Y-49144086D01*
X44908854Y-49634380D01*
X45283647Y-50009827D01*
X45773587Y-50213268D01*
X46304086Y-50213731D01*
X46794380Y-50011146D01*
X47169827Y-49636353D01*
X47373268Y-49146413D01*
X47373731Y-48615914D01*
X47171146Y-48125620D01*
X46796353Y-47750173D01*
X46306413Y-47546732D01*
X45934960Y-47546408D01*
X45935162Y-47314833D01*
X45793117Y-46971057D01*
X45530327Y-46707808D01*
X45186799Y-46565162D01*
X44814833Y-46564838D01*
X44471057Y-46706883D01*
X44207808Y-46969673D01*
X44065162Y-47313201D01*
X44065121Y-47360077D01*
X42360103Y-49065095D01*
X42305521Y-49065048D01*
X42277148Y-48542801D01*
X42129800Y-48187071D01*
X41894188Y-48125417D01*
X41139605Y-48880000D01*
X41153748Y-48894143D01*
X40974143Y-49073748D01*
X40960000Y-49059605D01*
X40945858Y-49073748D01*
X40766253Y-48894143D01*
X40780395Y-48880000D01*
X40766253Y-48865858D01*
X40945858Y-48686253D01*
X40960000Y-48700395D01*
X41714583Y-47945812D01*
X41652929Y-47710200D01*
X41152520Y-47534073D01*
X40622801Y-47562852D01*
X40559990Y-47588869D01*
X40559990Y-47126663D01*
X40597376Y-47134100D01*
X41202624Y-47134100D01*
X41636970Y-47047703D01*
X42005190Y-46801666D01*
X42033632Y-46759100D01*
X42750000Y-46759100D01*
X43040839Y-46701248D01*
X43287401Y-46536501D01*
X43550052Y-46273850D01*
X43600000Y-46283785D01*
X44024779Y-46199291D01*
X44384889Y-45958674D01*
X44625506Y-45598564D01*
X44710000Y-45173785D01*
X44710000Y-44824415D01*
X44649892Y-44522233D01*
X44813327Y-44358799D01*
X44910000Y-44125410D01*
X44910000Y-44057850D01*
X44751250Y-43899100D01*
X44594836Y-43899100D01*
X44732809Y-43806909D01*
X44873157Y-43596865D01*
X44878042Y-43572308D01*
X44910000Y-43540350D01*
X44910000Y-43484802D01*
X45002599Y-43577401D01*
X45249160Y-43742148D01*
X45526142Y-43797243D01*
X45800222Y-44207433D01*
X46335845Y-44565325D01*
X46967655Y-44691000D01*
X47032345Y-44691000D01*
X47664155Y-44565325D01*
X48199778Y-44207433D01*
X48548355Y-43685750D01*
X48665000Y-43685750D01*
X48665000Y-44176310D01*
X48761673Y-44409699D01*
X48940302Y-44588327D01*
X49173691Y-44685000D01*
X49764250Y-44685000D01*
X49923000Y-44526250D01*
X49923000Y-43527000D01*
X48823750Y-43527000D01*
X48665000Y-43685750D01*
X48548355Y-43685750D01*
X48557670Y-43671810D01*
X48667982Y-43117232D01*
X48823750Y-43273000D01*
X49923000Y-43273000D01*
X49923000Y-42273750D01*
X49764250Y-42115000D01*
X49173691Y-42115000D01*
X48940302Y-42211673D01*
X48761673Y-42390301D01*
X48665000Y-42623690D01*
X48665000Y-42947774D01*
X48557670Y-42408190D01*
X48331128Y-42069146D01*
X48473809Y-41973809D01*
X48614157Y-41763765D01*
X48663440Y-41516000D01*
X48663440Y-40904698D01*
X48701843Y-41097765D01*
G36*
X57801843Y-41097765D02*
X57942191Y-41307809D01*
X58152235Y-41448157D01*
X58400000Y-41497440D01*
X59900000Y-41497440D01*
X60147765Y-41448157D01*
X60357809Y-41307809D01*
X60374990Y-41282096D01*
X60374990Y-42326964D01*
X60259698Y-42211673D01*
X60026309Y-42115000D01*
X59435750Y-42115000D01*
X59277000Y-42273750D01*
X59277000Y-43273000D01*
X59297000Y-43273000D01*
X59297000Y-43527000D01*
X59277000Y-43527000D01*
X59277000Y-44526250D01*
X59435750Y-44685000D01*
X60026309Y-44685000D01*
X60259698Y-44588327D01*
X60374990Y-44473036D01*
X60374990Y-55951651D01*
X60010000Y-55879050D01*
X59556520Y-55969253D01*
X59172078Y-56226128D01*
X59010000Y-56468696D01*
X58847922Y-56226128D01*
X58463480Y-55969253D01*
X58010000Y-55879050D01*
X57645010Y-55951651D01*
X57645010Y-44735010D01*
X57606620Y-44542013D01*
X57657809Y-44507809D01*
X57798157Y-44297765D01*
X57803721Y-44269791D01*
X57861673Y-44409699D01*
X58040302Y-44588327D01*
X58273691Y-44685000D01*
X58864250Y-44685000D01*
X59023000Y-44526250D01*
X59023000Y-43527000D01*
X59003000Y-43527000D01*
X59003000Y-43273000D01*
X59023000Y-43273000D01*
X59023000Y-42273750D01*
X58864250Y-42115000D01*
X58273691Y-42115000D01*
X58040302Y-42211673D01*
X57861673Y-42390301D01*
X57803721Y-42530209D01*
X57798157Y-42502235D01*
X57657809Y-42292191D01*
X57447765Y-42151843D01*
X57210000Y-42104549D01*
X57210000Y-41495451D01*
X57447765Y-41448157D01*
X57657809Y-41307809D01*
X57798157Y-41097765D01*
X57800000Y-41088500D01*
X57801843Y-41097765D01*
X57801843Y-41097765D01*
G37*
X57801843Y-41097765D02*
X57942191Y-41307809D01*
X58152235Y-41448157D01*
X58400000Y-41497440D01*
X59900000Y-41497440D01*
X60147765Y-41448157D01*
X60357809Y-41307809D01*
X60374990Y-41282096D01*
X60374990Y-42326964D01*
X60259698Y-42211673D01*
X60026309Y-42115000D01*
X59435750Y-42115000D01*
X59277000Y-42273750D01*
X59277000Y-43273000D01*
X59297000Y-43273000D01*
X59297000Y-43527000D01*
X59277000Y-43527000D01*
X59277000Y-44526250D01*
X59435750Y-44685000D01*
X60026309Y-44685000D01*
X60259698Y-44588327D01*
X60374990Y-44473036D01*
X60374990Y-55951651D01*
X60010000Y-55879050D01*
X59556520Y-55969253D01*
X59172078Y-56226128D01*
X59010000Y-56468696D01*
X58847922Y-56226128D01*
X58463480Y-55969253D01*
X58010000Y-55879050D01*
X57645010Y-55951651D01*
X57645010Y-44735010D01*
X57606620Y-44542013D01*
X57657809Y-44507809D01*
X57798157Y-44297765D01*
X57803721Y-44269791D01*
X57861673Y-44409699D01*
X58040302Y-44588327D01*
X58273691Y-44685000D01*
X58864250Y-44685000D01*
X59023000Y-44526250D01*
X59023000Y-43527000D01*
X59003000Y-43527000D01*
X59003000Y-43273000D01*
X59023000Y-43273000D01*
X59023000Y-42273750D01*
X58864250Y-42115000D01*
X58273691Y-42115000D01*
X58040302Y-42211673D01*
X57861673Y-42390301D01*
X57803721Y-42530209D01*
X57798157Y-42502235D01*
X57657809Y-42292191D01*
X57447765Y-42151843D01*
X57210000Y-42104549D01*
X57210000Y-41495451D01*
X57447765Y-41448157D01*
X57657809Y-41307809D01*
X57798157Y-41097765D01*
X57800000Y-41088500D01*
X57801843Y-41097765D01*
G36*
X87627000Y-55873000D02*
X87647000Y-55873000D01*
X87647000Y-56127000D01*
X87627000Y-56127000D01*
X87627000Y-56147000D01*
X87373000Y-56147000D01*
X87373000Y-56127000D01*
X87353000Y-56127000D01*
X87353000Y-55873000D01*
X87373000Y-55873000D01*
X87373000Y-55853000D01*
X87627000Y-55853000D01*
X87627000Y-55873000D01*
X87627000Y-55873000D01*
G37*
X87627000Y-55873000D02*
X87647000Y-55873000D01*
X87647000Y-56127000D01*
X87627000Y-56127000D01*
X87627000Y-56147000D01*
X87373000Y-56147000D01*
X87373000Y-56127000D01*
X87353000Y-56127000D01*
X87353000Y-55873000D01*
X87373000Y-55873000D01*
X87373000Y-55853000D01*
X87627000Y-55853000D01*
X87627000Y-55873000D01*
G36*
X85319098Y-38893900D02*
X85565660Y-39058647D01*
X85856499Y-39116499D01*
X86259056Y-39116499D01*
X86234073Y-39187480D01*
X86262852Y-39717199D01*
X86410200Y-40072929D01*
X86645812Y-40134583D01*
X87400395Y-39380000D01*
X87386253Y-39365858D01*
X87565858Y-39186253D01*
X87580000Y-39200395D01*
X87594143Y-39186253D01*
X87773748Y-39365858D01*
X87759605Y-39380000D01*
X87773748Y-39394143D01*
X87594143Y-39573748D01*
X87580000Y-39559605D01*
X86825417Y-40314188D01*
X86887071Y-40549800D01*
X87387480Y-40725927D01*
X87917199Y-40697148D01*
X88081001Y-40629299D01*
X88081001Y-45762648D01*
X87772520Y-45654073D01*
X87242801Y-45682852D01*
X86887071Y-45830200D01*
X86825417Y-46065812D01*
X87580000Y-46820395D01*
X87594143Y-46806253D01*
X87773748Y-46985858D01*
X87759605Y-47000000D01*
X87773748Y-47014143D01*
X87594143Y-47193748D01*
X87580000Y-47179605D01*
X86825417Y-47934188D01*
X86887071Y-48169800D01*
X87387480Y-48345927D01*
X87917199Y-48317148D01*
X88081001Y-48249299D01*
X88081001Y-49408960D01*
X86484000Y-49408960D01*
X86236235Y-49458243D01*
X86026191Y-49598591D01*
X85885843Y-49808635D01*
X85836560Y-50056400D01*
X85836560Y-51783600D01*
X85885843Y-52031365D01*
X86026191Y-52241409D01*
X86236235Y-52381757D01*
X86272566Y-52388984D01*
X86255585Y-52400330D01*
X85930729Y-52886511D01*
X85816655Y-53460000D01*
X85930729Y-54033489D01*
X86255585Y-54519670D01*
X86565069Y-54726461D01*
X86149268Y-55097964D01*
X86048535Y-55307081D01*
X83260000Y-52518546D01*
X83260000Y-48125536D01*
X83629827Y-47756353D01*
X83833268Y-47266413D01*
X83833668Y-46807480D01*
X86234073Y-46807480D01*
X86262852Y-47337199D01*
X86410200Y-47692929D01*
X86645812Y-47754583D01*
X87400395Y-47000000D01*
X86645812Y-46245417D01*
X86410200Y-46307071D01*
X86234073Y-46807480D01*
X83833668Y-46807480D01*
X83833731Y-46735914D01*
X83631146Y-46245620D01*
X83256353Y-45870173D01*
X82766413Y-45666732D01*
X82235914Y-45666269D01*
X81745620Y-45868854D01*
X81370173Y-46243647D01*
X81166732Y-46733587D01*
X81166269Y-47264086D01*
X81368854Y-47754380D01*
X81740000Y-48126174D01*
X81740000Y-52833348D01*
X81797852Y-53124187D01*
X81962599Y-53370749D01*
X82106849Y-53514999D01*
X77188103Y-53514999D01*
X73434146Y-49761042D01*
X73434186Y-49715555D01*
X73396937Y-49625405D01*
X73534600Y-49293877D01*
X73534924Y-48921911D01*
X73392879Y-48578135D01*
X73130089Y-48314886D01*
X72879900Y-48210998D01*
X73060897Y-48030316D01*
X73107321Y-47918515D01*
X73534817Y-48346011D01*
X73781379Y-48510758D01*
X74072218Y-48568610D01*
X76847025Y-48568610D01*
X76885843Y-48763765D01*
X77026191Y-48973809D01*
X77168872Y-49069146D01*
X76942330Y-49408190D01*
X76816655Y-50040000D01*
X76942330Y-50671810D01*
X77300222Y-51207433D01*
X77835845Y-51565325D01*
X78467655Y-51691000D01*
X78532345Y-51691000D01*
X79164155Y-51565325D01*
X79699778Y-51207433D01*
X80057670Y-50671810D01*
X80183345Y-50040000D01*
X80057670Y-49408190D01*
X79831128Y-49069146D01*
X79973809Y-48973809D01*
X80114157Y-48763765D01*
X80163440Y-48516000D01*
X80163440Y-46484000D01*
X80114157Y-46236235D01*
X79973809Y-46026191D01*
X79763765Y-45885843D01*
X79516000Y-45836560D01*
X79372651Y-45836560D01*
X79434838Y-45686799D01*
X79435162Y-45314833D01*
X79293117Y-44971057D01*
X79030327Y-44707808D01*
X78686799Y-44565162D01*
X78314833Y-44564838D01*
X77971057Y-44706883D01*
X77937882Y-44740000D01*
X76511466Y-44740000D01*
X76569271Y-44653489D01*
X76683345Y-44080000D01*
X76569271Y-43506511D01*
X76244415Y-43020330D01*
X75929634Y-42810000D01*
X76244415Y-42599670D01*
X76569271Y-42113489D01*
X76607172Y-41922944D01*
X76894025Y-41922944D01*
X77093615Y-42404818D01*
X77531621Y-42877188D01*
X78117054Y-43145983D01*
X78373000Y-43027367D01*
X78373000Y-41667000D01*
X78627000Y-41667000D01*
X78627000Y-43027367D01*
X78882946Y-43145983D01*
X79468379Y-42877188D01*
X79906385Y-42404818D01*
X80105975Y-41922944D01*
X79986836Y-41667000D01*
X78627000Y-41667000D01*
X78373000Y-41667000D01*
X77013164Y-41667000D01*
X76894025Y-41922944D01*
X76607172Y-41922944D01*
X76683345Y-41540000D01*
X76569271Y-40966511D01*
X76244415Y-40480330D01*
X76227434Y-40468984D01*
X76263765Y-40461757D01*
X76473809Y-40321409D01*
X76614157Y-40111365D01*
X76663440Y-39863600D01*
X76663440Y-38136400D01*
X76660454Y-38121388D01*
X76836560Y-38121388D01*
X76836560Y-40016000D01*
X76885843Y-40263765D01*
X77026191Y-40473809D01*
X77183113Y-40578662D01*
X77093615Y-40675182D01*
X76894025Y-41157056D01*
X77013164Y-41413000D01*
X78373000Y-41413000D01*
X78373000Y-41393000D01*
X78627000Y-41393000D01*
X78627000Y-41413000D01*
X79986836Y-41413000D01*
X80105975Y-41157056D01*
X79906385Y-40675182D01*
X79816887Y-40578662D01*
X79973809Y-40473809D01*
X80114157Y-40263765D01*
X80163440Y-40016000D01*
X80163440Y-39644086D01*
X81166269Y-39644086D01*
X81368854Y-40134380D01*
X81743647Y-40509827D01*
X82233587Y-40713268D01*
X82764086Y-40713731D01*
X83254380Y-40511146D01*
X83629827Y-40136353D01*
X83833268Y-39646413D01*
X83833731Y-39115914D01*
X83631146Y-38625620D01*
X83256353Y-38250173D01*
X82766413Y-38046732D01*
X82235914Y-38046269D01*
X81745620Y-38248854D01*
X81370173Y-38623647D01*
X81166732Y-39113587D01*
X81166269Y-39644086D01*
X80163440Y-39644086D01*
X80163440Y-37984000D01*
X80114157Y-37736235D01*
X79973809Y-37526191D01*
X79763765Y-37385843D01*
X79516000Y-37336560D01*
X79130920Y-37336560D01*
X79037401Y-37196599D01*
X78664789Y-36823987D01*
X78418227Y-36659240D01*
X78127388Y-36601388D01*
X77130475Y-36601388D01*
X77321409Y-36473809D01*
X77461757Y-36263765D01*
X77511040Y-36016000D01*
X77511040Y-33984000D01*
X77508053Y-33968981D01*
X80394179Y-33968981D01*
X85319098Y-38893900D01*
X85319098Y-38893900D01*
G37*
X85319098Y-38893900D02*
X85565660Y-39058647D01*
X85856499Y-39116499D01*
X86259056Y-39116499D01*
X86234073Y-39187480D01*
X86262852Y-39717199D01*
X86410200Y-40072929D01*
X86645812Y-40134583D01*
X87400395Y-39380000D01*
X87386253Y-39365858D01*
X87565858Y-39186253D01*
X87580000Y-39200395D01*
X87594143Y-39186253D01*
X87773748Y-39365858D01*
X87759605Y-39380000D01*
X87773748Y-39394143D01*
X87594143Y-39573748D01*
X87580000Y-39559605D01*
X86825417Y-40314188D01*
X86887071Y-40549800D01*
X87387480Y-40725927D01*
X87917199Y-40697148D01*
X88081001Y-40629299D01*
X88081001Y-45762648D01*
X87772520Y-45654073D01*
X87242801Y-45682852D01*
X86887071Y-45830200D01*
X86825417Y-46065812D01*
X87580000Y-46820395D01*
X87594143Y-46806253D01*
X87773748Y-46985858D01*
X87759605Y-47000000D01*
X87773748Y-47014143D01*
X87594143Y-47193748D01*
X87580000Y-47179605D01*
X86825417Y-47934188D01*
X86887071Y-48169800D01*
X87387480Y-48345927D01*
X87917199Y-48317148D01*
X88081001Y-48249299D01*
X88081001Y-49408960D01*
X86484000Y-49408960D01*
X86236235Y-49458243D01*
X86026191Y-49598591D01*
X85885843Y-49808635D01*
X85836560Y-50056400D01*
X85836560Y-51783600D01*
X85885843Y-52031365D01*
X86026191Y-52241409D01*
X86236235Y-52381757D01*
X86272566Y-52388984D01*
X86255585Y-52400330D01*
X85930729Y-52886511D01*
X85816655Y-53460000D01*
X85930729Y-54033489D01*
X86255585Y-54519670D01*
X86565069Y-54726461D01*
X86149268Y-55097964D01*
X86048535Y-55307081D01*
X83260000Y-52518546D01*
X83260000Y-48125536D01*
X83629827Y-47756353D01*
X83833268Y-47266413D01*
X83833668Y-46807480D01*
X86234073Y-46807480D01*
X86262852Y-47337199D01*
X86410200Y-47692929D01*
X86645812Y-47754583D01*
X87400395Y-47000000D01*
X86645812Y-46245417D01*
X86410200Y-46307071D01*
X86234073Y-46807480D01*
X83833668Y-46807480D01*
X83833731Y-46735914D01*
X83631146Y-46245620D01*
X83256353Y-45870173D01*
X82766413Y-45666732D01*
X82235914Y-45666269D01*
X81745620Y-45868854D01*
X81370173Y-46243647D01*
X81166732Y-46733587D01*
X81166269Y-47264086D01*
X81368854Y-47754380D01*
X81740000Y-48126174D01*
X81740000Y-52833348D01*
X81797852Y-53124187D01*
X81962599Y-53370749D01*
X82106849Y-53514999D01*
X77188103Y-53514999D01*
X73434146Y-49761042D01*
X73434186Y-49715555D01*
X73396937Y-49625405D01*
X73534600Y-49293877D01*
X73534924Y-48921911D01*
X73392879Y-48578135D01*
X73130089Y-48314886D01*
X72879900Y-48210998D01*
X73060897Y-48030316D01*
X73107321Y-47918515D01*
X73534817Y-48346011D01*
X73781379Y-48510758D01*
X74072218Y-48568610D01*
X76847025Y-48568610D01*
X76885843Y-48763765D01*
X77026191Y-48973809D01*
X77168872Y-49069146D01*
X76942330Y-49408190D01*
X76816655Y-50040000D01*
X76942330Y-50671810D01*
X77300222Y-51207433D01*
X77835845Y-51565325D01*
X78467655Y-51691000D01*
X78532345Y-51691000D01*
X79164155Y-51565325D01*
X79699778Y-51207433D01*
X80057670Y-50671810D01*
X80183345Y-50040000D01*
X80057670Y-49408190D01*
X79831128Y-49069146D01*
X79973809Y-48973809D01*
X80114157Y-48763765D01*
X80163440Y-48516000D01*
X80163440Y-46484000D01*
X80114157Y-46236235D01*
X79973809Y-46026191D01*
X79763765Y-45885843D01*
X79516000Y-45836560D01*
X79372651Y-45836560D01*
X79434838Y-45686799D01*
X79435162Y-45314833D01*
X79293117Y-44971057D01*
X79030327Y-44707808D01*
X78686799Y-44565162D01*
X78314833Y-44564838D01*
X77971057Y-44706883D01*
X77937882Y-44740000D01*
X76511466Y-44740000D01*
X76569271Y-44653489D01*
X76683345Y-44080000D01*
X76569271Y-43506511D01*
X76244415Y-43020330D01*
X75929634Y-42810000D01*
X76244415Y-42599670D01*
X76569271Y-42113489D01*
X76607172Y-41922944D01*
X76894025Y-41922944D01*
X77093615Y-42404818D01*
X77531621Y-42877188D01*
X78117054Y-43145983D01*
X78373000Y-43027367D01*
X78373000Y-41667000D01*
X78627000Y-41667000D01*
X78627000Y-43027367D01*
X78882946Y-43145983D01*
X79468379Y-42877188D01*
X79906385Y-42404818D01*
X80105975Y-41922944D01*
X79986836Y-41667000D01*
X78627000Y-41667000D01*
X78373000Y-41667000D01*
X77013164Y-41667000D01*
X76894025Y-41922944D01*
X76607172Y-41922944D01*
X76683345Y-41540000D01*
X76569271Y-40966511D01*
X76244415Y-40480330D01*
X76227434Y-40468984D01*
X76263765Y-40461757D01*
X76473809Y-40321409D01*
X76614157Y-40111365D01*
X76663440Y-39863600D01*
X76663440Y-38136400D01*
X76660454Y-38121388D01*
X76836560Y-38121388D01*
X76836560Y-40016000D01*
X76885843Y-40263765D01*
X77026191Y-40473809D01*
X77183113Y-40578662D01*
X77093615Y-40675182D01*
X76894025Y-41157056D01*
X77013164Y-41413000D01*
X78373000Y-41413000D01*
X78373000Y-41393000D01*
X78627000Y-41393000D01*
X78627000Y-41413000D01*
X79986836Y-41413000D01*
X80105975Y-41157056D01*
X79906385Y-40675182D01*
X79816887Y-40578662D01*
X79973809Y-40473809D01*
X80114157Y-40263765D01*
X80163440Y-40016000D01*
X80163440Y-39644086D01*
X81166269Y-39644086D01*
X81368854Y-40134380D01*
X81743647Y-40509827D01*
X82233587Y-40713268D01*
X82764086Y-40713731D01*
X83254380Y-40511146D01*
X83629827Y-40136353D01*
X83833268Y-39646413D01*
X83833731Y-39115914D01*
X83631146Y-38625620D01*
X83256353Y-38250173D01*
X82766413Y-38046732D01*
X82235914Y-38046269D01*
X81745620Y-38248854D01*
X81370173Y-38623647D01*
X81166732Y-39113587D01*
X81166269Y-39644086D01*
X80163440Y-39644086D01*
X80163440Y-37984000D01*
X80114157Y-37736235D01*
X79973809Y-37526191D01*
X79763765Y-37385843D01*
X79516000Y-37336560D01*
X79130920Y-37336560D01*
X79037401Y-37196599D01*
X78664789Y-36823987D01*
X78418227Y-36659240D01*
X78127388Y-36601388D01*
X77130475Y-36601388D01*
X77321409Y-36473809D01*
X77461757Y-36263765D01*
X77511040Y-36016000D01*
X77511040Y-33984000D01*
X77508053Y-33968981D01*
X80394179Y-33968981D01*
X85319098Y-38893900D01*
G36*
X58347000Y-34873000D02*
X58367000Y-34873000D01*
X58367000Y-35127000D01*
X58347000Y-35127000D01*
X58347000Y-36486217D01*
X58579026Y-36607358D01*
X58594791Y-36604709D01*
X59122036Y-36350732D01*
X59493539Y-35934931D01*
X59700330Y-36244415D01*
X60186511Y-36569271D01*
X60760000Y-36683345D01*
X61333489Y-36569271D01*
X61819670Y-36244415D01*
X62030000Y-35929634D01*
X62240330Y-36244415D01*
X62726511Y-36569271D01*
X63300000Y-36683345D01*
X63873489Y-36569271D01*
X64359670Y-36244415D01*
X64570000Y-35929634D01*
X64780330Y-36244415D01*
X65266511Y-36569271D01*
X65840000Y-36683345D01*
X66413489Y-36569271D01*
X66899670Y-36244415D01*
X67110000Y-35929634D01*
X67320330Y-36244415D01*
X67806511Y-36569271D01*
X68380000Y-36683345D01*
X68953489Y-36569271D01*
X69439670Y-36244415D01*
X69650000Y-35929634D01*
X69818453Y-36181741D01*
X68948795Y-37051399D01*
X61638601Y-37051399D01*
X61347762Y-37109251D01*
X61101200Y-37273998D01*
X59472638Y-38902560D01*
X58400000Y-38902560D01*
X58152235Y-38951843D01*
X57942191Y-39092191D01*
X57801843Y-39302235D01*
X57800000Y-39311500D01*
X57798157Y-39302235D01*
X57657809Y-39092191D01*
X57447765Y-38951843D01*
X57200000Y-38902560D01*
X55700000Y-38902560D01*
X55452235Y-38951843D01*
X55242191Y-39092191D01*
X55101843Y-39302235D01*
X55052560Y-39550000D01*
X55052560Y-40850000D01*
X55101843Y-41097765D01*
X55242191Y-41307809D01*
X55452235Y-41448157D01*
X55690000Y-41495451D01*
X55690000Y-42104549D01*
X55452235Y-42151843D01*
X55242191Y-42292191D01*
X55101843Y-42502235D01*
X55052560Y-42750000D01*
X55052560Y-42912760D01*
X54585001Y-42445201D01*
X54585001Y-42175001D01*
X54527149Y-41884162D01*
X54362402Y-41637600D01*
X53987771Y-41262969D01*
X54098157Y-41097765D01*
X54147440Y-40850000D01*
X54147440Y-39550000D01*
X54098157Y-39302235D01*
X53957809Y-39092191D01*
X53759991Y-38960012D01*
X54799988Y-38960012D01*
X55090827Y-38902160D01*
X55337389Y-38737413D01*
X55502136Y-38490851D01*
X55559988Y-38200012D01*
X55559988Y-37313338D01*
X55502136Y-37022499D01*
X55476829Y-36984625D01*
X56829334Y-35632120D01*
X56928046Y-35914320D01*
X57317964Y-36350732D01*
X57845209Y-36604709D01*
X57860974Y-36607358D01*
X58093000Y-36486217D01*
X58093000Y-35127000D01*
X58073000Y-35127000D01*
X58073000Y-34873000D01*
X58093000Y-34873000D01*
X58093000Y-34853000D01*
X58347000Y-34853000D01*
X58347000Y-34873000D01*
X58347000Y-34873000D01*
G37*
X58347000Y-34873000D02*
X58367000Y-34873000D01*
X58367000Y-35127000D01*
X58347000Y-35127000D01*
X58347000Y-36486217D01*
X58579026Y-36607358D01*
X58594791Y-36604709D01*
X59122036Y-36350732D01*
X59493539Y-35934931D01*
X59700330Y-36244415D01*
X60186511Y-36569271D01*
X60760000Y-36683345D01*
X61333489Y-36569271D01*
X61819670Y-36244415D01*
X62030000Y-35929634D01*
X62240330Y-36244415D01*
X62726511Y-36569271D01*
X63300000Y-36683345D01*
X63873489Y-36569271D01*
X64359670Y-36244415D01*
X64570000Y-35929634D01*
X64780330Y-36244415D01*
X65266511Y-36569271D01*
X65840000Y-36683345D01*
X66413489Y-36569271D01*
X66899670Y-36244415D01*
X67110000Y-35929634D01*
X67320330Y-36244415D01*
X67806511Y-36569271D01*
X68380000Y-36683345D01*
X68953489Y-36569271D01*
X69439670Y-36244415D01*
X69650000Y-35929634D01*
X69818453Y-36181741D01*
X68948795Y-37051399D01*
X61638601Y-37051399D01*
X61347762Y-37109251D01*
X61101200Y-37273998D01*
X59472638Y-38902560D01*
X58400000Y-38902560D01*
X58152235Y-38951843D01*
X57942191Y-39092191D01*
X57801843Y-39302235D01*
X57800000Y-39311500D01*
X57798157Y-39302235D01*
X57657809Y-39092191D01*
X57447765Y-38951843D01*
X57200000Y-38902560D01*
X55700000Y-38902560D01*
X55452235Y-38951843D01*
X55242191Y-39092191D01*
X55101843Y-39302235D01*
X55052560Y-39550000D01*
X55052560Y-40850000D01*
X55101843Y-41097765D01*
X55242191Y-41307809D01*
X55452235Y-41448157D01*
X55690000Y-41495451D01*
X55690000Y-42104549D01*
X55452235Y-42151843D01*
X55242191Y-42292191D01*
X55101843Y-42502235D01*
X55052560Y-42750000D01*
X55052560Y-42912760D01*
X54585001Y-42445201D01*
X54585001Y-42175001D01*
X54527149Y-41884162D01*
X54362402Y-41637600D01*
X53987771Y-41262969D01*
X54098157Y-41097765D01*
X54147440Y-40850000D01*
X54147440Y-39550000D01*
X54098157Y-39302235D01*
X53957809Y-39092191D01*
X53759991Y-38960012D01*
X54799988Y-38960012D01*
X55090827Y-38902160D01*
X55337389Y-38737413D01*
X55502136Y-38490851D01*
X55559988Y-38200012D01*
X55559988Y-37313338D01*
X55502136Y-37022499D01*
X55476829Y-36984625D01*
X56829334Y-35632120D01*
X56928046Y-35914320D01*
X57317964Y-36350732D01*
X57845209Y-36604709D01*
X57860974Y-36607358D01*
X58093000Y-36486217D01*
X58093000Y-35127000D01*
X58073000Y-35127000D01*
X58073000Y-34873000D01*
X58093000Y-34873000D01*
X58093000Y-34853000D01*
X58347000Y-34853000D01*
X58347000Y-34873000D01*
G36*
X48047000Y-34873000D02*
X48067000Y-34873000D01*
X48067000Y-35127000D01*
X48047000Y-35127000D01*
X48047000Y-36486217D01*
X48141991Y-36535812D01*
X47957808Y-36719673D01*
X47815162Y-37063201D01*
X47814838Y-37435167D01*
X47956883Y-37778943D01*
X48219673Y-38042192D01*
X48335083Y-38090115D01*
X47588638Y-38836560D01*
X45984000Y-38836560D01*
X45736235Y-38885843D01*
X45526191Y-39026191D01*
X45385843Y-39236235D01*
X45336560Y-39484000D01*
X45336560Y-40935858D01*
X45062401Y-40661699D01*
X44815839Y-40496952D01*
X44652193Y-40464400D01*
X44710000Y-40173785D01*
X44710000Y-39824415D01*
X44625506Y-39399636D01*
X44384889Y-39039526D01*
X44024779Y-38798909D01*
X43600000Y-38714415D01*
X43409058Y-38752396D01*
X46529334Y-35632120D01*
X46628046Y-35914320D01*
X47017964Y-36350732D01*
X47545209Y-36604709D01*
X47560974Y-36607358D01*
X47793000Y-36486217D01*
X47793000Y-35127000D01*
X47773000Y-35127000D01*
X47773000Y-34873000D01*
X47793000Y-34873000D01*
X47793000Y-34853000D01*
X48047000Y-34853000D01*
X48047000Y-34873000D01*
X48047000Y-34873000D01*
G37*
X48047000Y-34873000D02*
X48067000Y-34873000D01*
X48067000Y-35127000D01*
X48047000Y-35127000D01*
X48047000Y-36486217D01*
X48141991Y-36535812D01*
X47957808Y-36719673D01*
X47815162Y-37063201D01*
X47814838Y-37435167D01*
X47956883Y-37778943D01*
X48219673Y-38042192D01*
X48335083Y-38090115D01*
X47588638Y-38836560D01*
X45984000Y-38836560D01*
X45736235Y-38885843D01*
X45526191Y-39026191D01*
X45385843Y-39236235D01*
X45336560Y-39484000D01*
X45336560Y-40935858D01*
X45062401Y-40661699D01*
X44815839Y-40496952D01*
X44652193Y-40464400D01*
X44710000Y-40173785D01*
X44710000Y-39824415D01*
X44625506Y-39399636D01*
X44384889Y-39039526D01*
X44024779Y-38798909D01*
X43600000Y-38714415D01*
X43409058Y-38752396D01*
X46529334Y-35632120D01*
X46628046Y-35914320D01*
X47017964Y-36350732D01*
X47545209Y-36604709D01*
X47560974Y-36607358D01*
X47793000Y-36486217D01*
X47793000Y-35127000D01*
X47773000Y-35127000D01*
X47773000Y-34873000D01*
X47793000Y-34873000D01*
X47793000Y-34853000D01*
X48047000Y-34853000D01*
X48047000Y-34873000D01*
G36*
X73587000Y-34873000D02*
X73607000Y-34873000D01*
X73607000Y-35127000D01*
X73587000Y-35127000D01*
X73587000Y-35147000D01*
X73333000Y-35147000D01*
X73333000Y-35127000D01*
X73313000Y-35127000D01*
X73313000Y-34873000D01*
X73333000Y-34873000D01*
X73333000Y-34853000D01*
X73587000Y-34853000D01*
X73587000Y-34873000D01*
X73587000Y-34873000D01*
G37*
X73587000Y-34873000D02*
X73607000Y-34873000D01*
X73607000Y-35127000D01*
X73587000Y-35127000D01*
X73587000Y-35147000D01*
X73333000Y-35147000D01*
X73333000Y-35127000D01*
X73313000Y-35127000D01*
X73313000Y-34873000D01*
X73333000Y-34873000D01*
X73333000Y-34853000D01*
X73587000Y-34853000D01*
X73587000Y-34873000D01*
M02*
