%TF.GenerationSoftware,KiCad,Pcbnew,no-vcs-found-product*%
%TF.CreationDate,2016-03-20T22:20:04+01:00*%
%TF.ProjectId,dust_sensor,647573745F73656E736F722E6B696361,rev?*%
%TF.FileFunction,Copper,L2,Bot,Signal*%
%FSLAX46Y46*%
G04 Gerber Fmt 4.6, Leading zero omitted, Abs format (unit mm)*
G04 Created by KiCad (PCBNEW no-vcs-found-product) date Sun 20 Mar 2016 22:20:04 CET*
%MOMM*%
G01*
G04 APERTURE LIST*
%ADD10C,0.100000*%
%ADD11R,1.600000X2.000000*%
%ADD12R,1.250000X1.500000*%
%ADD13R,2.032000X2.032000*%
%ADD14O,2.032000X2.032000*%
%ADD15O,0.950000X1.250000*%
%ADD16O,1.550000X1.000000*%
%ADD17R,1.727200X2.032000*%
%ADD18O,1.727200X2.032000*%
%ADD19R,2.032000X1.727200*%
%ADD20O,2.032000X1.727200*%
%ADD21R,1.300000X1.500000*%
%ADD22R,1.500000X1.300000*%
%ADD23C,1.397000*%
%ADD24R,2.032000X3.657600*%
%ADD25R,2.032000X1.016000*%
%ADD26R,1.500000X0.600000*%
%ADD27C,0.800000*%
%ADD28C,3.200000*%
%ADD29C,0.600000*%
%ADD30C,0.250000*%
%ADD31C,0.254000*%
G04 APERTURE END LIST*
D10*
D11*
X64500000Y-55000000D03*
X64500000Y-51000000D03*
D12*
X53500000Y-40000000D03*
X53500000Y-42500000D03*
D13*
X78500000Y-39000000D03*
D14*
X78500000Y-41540000D03*
D15*
X43600000Y-39999100D03*
X43600000Y-44999100D03*
D16*
X40900000Y-38999100D03*
X40900000Y-45999100D03*
D17*
X76000000Y-35000000D03*
D18*
X73460000Y-35000000D03*
X70920000Y-35000000D03*
X68380000Y-35000000D03*
X65840000Y-35000000D03*
X63300000Y-35000000D03*
X60760000Y-35000000D03*
X58220000Y-35000000D03*
D19*
X67900000Y-39000000D03*
D20*
X67900000Y-41540000D03*
X67900000Y-44080000D03*
D17*
X53000000Y-35000000D03*
D18*
X50460000Y-35000000D03*
X47920000Y-35000000D03*
D19*
X71500000Y-39000000D03*
D20*
X71500000Y-41540000D03*
X71500000Y-44080000D03*
D19*
X87500000Y-50920000D03*
D20*
X87500000Y-53460000D03*
X87500000Y-56000000D03*
X87500000Y-58540000D03*
X87500000Y-61080000D03*
D21*
X85500000Y-44850000D03*
X85500000Y-42150000D03*
D22*
X42300000Y-52000000D03*
X45000000Y-52000000D03*
X42300000Y-63000000D03*
X45000000Y-63000000D03*
X79350000Y-58500000D03*
X76650000Y-58500000D03*
D23*
X82500000Y-39380000D03*
X87580000Y-39380000D03*
X82500000Y-47000000D03*
X87580000Y-47000000D03*
X46040000Y-56500000D03*
X40960000Y-56500000D03*
X46040000Y-48880000D03*
X40960000Y-48880000D03*
X46080000Y-66810000D03*
X41000000Y-66810000D03*
X46080000Y-59190000D03*
X41000000Y-59190000D03*
D24*
X63504000Y-41000000D03*
D25*
X56900000Y-41000000D03*
X56900000Y-38714000D03*
X56900000Y-43286000D03*
D26*
X61650000Y-62555000D03*
X61650000Y-63825000D03*
X61650000Y-65095000D03*
X61650000Y-66365000D03*
X61650000Y-67635000D03*
X61650000Y-68905000D03*
X61650000Y-70175000D03*
X61650000Y-71445000D03*
X52350000Y-71445000D03*
X52350000Y-70175000D03*
X52350000Y-68905000D03*
X52350000Y-67635000D03*
X52350000Y-66365000D03*
X52350000Y-65095000D03*
X52350000Y-63825000D03*
X52350000Y-62555000D03*
D19*
X75000000Y-39000000D03*
D20*
X75000000Y-41540000D03*
X75000000Y-44080000D03*
X75000000Y-46620000D03*
D12*
X51000000Y-40000000D03*
X51000000Y-42500000D03*
D13*
X78500000Y-47500000D03*
D14*
X78500000Y-50040000D03*
D13*
X47000000Y-40500000D03*
D14*
X47000000Y-43040000D03*
D27*
X78000000Y-55000000D03*
X76000000Y-55000000D03*
X74000000Y-55000000D03*
X72000000Y-55000000D03*
D28*
X86500000Y-34000000D03*
X86500000Y-73000000D03*
X42500000Y-73000000D03*
X42500000Y-34000000D03*
D29*
X48750000Y-37250000D03*
X42250000Y-50000000D03*
X45000000Y-47500000D03*
X64374990Y-57000000D03*
X63000000Y-60500000D03*
X72499024Y-49900722D03*
X46500000Y-46000000D03*
X54500000Y-49000000D03*
X42750000Y-37250000D03*
X72000000Y-33500000D03*
X69724978Y-46500000D03*
X69000000Y-58000000D03*
X65750000Y-42250000D03*
X65000000Y-43250000D03*
X61250000Y-39500000D03*
X59500000Y-65500000D03*
X62500000Y-51625010D03*
X43750000Y-58500000D03*
X75000000Y-57000000D03*
X70500000Y-47750000D03*
X71500000Y-50250000D03*
X72000000Y-58750000D03*
X72268705Y-47499989D03*
X70000000Y-59000000D03*
X72599762Y-49107078D03*
X71085551Y-59585551D03*
X72625010Y-59403500D03*
X78500000Y-45500000D03*
X73250000Y-52500000D03*
X54000000Y-71000000D03*
X54000000Y-64500000D03*
X50500000Y-68500000D03*
X51000000Y-69250000D03*
X67000000Y-51000000D03*
X54013593Y-37575011D03*
D30*
X51000000Y-40000000D02*
X51000000Y-39875000D01*
X51000000Y-39875000D02*
X48750000Y-37625000D01*
X48750000Y-37625000D02*
X48750000Y-37250000D01*
X56900000Y-41000000D02*
X60675002Y-41000000D01*
X63300000Y-35152400D02*
X63300000Y-35000000D01*
X60675002Y-41000000D02*
X61875001Y-39800001D01*
X61875001Y-39800001D02*
X61875001Y-36577399D01*
X61875001Y-36577399D02*
X63300000Y-35152400D01*
X42250000Y-50000000D02*
X42250000Y-51950000D01*
X42250000Y-51950000D02*
X42300000Y-52000000D01*
X51000000Y-40000000D02*
X51000000Y-40125000D01*
X51000000Y-40125000D02*
X50049999Y-41075001D01*
X50049999Y-41075001D02*
X50049999Y-43375003D01*
X50049999Y-43375003D02*
X45925002Y-47500000D01*
X45925002Y-47500000D02*
X45000000Y-47500000D01*
X64500000Y-56874990D02*
X64374990Y-57000000D01*
X64500000Y-55000000D02*
X64500000Y-56874990D01*
X52350000Y-62555000D02*
X51900000Y-62555000D01*
X51900000Y-62555000D02*
X46621499Y-67833501D01*
X46621499Y-67833501D02*
X45588719Y-67833501D01*
X45588719Y-67833501D02*
X42300000Y-64544782D01*
X42300000Y-63900000D02*
X42300000Y-63000000D01*
X42300000Y-64544782D02*
X42300000Y-63900000D01*
X77434315Y-55000000D02*
X78000000Y-55000000D01*
X76709314Y-55725001D02*
X77434315Y-55000000D01*
X64500000Y-55000000D02*
X65550000Y-55000000D01*
X66275001Y-55725001D02*
X76709314Y-55725001D01*
X65550000Y-55000000D02*
X66275001Y-55725001D01*
X52350000Y-62555000D02*
X53350000Y-62555000D01*
X53350000Y-62555000D02*
X55405000Y-60500000D01*
X55405000Y-60500000D02*
X63000000Y-60500000D01*
X78000000Y-55000000D02*
X85500000Y-47500000D01*
X85500000Y-47500000D02*
X85500000Y-44850000D01*
X79350000Y-58500000D02*
X79350000Y-56350000D01*
X79350000Y-56350000D02*
X78000000Y-55000000D01*
X42300000Y-63000000D02*
X42300000Y-60000000D01*
X42300000Y-60000000D02*
X42300000Y-52000000D01*
X68324996Y-49000000D02*
X70199998Y-47124998D01*
X72199025Y-49600723D02*
X72499024Y-49900722D01*
X71950011Y-48275007D02*
X71950011Y-49351709D01*
X70199998Y-47124998D02*
X70800002Y-47124998D01*
X70800002Y-47124998D02*
X71950011Y-48275007D01*
X71950011Y-49351709D02*
X72199025Y-49600723D01*
X54500000Y-49000000D02*
X68324996Y-49000000D01*
X46500000Y-46000000D02*
X46500000Y-43540000D01*
X46500000Y-43540000D02*
X47000000Y-43040000D01*
X43600000Y-38100000D02*
X42750000Y-37250000D01*
X43600000Y-39999100D02*
X43600000Y-38100000D01*
X43600000Y-39999100D02*
X43600000Y-39400000D01*
X40900000Y-38999100D02*
X40900000Y-39749100D01*
X40900000Y-39749100D02*
X40900000Y-45999100D01*
X70586652Y-33500000D02*
X72000000Y-33500000D01*
X67900000Y-41540000D02*
X68052400Y-41540000D01*
X68052400Y-41540000D02*
X69241001Y-40351399D01*
X69241001Y-40351399D02*
X69241001Y-36135127D01*
X69241001Y-36135127D02*
X69731390Y-35644738D01*
X69731390Y-35644738D02*
X69731390Y-34355262D01*
X69731390Y-34355262D02*
X70586652Y-33500000D01*
X70920000Y-35000000D02*
X70920000Y-35152400D01*
X69724978Y-36347422D02*
X69724978Y-46075736D01*
X69724978Y-46075736D02*
X69724978Y-46500000D01*
X70920000Y-35152400D02*
X69724978Y-36347422D01*
X69000000Y-58424264D02*
X69000000Y-58000000D01*
X69000000Y-59380002D02*
X69000000Y-58424264D01*
X62660001Y-65720001D02*
X69000000Y-59380002D01*
X60645005Y-65720001D02*
X62660001Y-65720001D01*
X58852181Y-64874998D02*
X59800002Y-64874998D01*
X54822179Y-68905000D02*
X58852181Y-64874998D01*
X59800002Y-64874998D02*
X60645005Y-65720001D01*
X52350000Y-68905000D02*
X54822179Y-68905000D01*
X65750000Y-42250000D02*
X65750000Y-37630000D01*
X65750000Y-37630000D02*
X67114000Y-36266000D01*
X67114000Y-36266000D02*
X67266400Y-36266000D01*
X67266400Y-36266000D02*
X68380000Y-35152400D01*
X68380000Y-35152400D02*
X68380000Y-35000000D01*
X65000000Y-43250000D02*
X65000000Y-35840000D01*
X65000000Y-35840000D02*
X65840000Y-35000000D01*
X61250000Y-39500000D02*
X61250000Y-35490000D01*
X61250000Y-35490000D02*
X60760000Y-35000000D01*
X61650000Y-66365000D02*
X60365000Y-66365000D01*
X60365000Y-66365000D02*
X59500000Y-65500000D01*
X62500000Y-59074998D02*
X62500000Y-52049274D01*
X52350000Y-67635000D02*
X52800000Y-67635000D01*
X59309999Y-61125001D02*
X63300001Y-61125001D01*
X63625001Y-60199999D02*
X62500000Y-59074998D01*
X63300001Y-61125001D02*
X63625001Y-60800001D01*
X62500000Y-52049274D02*
X62500000Y-51625010D01*
X63625001Y-60800001D02*
X63625001Y-60199999D01*
X52800000Y-67635000D02*
X59309999Y-61125001D01*
X50420000Y-44500000D02*
X66214000Y-44500000D01*
X66214000Y-44500000D02*
X66634000Y-44080000D01*
X66634000Y-44080000D02*
X67900000Y-44080000D01*
X46040000Y-48880000D02*
X50420000Y-44500000D01*
X45000000Y-52000000D02*
X45000000Y-49920000D01*
X45000000Y-49920000D02*
X46040000Y-48880000D01*
X46040000Y-56500000D02*
X46040000Y-52940000D01*
X46040000Y-52940000D02*
X45100000Y-52000000D01*
X45100000Y-52000000D02*
X45000000Y-52000000D01*
X87500000Y-53460000D02*
X87652400Y-53460000D01*
X70388843Y-32424987D02*
X69604851Y-33208979D01*
X51648601Y-33658999D02*
X50460000Y-34847600D01*
X59374610Y-33208979D02*
X58924591Y-33658999D01*
X72486402Y-32424987D02*
X70388843Y-32424987D01*
X73720414Y-33658999D02*
X72486402Y-32424987D01*
X79158999Y-33658999D02*
X73720414Y-33658999D01*
X88603501Y-48702899D02*
X88603501Y-43103501D01*
X88603501Y-43103501D02*
X79158999Y-33658999D01*
X87500000Y-49806400D02*
X88603501Y-48702899D01*
X87500000Y-50920000D02*
X87500000Y-49806400D01*
X69604851Y-33208979D02*
X59374610Y-33208979D01*
X58924591Y-33658999D02*
X51648601Y-33658999D01*
X49271390Y-33658990D02*
X50460000Y-34847600D01*
X47427662Y-33658990D02*
X49271390Y-33658990D01*
X44711651Y-36375001D02*
X47427662Y-33658990D01*
X42124998Y-36699998D02*
X42449995Y-36375001D01*
X42124998Y-37550002D02*
X42124998Y-36699998D01*
X42799990Y-45480474D02*
X42799990Y-38224994D01*
X43750000Y-46430484D02*
X42799990Y-45480474D01*
X43750000Y-58500000D02*
X43750000Y-46430484D01*
X42449995Y-36375001D02*
X44711651Y-36375001D01*
X42799990Y-38224994D02*
X42124998Y-37550002D01*
X50460000Y-34847600D02*
X50460000Y-35000000D01*
X76000000Y-55000000D02*
X78049990Y-52950010D01*
X78049990Y-52950010D02*
X78211083Y-52950009D01*
X78211083Y-52950009D02*
X80291011Y-50870081D01*
X80291011Y-50870081D02*
X80291011Y-45315693D01*
X80291011Y-45315693D02*
X76341010Y-41365692D01*
X76341010Y-41365692D02*
X76341010Y-41047662D01*
X76341010Y-41047662D02*
X75644738Y-40351390D01*
X75644738Y-40351390D02*
X73954610Y-40351390D01*
X73954610Y-40351390D02*
X72766000Y-41540000D01*
X72766000Y-41540000D02*
X71500000Y-41540000D01*
X75000000Y-57000000D02*
X75150000Y-57000000D01*
X75150000Y-57000000D02*
X76650000Y-58500000D01*
X71500000Y-48750000D02*
X70500000Y-47750000D01*
X71500000Y-50250000D02*
X71500000Y-48750000D01*
X61650000Y-68905000D02*
X62650000Y-68905000D01*
X62650000Y-68905000D02*
X72000000Y-59555000D01*
X72000000Y-59555000D02*
X72000000Y-58750000D01*
X70000000Y-59424264D02*
X70000000Y-59000000D01*
X54188590Y-70175000D02*
X57373589Y-66990001D01*
X70000000Y-59650002D02*
X70000000Y-59424264D01*
X57373589Y-66990001D02*
X62660001Y-66990001D01*
X62660001Y-66990001D02*
X70000000Y-59650002D01*
X52350000Y-70175000D02*
X54188590Y-70175000D01*
X72568704Y-47199990D02*
X72268705Y-47499989D01*
X73658990Y-42728610D02*
X73658990Y-46109704D01*
X74847600Y-41540000D02*
X73658990Y-42728610D01*
X73658990Y-46109704D02*
X72568704Y-47199990D01*
X75000000Y-41540000D02*
X74847600Y-41540000D01*
X70785552Y-59885550D02*
X71085551Y-59585551D01*
X56524998Y-72375002D02*
X60639999Y-68260001D01*
X60639999Y-68260001D02*
X62658589Y-68260001D01*
X62658589Y-68260001D02*
X70785552Y-60133038D01*
X52800000Y-71445000D02*
X53730002Y-72375002D01*
X70785552Y-60133038D02*
X70785552Y-59885550D01*
X53730002Y-72375002D02*
X56524998Y-72375002D01*
X52350000Y-71445000D02*
X52800000Y-71445000D01*
X76341010Y-45268610D02*
X76341010Y-47112338D01*
X76341010Y-47112338D02*
X74346270Y-49107078D01*
X75152400Y-44080000D02*
X76341010Y-45268610D01*
X75000000Y-44080000D02*
X75152400Y-44080000D01*
X73024026Y-49107078D02*
X72599762Y-49107078D01*
X74346270Y-49107078D02*
X73024026Y-49107078D01*
X62100000Y-70175000D02*
X72625010Y-59649990D01*
X72625010Y-59649990D02*
X72625010Y-59403500D01*
X61650000Y-70175000D02*
X62100000Y-70175000D01*
X73250000Y-52500000D02*
X78024682Y-52500000D01*
X78024682Y-52500000D02*
X79841001Y-50683681D01*
X79841001Y-50683681D02*
X79841001Y-46223999D01*
X79841001Y-46223999D02*
X79117002Y-45500000D01*
X79117002Y-45500000D02*
X78500000Y-45500000D01*
X85500000Y-42150000D02*
X85500000Y-42250000D01*
X85500000Y-42250000D02*
X82500000Y-45250000D01*
X82500000Y-45250000D02*
X82500000Y-46012172D01*
X82500000Y-46012172D02*
X82500000Y-47000000D01*
X85500000Y-42150000D02*
X85500000Y-42050000D01*
X85500000Y-42050000D02*
X82830000Y-39380000D01*
X82830000Y-39380000D02*
X82500000Y-39380000D01*
X61650000Y-67635000D02*
X57365000Y-67635000D01*
X57365000Y-67635000D02*
X54000000Y-71000000D01*
X45000000Y-63000000D02*
X45000000Y-65730000D01*
X45000000Y-65730000D02*
X46080000Y-66810000D01*
X45000000Y-63000000D02*
X45000000Y-60270000D01*
X45000000Y-60270000D02*
X46080000Y-59190000D01*
X52350000Y-66365000D02*
X52800000Y-66365000D01*
X52800000Y-66365000D02*
X54000000Y-65165000D01*
X54000000Y-65165000D02*
X54000000Y-64500000D01*
X52350000Y-63825000D02*
X51900000Y-63825000D01*
X51900000Y-63825000D02*
X50500000Y-65225000D01*
X50500000Y-65225000D02*
X50500000Y-68500000D01*
X51000000Y-69250000D02*
X51274999Y-68975001D01*
X51274999Y-68975001D02*
X51274999Y-65720001D01*
X51274999Y-65720001D02*
X51900000Y-65095000D01*
X51900000Y-65095000D02*
X52350000Y-65095000D01*
X67299999Y-51299999D02*
X77240001Y-51299999D01*
X77484001Y-51055999D02*
X78500000Y-50040000D01*
X67000000Y-51000000D02*
X67299999Y-51299999D01*
X77240001Y-51299999D02*
X77484001Y-51055999D01*
X53500000Y-40000000D02*
X54375000Y-40000000D01*
X55152582Y-39222418D02*
X55152582Y-38714000D01*
X54375000Y-40000000D02*
X55152582Y-39222418D01*
X54313592Y-37875010D02*
X54013593Y-37575011D01*
X55152582Y-38714000D02*
X54313592Y-37875010D01*
X56900000Y-38714000D02*
X55152582Y-38714000D01*
D31*
G36*
X87843501Y-43418303D02*
X87843501Y-45679056D01*
X87772520Y-45654073D01*
X87242801Y-45682852D01*
X86887071Y-45830200D01*
X86825417Y-46065812D01*
X87580000Y-46820395D01*
X87594143Y-46806253D01*
X87773748Y-46985858D01*
X87759605Y-47000000D01*
X87773748Y-47014143D01*
X87594143Y-47193748D01*
X87580000Y-47179605D01*
X86825417Y-47934188D01*
X86887071Y-48169800D01*
X87387480Y-48345927D01*
X87843501Y-48321152D01*
X87843501Y-48388097D01*
X86962599Y-49268999D01*
X86869080Y-49408960D01*
X86484000Y-49408960D01*
X86236235Y-49458243D01*
X86026191Y-49598591D01*
X85885843Y-49808635D01*
X85836560Y-50056400D01*
X85836560Y-51783600D01*
X85885843Y-52031365D01*
X86026191Y-52241409D01*
X86236235Y-52381757D01*
X86272566Y-52388984D01*
X86255585Y-52400330D01*
X85930729Y-52886511D01*
X85816655Y-53460000D01*
X85930729Y-54033489D01*
X86255585Y-54519670D01*
X86565069Y-54726461D01*
X86149268Y-55097964D01*
X85895291Y-55625209D01*
X85892642Y-55640974D01*
X86013783Y-55873000D01*
X87373000Y-55873000D01*
X87373000Y-55853000D01*
X87627000Y-55853000D01*
X87627000Y-55873000D01*
X87647000Y-55873000D01*
X87647000Y-56127000D01*
X87627000Y-56127000D01*
X87627000Y-56147000D01*
X87373000Y-56147000D01*
X87373000Y-56127000D01*
X86013783Y-56127000D01*
X85892642Y-56359026D01*
X85895291Y-56374791D01*
X86149268Y-56902036D01*
X86565069Y-57273539D01*
X86255585Y-57480330D01*
X85930729Y-57966511D01*
X85816655Y-58540000D01*
X85930729Y-59113489D01*
X86255585Y-59599670D01*
X86570366Y-59810000D01*
X86255585Y-60020330D01*
X85930729Y-60506511D01*
X85816655Y-61080000D01*
X85930729Y-61653489D01*
X86255585Y-62139670D01*
X86741766Y-62464526D01*
X87315255Y-62578600D01*
X87684745Y-62578600D01*
X88258234Y-62464526D01*
X88744415Y-62139670D01*
X88790000Y-62071447D01*
X88790000Y-75290000D01*
X40210000Y-75290000D01*
X40210000Y-73442619D01*
X40264613Y-73442619D01*
X40604155Y-74264372D01*
X41232321Y-74893636D01*
X42053481Y-75234611D01*
X42942619Y-75235387D01*
X43764372Y-74895845D01*
X44393636Y-74267679D01*
X44734611Y-73446519D01*
X44734614Y-73442619D01*
X84264613Y-73442619D01*
X84604155Y-74264372D01*
X85232321Y-74893636D01*
X86053481Y-75234611D01*
X86942619Y-75235387D01*
X87764372Y-74895845D01*
X88393636Y-74267679D01*
X88734611Y-73446519D01*
X88735387Y-72557381D01*
X88395845Y-71735628D01*
X87767679Y-71106364D01*
X86946519Y-70765389D01*
X86057381Y-70764613D01*
X85235628Y-71104155D01*
X84606364Y-71732321D01*
X84265389Y-72553481D01*
X84264613Y-73442619D01*
X44734614Y-73442619D01*
X44735387Y-72557381D01*
X44395845Y-71735628D01*
X43767679Y-71106364D01*
X42946519Y-70765389D01*
X42057381Y-70764613D01*
X41235628Y-71104155D01*
X40606364Y-71732321D01*
X40265389Y-72553481D01*
X40264613Y-73442619D01*
X40210000Y-73442619D01*
X40210000Y-67779608D01*
X40245418Y-67744190D01*
X40307071Y-67979800D01*
X40807480Y-68155927D01*
X41337199Y-68127148D01*
X41692929Y-67979800D01*
X41754583Y-67744188D01*
X41000000Y-66989605D01*
X40985858Y-67003748D01*
X40806253Y-66824143D01*
X40820395Y-66810000D01*
X41179605Y-66810000D01*
X41934188Y-67564583D01*
X42169800Y-67502929D01*
X42345927Y-67002520D01*
X42317148Y-66472801D01*
X42169800Y-66117071D01*
X41934188Y-66055417D01*
X41179605Y-66810000D01*
X40820395Y-66810000D01*
X40806253Y-66795858D01*
X40985858Y-66616253D01*
X41000000Y-66630395D01*
X41754583Y-65875812D01*
X41692929Y-65640200D01*
X41192520Y-65464073D01*
X40662801Y-65492852D01*
X40307071Y-65640200D01*
X40245418Y-65875810D01*
X40210000Y-65840392D01*
X40210000Y-60159608D01*
X40245418Y-60124190D01*
X40307071Y-60359800D01*
X40807480Y-60535927D01*
X41337199Y-60507148D01*
X41540000Y-60423145D01*
X41540000Y-61704549D01*
X41302235Y-61751843D01*
X41092191Y-61892191D01*
X40951843Y-62102235D01*
X40902560Y-62350000D01*
X40902560Y-63650000D01*
X40951843Y-63897765D01*
X41092191Y-64107809D01*
X41302235Y-64248157D01*
X41540000Y-64295451D01*
X41540000Y-64544782D01*
X41597852Y-64835621D01*
X41762599Y-65082183D01*
X45051318Y-68370902D01*
X45297880Y-68535649D01*
X45588719Y-68593501D01*
X46621499Y-68593501D01*
X46912338Y-68535649D01*
X47158900Y-68370902D01*
X49740000Y-65789802D01*
X49740000Y-67937537D01*
X49707808Y-67969673D01*
X49565162Y-68313201D01*
X49564838Y-68685167D01*
X49706883Y-69028943D01*
X49969673Y-69292192D01*
X50064928Y-69331746D01*
X50064838Y-69435167D01*
X50206883Y-69778943D01*
X50469673Y-70042192D01*
X50813201Y-70184838D01*
X50952560Y-70184959D01*
X50952560Y-70475000D01*
X51001843Y-70722765D01*
X51060132Y-70810000D01*
X51001843Y-70897235D01*
X50952560Y-71145000D01*
X50952560Y-71745000D01*
X51001843Y-71992765D01*
X51142191Y-72202809D01*
X51352235Y-72343157D01*
X51600000Y-72392440D01*
X52672638Y-72392440D01*
X53192601Y-72912403D01*
X53439162Y-73077150D01*
X53487416Y-73086748D01*
X53730002Y-73135002D01*
X56524998Y-73135002D01*
X56815837Y-73077150D01*
X57062399Y-72912403D01*
X58244052Y-71730750D01*
X60265000Y-71730750D01*
X60265000Y-71871310D01*
X60361673Y-72104699D01*
X60540302Y-72283327D01*
X60773691Y-72380000D01*
X61364250Y-72380000D01*
X61523000Y-72221250D01*
X61523000Y-71572000D01*
X61777000Y-71572000D01*
X61777000Y-72221250D01*
X61935750Y-72380000D01*
X62526309Y-72380000D01*
X62759698Y-72283327D01*
X62938327Y-72104699D01*
X63035000Y-71871310D01*
X63035000Y-71730750D01*
X62876250Y-71572000D01*
X61777000Y-71572000D01*
X61523000Y-71572000D01*
X60423750Y-71572000D01*
X60265000Y-71730750D01*
X58244052Y-71730750D01*
X60290490Y-69684312D01*
X60252560Y-69875000D01*
X60252560Y-70475000D01*
X60301843Y-70722765D01*
X60354768Y-70801972D01*
X60265000Y-71018690D01*
X60265000Y-71159250D01*
X60423750Y-71318000D01*
X61523000Y-71318000D01*
X61523000Y-71298000D01*
X61777000Y-71298000D01*
X61777000Y-71318000D01*
X62876250Y-71318000D01*
X63035000Y-71159250D01*
X63035000Y-71018690D01*
X62945232Y-70801972D01*
X62998157Y-70722765D01*
X63047440Y-70475000D01*
X63047440Y-70302362D01*
X73152644Y-60197158D01*
X73153953Y-60196617D01*
X73417202Y-59933827D01*
X73559848Y-59590299D01*
X73560172Y-59218333D01*
X73418127Y-58874557D01*
X73155337Y-58611308D01*
X72912742Y-58510573D01*
X72793117Y-58221057D01*
X72530327Y-57957808D01*
X72186799Y-57815162D01*
X71814833Y-57814838D01*
X71471057Y-57956883D01*
X71207808Y-58219673D01*
X71065162Y-58563201D01*
X71065086Y-58650532D01*
X70900384Y-58650389D01*
X70872052Y-58662095D01*
X70793117Y-58471057D01*
X70530327Y-58207808D01*
X70186799Y-58065162D01*
X69934944Y-58064943D01*
X69935162Y-57814833D01*
X69793117Y-57471057D01*
X69530327Y-57207808D01*
X69186799Y-57065162D01*
X68814833Y-57064838D01*
X68471057Y-57206883D01*
X68207808Y-57469673D01*
X68065162Y-57813201D01*
X68064838Y-58185167D01*
X68206883Y-58528943D01*
X68240000Y-58562118D01*
X68240000Y-59065200D01*
X63021643Y-64283557D01*
X63035000Y-64251310D01*
X63035000Y-64110750D01*
X62876250Y-63952000D01*
X61777000Y-63952000D01*
X61777000Y-64960001D01*
X61523000Y-64960001D01*
X61523000Y-63952000D01*
X60423750Y-63952000D01*
X60265000Y-64110750D01*
X60265000Y-64251310D01*
X60286711Y-64303726D01*
X60090841Y-64172850D01*
X59800002Y-64114998D01*
X58852181Y-64114998D01*
X58561342Y-64172850D01*
X58435892Y-64256673D01*
X58314780Y-64337597D01*
X54507377Y-68145000D01*
X53705669Y-68145000D01*
X53747440Y-67935000D01*
X53747440Y-67762362D01*
X58669052Y-62840750D01*
X60265000Y-62840750D01*
X60265000Y-62981310D01*
X60351442Y-63190000D01*
X60265000Y-63398690D01*
X60265000Y-63539250D01*
X60423750Y-63698000D01*
X61523000Y-63698000D01*
X61523000Y-62682000D01*
X61777000Y-62682000D01*
X61777000Y-63698000D01*
X62876250Y-63698000D01*
X63035000Y-63539250D01*
X63035000Y-63398690D01*
X62948558Y-63190000D01*
X63035000Y-62981310D01*
X63035000Y-62840750D01*
X62876250Y-62682000D01*
X61777000Y-62682000D01*
X61523000Y-62682000D01*
X60423750Y-62682000D01*
X60265000Y-62840750D01*
X58669052Y-62840750D01*
X59624801Y-61885001D01*
X60371973Y-61885001D01*
X60361673Y-61895301D01*
X60265000Y-62128690D01*
X60265000Y-62269250D01*
X60423750Y-62428000D01*
X61523000Y-62428000D01*
X61523000Y-62408000D01*
X61777000Y-62408000D01*
X61777000Y-62428000D01*
X62876250Y-62428000D01*
X63035000Y-62269250D01*
X63035000Y-62128690D01*
X62938327Y-61895301D01*
X62928027Y-61885001D01*
X63300001Y-61885001D01*
X63590840Y-61827149D01*
X63837402Y-61662402D01*
X64162402Y-61337402D01*
X64327149Y-61090841D01*
X64339461Y-61028943D01*
X64385001Y-60800001D01*
X64385001Y-60199999D01*
X64327149Y-59909160D01*
X64162402Y-59662598D01*
X63260000Y-58760196D01*
X63260000Y-56469709D01*
X63452235Y-56598157D01*
X63523556Y-56612343D01*
X63440152Y-56813201D01*
X63439828Y-57185167D01*
X63581873Y-57528943D01*
X63844663Y-57792192D01*
X64188191Y-57934838D01*
X64560157Y-57935162D01*
X64903933Y-57793117D01*
X65167182Y-57530327D01*
X65309828Y-57186799D01*
X65310152Y-56814833D01*
X65260000Y-56693456D01*
X65260000Y-56647440D01*
X65300000Y-56647440D01*
X65547765Y-56598157D01*
X65757809Y-56457809D01*
X65841838Y-56332052D01*
X65984161Y-56427149D01*
X66275001Y-56485001D01*
X74201443Y-56485001D01*
X74065162Y-56813201D01*
X74064838Y-57185167D01*
X74206883Y-57528943D01*
X74469673Y-57792192D01*
X74813201Y-57934838D01*
X75010208Y-57935010D01*
X75252560Y-58177362D01*
X75252560Y-59150000D01*
X75301843Y-59397765D01*
X75442191Y-59607809D01*
X75652235Y-59748157D01*
X75900000Y-59797440D01*
X77400000Y-59797440D01*
X77647765Y-59748157D01*
X77857809Y-59607809D01*
X77998157Y-59397765D01*
X78000000Y-59388500D01*
X78001843Y-59397765D01*
X78142191Y-59607809D01*
X78352235Y-59748157D01*
X78600000Y-59797440D01*
X80100000Y-59797440D01*
X80347765Y-59748157D01*
X80557809Y-59607809D01*
X80698157Y-59397765D01*
X80747440Y-59150000D01*
X80747440Y-57850000D01*
X80698157Y-57602235D01*
X80557809Y-57392191D01*
X80347765Y-57251843D01*
X80110000Y-57204549D01*
X80110000Y-56350000D01*
X80089664Y-56247765D01*
X80052148Y-56059160D01*
X79887401Y-55812599D01*
X79074802Y-55000000D01*
X86037401Y-48037401D01*
X86202148Y-47790839D01*
X86260000Y-47500000D01*
X86260000Y-47284704D01*
X86262852Y-47337199D01*
X86410200Y-47692929D01*
X86645812Y-47754583D01*
X87400395Y-47000000D01*
X86645812Y-46245417D01*
X86410200Y-46307071D01*
X86260000Y-46733817D01*
X86260000Y-46225560D01*
X86397765Y-46198157D01*
X86607809Y-46057809D01*
X86748157Y-45847765D01*
X86797440Y-45600000D01*
X86797440Y-44100000D01*
X86748157Y-43852235D01*
X86607809Y-43642191D01*
X86397765Y-43501843D01*
X86388500Y-43500000D01*
X86397765Y-43498157D01*
X86607809Y-43357809D01*
X86748157Y-43147765D01*
X86797440Y-42900000D01*
X86797440Y-42372242D01*
X87843501Y-43418303D01*
X87843501Y-43418303D01*
G37*
X87843501Y-43418303D02*
X87843501Y-45679056D01*
X87772520Y-45654073D01*
X87242801Y-45682852D01*
X86887071Y-45830200D01*
X86825417Y-46065812D01*
X87580000Y-46820395D01*
X87594143Y-46806253D01*
X87773748Y-46985858D01*
X87759605Y-47000000D01*
X87773748Y-47014143D01*
X87594143Y-47193748D01*
X87580000Y-47179605D01*
X86825417Y-47934188D01*
X86887071Y-48169800D01*
X87387480Y-48345927D01*
X87843501Y-48321152D01*
X87843501Y-48388097D01*
X86962599Y-49268999D01*
X86869080Y-49408960D01*
X86484000Y-49408960D01*
X86236235Y-49458243D01*
X86026191Y-49598591D01*
X85885843Y-49808635D01*
X85836560Y-50056400D01*
X85836560Y-51783600D01*
X85885843Y-52031365D01*
X86026191Y-52241409D01*
X86236235Y-52381757D01*
X86272566Y-52388984D01*
X86255585Y-52400330D01*
X85930729Y-52886511D01*
X85816655Y-53460000D01*
X85930729Y-54033489D01*
X86255585Y-54519670D01*
X86565069Y-54726461D01*
X86149268Y-55097964D01*
X85895291Y-55625209D01*
X85892642Y-55640974D01*
X86013783Y-55873000D01*
X87373000Y-55873000D01*
X87373000Y-55853000D01*
X87627000Y-55853000D01*
X87627000Y-55873000D01*
X87647000Y-55873000D01*
X87647000Y-56127000D01*
X87627000Y-56127000D01*
X87627000Y-56147000D01*
X87373000Y-56147000D01*
X87373000Y-56127000D01*
X86013783Y-56127000D01*
X85892642Y-56359026D01*
X85895291Y-56374791D01*
X86149268Y-56902036D01*
X86565069Y-57273539D01*
X86255585Y-57480330D01*
X85930729Y-57966511D01*
X85816655Y-58540000D01*
X85930729Y-59113489D01*
X86255585Y-59599670D01*
X86570366Y-59810000D01*
X86255585Y-60020330D01*
X85930729Y-60506511D01*
X85816655Y-61080000D01*
X85930729Y-61653489D01*
X86255585Y-62139670D01*
X86741766Y-62464526D01*
X87315255Y-62578600D01*
X87684745Y-62578600D01*
X88258234Y-62464526D01*
X88744415Y-62139670D01*
X88790000Y-62071447D01*
X88790000Y-75290000D01*
X40210000Y-75290000D01*
X40210000Y-73442619D01*
X40264613Y-73442619D01*
X40604155Y-74264372D01*
X41232321Y-74893636D01*
X42053481Y-75234611D01*
X42942619Y-75235387D01*
X43764372Y-74895845D01*
X44393636Y-74267679D01*
X44734611Y-73446519D01*
X44734614Y-73442619D01*
X84264613Y-73442619D01*
X84604155Y-74264372D01*
X85232321Y-74893636D01*
X86053481Y-75234611D01*
X86942619Y-75235387D01*
X87764372Y-74895845D01*
X88393636Y-74267679D01*
X88734611Y-73446519D01*
X88735387Y-72557381D01*
X88395845Y-71735628D01*
X87767679Y-71106364D01*
X86946519Y-70765389D01*
X86057381Y-70764613D01*
X85235628Y-71104155D01*
X84606364Y-71732321D01*
X84265389Y-72553481D01*
X84264613Y-73442619D01*
X44734614Y-73442619D01*
X44735387Y-72557381D01*
X44395845Y-71735628D01*
X43767679Y-71106364D01*
X42946519Y-70765389D01*
X42057381Y-70764613D01*
X41235628Y-71104155D01*
X40606364Y-71732321D01*
X40265389Y-72553481D01*
X40264613Y-73442619D01*
X40210000Y-73442619D01*
X40210000Y-67779608D01*
X40245418Y-67744190D01*
X40307071Y-67979800D01*
X40807480Y-68155927D01*
X41337199Y-68127148D01*
X41692929Y-67979800D01*
X41754583Y-67744188D01*
X41000000Y-66989605D01*
X40985858Y-67003748D01*
X40806253Y-66824143D01*
X40820395Y-66810000D01*
X41179605Y-66810000D01*
X41934188Y-67564583D01*
X42169800Y-67502929D01*
X42345927Y-67002520D01*
X42317148Y-66472801D01*
X42169800Y-66117071D01*
X41934188Y-66055417D01*
X41179605Y-66810000D01*
X40820395Y-66810000D01*
X40806253Y-66795858D01*
X40985858Y-66616253D01*
X41000000Y-66630395D01*
X41754583Y-65875812D01*
X41692929Y-65640200D01*
X41192520Y-65464073D01*
X40662801Y-65492852D01*
X40307071Y-65640200D01*
X40245418Y-65875810D01*
X40210000Y-65840392D01*
X40210000Y-60159608D01*
X40245418Y-60124190D01*
X40307071Y-60359800D01*
X40807480Y-60535927D01*
X41337199Y-60507148D01*
X41540000Y-60423145D01*
X41540000Y-61704549D01*
X41302235Y-61751843D01*
X41092191Y-61892191D01*
X40951843Y-62102235D01*
X40902560Y-62350000D01*
X40902560Y-63650000D01*
X40951843Y-63897765D01*
X41092191Y-64107809D01*
X41302235Y-64248157D01*
X41540000Y-64295451D01*
X41540000Y-64544782D01*
X41597852Y-64835621D01*
X41762599Y-65082183D01*
X45051318Y-68370902D01*
X45297880Y-68535649D01*
X45588719Y-68593501D01*
X46621499Y-68593501D01*
X46912338Y-68535649D01*
X47158900Y-68370902D01*
X49740000Y-65789802D01*
X49740000Y-67937537D01*
X49707808Y-67969673D01*
X49565162Y-68313201D01*
X49564838Y-68685167D01*
X49706883Y-69028943D01*
X49969673Y-69292192D01*
X50064928Y-69331746D01*
X50064838Y-69435167D01*
X50206883Y-69778943D01*
X50469673Y-70042192D01*
X50813201Y-70184838D01*
X50952560Y-70184959D01*
X50952560Y-70475000D01*
X51001843Y-70722765D01*
X51060132Y-70810000D01*
X51001843Y-70897235D01*
X50952560Y-71145000D01*
X50952560Y-71745000D01*
X51001843Y-71992765D01*
X51142191Y-72202809D01*
X51352235Y-72343157D01*
X51600000Y-72392440D01*
X52672638Y-72392440D01*
X53192601Y-72912403D01*
X53439162Y-73077150D01*
X53487416Y-73086748D01*
X53730002Y-73135002D01*
X56524998Y-73135002D01*
X56815837Y-73077150D01*
X57062399Y-72912403D01*
X58244052Y-71730750D01*
X60265000Y-71730750D01*
X60265000Y-71871310D01*
X60361673Y-72104699D01*
X60540302Y-72283327D01*
X60773691Y-72380000D01*
X61364250Y-72380000D01*
X61523000Y-72221250D01*
X61523000Y-71572000D01*
X61777000Y-71572000D01*
X61777000Y-72221250D01*
X61935750Y-72380000D01*
X62526309Y-72380000D01*
X62759698Y-72283327D01*
X62938327Y-72104699D01*
X63035000Y-71871310D01*
X63035000Y-71730750D01*
X62876250Y-71572000D01*
X61777000Y-71572000D01*
X61523000Y-71572000D01*
X60423750Y-71572000D01*
X60265000Y-71730750D01*
X58244052Y-71730750D01*
X60290490Y-69684312D01*
X60252560Y-69875000D01*
X60252560Y-70475000D01*
X60301843Y-70722765D01*
X60354768Y-70801972D01*
X60265000Y-71018690D01*
X60265000Y-71159250D01*
X60423750Y-71318000D01*
X61523000Y-71318000D01*
X61523000Y-71298000D01*
X61777000Y-71298000D01*
X61777000Y-71318000D01*
X62876250Y-71318000D01*
X63035000Y-71159250D01*
X63035000Y-71018690D01*
X62945232Y-70801972D01*
X62998157Y-70722765D01*
X63047440Y-70475000D01*
X63047440Y-70302362D01*
X73152644Y-60197158D01*
X73153953Y-60196617D01*
X73417202Y-59933827D01*
X73559848Y-59590299D01*
X73560172Y-59218333D01*
X73418127Y-58874557D01*
X73155337Y-58611308D01*
X72912742Y-58510573D01*
X72793117Y-58221057D01*
X72530327Y-57957808D01*
X72186799Y-57815162D01*
X71814833Y-57814838D01*
X71471057Y-57956883D01*
X71207808Y-58219673D01*
X71065162Y-58563201D01*
X71065086Y-58650532D01*
X70900384Y-58650389D01*
X70872052Y-58662095D01*
X70793117Y-58471057D01*
X70530327Y-58207808D01*
X70186799Y-58065162D01*
X69934944Y-58064943D01*
X69935162Y-57814833D01*
X69793117Y-57471057D01*
X69530327Y-57207808D01*
X69186799Y-57065162D01*
X68814833Y-57064838D01*
X68471057Y-57206883D01*
X68207808Y-57469673D01*
X68065162Y-57813201D01*
X68064838Y-58185167D01*
X68206883Y-58528943D01*
X68240000Y-58562118D01*
X68240000Y-59065200D01*
X63021643Y-64283557D01*
X63035000Y-64251310D01*
X63035000Y-64110750D01*
X62876250Y-63952000D01*
X61777000Y-63952000D01*
X61777000Y-64960001D01*
X61523000Y-64960001D01*
X61523000Y-63952000D01*
X60423750Y-63952000D01*
X60265000Y-64110750D01*
X60265000Y-64251310D01*
X60286711Y-64303726D01*
X60090841Y-64172850D01*
X59800002Y-64114998D01*
X58852181Y-64114998D01*
X58561342Y-64172850D01*
X58435892Y-64256673D01*
X58314780Y-64337597D01*
X54507377Y-68145000D01*
X53705669Y-68145000D01*
X53747440Y-67935000D01*
X53747440Y-67762362D01*
X58669052Y-62840750D01*
X60265000Y-62840750D01*
X60265000Y-62981310D01*
X60351442Y-63190000D01*
X60265000Y-63398690D01*
X60265000Y-63539250D01*
X60423750Y-63698000D01*
X61523000Y-63698000D01*
X61523000Y-62682000D01*
X61777000Y-62682000D01*
X61777000Y-63698000D01*
X62876250Y-63698000D01*
X63035000Y-63539250D01*
X63035000Y-63398690D01*
X62948558Y-63190000D01*
X63035000Y-62981310D01*
X63035000Y-62840750D01*
X62876250Y-62682000D01*
X61777000Y-62682000D01*
X61523000Y-62682000D01*
X60423750Y-62682000D01*
X60265000Y-62840750D01*
X58669052Y-62840750D01*
X59624801Y-61885001D01*
X60371973Y-61885001D01*
X60361673Y-61895301D01*
X60265000Y-62128690D01*
X60265000Y-62269250D01*
X60423750Y-62428000D01*
X61523000Y-62428000D01*
X61523000Y-62408000D01*
X61777000Y-62408000D01*
X61777000Y-62428000D01*
X62876250Y-62428000D01*
X63035000Y-62269250D01*
X63035000Y-62128690D01*
X62938327Y-61895301D01*
X62928027Y-61885001D01*
X63300001Y-61885001D01*
X63590840Y-61827149D01*
X63837402Y-61662402D01*
X64162402Y-61337402D01*
X64327149Y-61090841D01*
X64339461Y-61028943D01*
X64385001Y-60800001D01*
X64385001Y-60199999D01*
X64327149Y-59909160D01*
X64162402Y-59662598D01*
X63260000Y-58760196D01*
X63260000Y-56469709D01*
X63452235Y-56598157D01*
X63523556Y-56612343D01*
X63440152Y-56813201D01*
X63439828Y-57185167D01*
X63581873Y-57528943D01*
X63844663Y-57792192D01*
X64188191Y-57934838D01*
X64560157Y-57935162D01*
X64903933Y-57793117D01*
X65167182Y-57530327D01*
X65309828Y-57186799D01*
X65310152Y-56814833D01*
X65260000Y-56693456D01*
X65260000Y-56647440D01*
X65300000Y-56647440D01*
X65547765Y-56598157D01*
X65757809Y-56457809D01*
X65841838Y-56332052D01*
X65984161Y-56427149D01*
X66275001Y-56485001D01*
X74201443Y-56485001D01*
X74065162Y-56813201D01*
X74064838Y-57185167D01*
X74206883Y-57528943D01*
X74469673Y-57792192D01*
X74813201Y-57934838D01*
X75010208Y-57935010D01*
X75252560Y-58177362D01*
X75252560Y-59150000D01*
X75301843Y-59397765D01*
X75442191Y-59607809D01*
X75652235Y-59748157D01*
X75900000Y-59797440D01*
X77400000Y-59797440D01*
X77647765Y-59748157D01*
X77857809Y-59607809D01*
X77998157Y-59397765D01*
X78000000Y-59388500D01*
X78001843Y-59397765D01*
X78142191Y-59607809D01*
X78352235Y-59748157D01*
X78600000Y-59797440D01*
X80100000Y-59797440D01*
X80347765Y-59748157D01*
X80557809Y-59607809D01*
X80698157Y-59397765D01*
X80747440Y-59150000D01*
X80747440Y-57850000D01*
X80698157Y-57602235D01*
X80557809Y-57392191D01*
X80347765Y-57251843D01*
X80110000Y-57204549D01*
X80110000Y-56350000D01*
X80089664Y-56247765D01*
X80052148Y-56059160D01*
X79887401Y-55812599D01*
X79074802Y-55000000D01*
X86037401Y-48037401D01*
X86202148Y-47790839D01*
X86260000Y-47500000D01*
X86260000Y-47284704D01*
X86262852Y-47337199D01*
X86410200Y-47692929D01*
X86645812Y-47754583D01*
X87400395Y-47000000D01*
X86645812Y-46245417D01*
X86410200Y-46307071D01*
X86260000Y-46733817D01*
X86260000Y-46225560D01*
X86397765Y-46198157D01*
X86607809Y-46057809D01*
X86748157Y-45847765D01*
X86797440Y-45600000D01*
X86797440Y-44100000D01*
X86748157Y-43852235D01*
X86607809Y-43642191D01*
X86397765Y-43501843D01*
X86388500Y-43500000D01*
X86397765Y-43498157D01*
X86607809Y-43357809D01*
X86748157Y-43147765D01*
X86797440Y-42900000D01*
X86797440Y-42372242D01*
X87843501Y-43418303D01*
G36*
X41193748Y-59175858D02*
X41179605Y-59190000D01*
X41193748Y-59204143D01*
X41014143Y-59383748D01*
X41000000Y-59369605D01*
X40985858Y-59383748D01*
X40806253Y-59204143D01*
X40820395Y-59190000D01*
X40806253Y-59175858D01*
X40985858Y-58996253D01*
X41000000Y-59010395D01*
X41014143Y-58996253D01*
X41193748Y-59175858D01*
X41193748Y-59175858D01*
G37*
X41193748Y-59175858D02*
X41179605Y-59190000D01*
X41193748Y-59204143D01*
X41014143Y-59383748D01*
X41000000Y-59369605D01*
X40985858Y-59383748D01*
X40806253Y-59204143D01*
X40820395Y-59190000D01*
X40806253Y-59175858D01*
X40985858Y-58996253D01*
X41000000Y-59010395D01*
X41014143Y-58996253D01*
X41193748Y-59175858D01*
G36*
X41153748Y-56485858D02*
X41139605Y-56500000D01*
X41153748Y-56514143D01*
X40974143Y-56693748D01*
X40960000Y-56679605D01*
X40945858Y-56693748D01*
X40766253Y-56514143D01*
X40780395Y-56500000D01*
X40766253Y-56485858D01*
X40945858Y-56306253D01*
X40960000Y-56320395D01*
X40974143Y-56306253D01*
X41153748Y-56485858D01*
X41153748Y-56485858D01*
G37*
X41153748Y-56485858D02*
X41139605Y-56500000D01*
X41153748Y-56514143D01*
X40974143Y-56693748D01*
X40960000Y-56679605D01*
X40945858Y-56693748D01*
X40766253Y-56514143D01*
X40780395Y-56500000D01*
X40766253Y-56485858D01*
X40945858Y-56306253D01*
X40960000Y-56320395D01*
X40974143Y-56306253D01*
X41153748Y-56485858D01*
G36*
X69969673Y-48542192D02*
X70313201Y-48684838D01*
X70360077Y-48684879D01*
X70740000Y-49064802D01*
X70740000Y-49687537D01*
X70707808Y-49719673D01*
X70565162Y-50063201D01*
X70564838Y-50435167D01*
X70608154Y-50539999D01*
X67821603Y-50539999D01*
X67793117Y-50471057D01*
X67530327Y-50207808D01*
X67186799Y-50065162D01*
X66814833Y-50064838D01*
X66471057Y-50206883D01*
X66207808Y-50469673D01*
X66065162Y-50813201D01*
X66064838Y-51185167D01*
X66206883Y-51528943D01*
X66469673Y-51792192D01*
X66813201Y-51934838D01*
X66908549Y-51934921D01*
X67009160Y-52002147D01*
X67299999Y-52059999D01*
X72420301Y-52059999D01*
X72315162Y-52313201D01*
X72314838Y-52685167D01*
X72456883Y-53028943D01*
X72719673Y-53292192D01*
X73063201Y-53434838D01*
X73435167Y-53435162D01*
X73778943Y-53293117D01*
X73812118Y-53260000D01*
X76665198Y-53260000D01*
X75960233Y-53964965D01*
X75795029Y-53964821D01*
X75414485Y-54122058D01*
X75123081Y-54412954D01*
X74999892Y-54709627D01*
X74877942Y-54414485D01*
X74587046Y-54123081D01*
X74206777Y-53965180D01*
X73795029Y-53964821D01*
X73414485Y-54122058D01*
X73123081Y-54412954D01*
X73007157Y-54692130D01*
X72922180Y-54486977D01*
X72717350Y-54462255D01*
X72214604Y-54965001D01*
X71785396Y-54965001D01*
X71282650Y-54462255D01*
X71077820Y-54486977D01*
X70951691Y-54878931D01*
X70958710Y-54965001D01*
X66589803Y-54965001D01*
X66087401Y-54462599D01*
X65947440Y-54369080D01*
X65947440Y-54282650D01*
X71462255Y-54282650D01*
X72000000Y-54820395D01*
X72537745Y-54282650D01*
X72513023Y-54077820D01*
X72121069Y-53951691D01*
X71710682Y-53985158D01*
X71486977Y-54077820D01*
X71462255Y-54282650D01*
X65947440Y-54282650D01*
X65947440Y-54000000D01*
X65898157Y-53752235D01*
X65757809Y-53542191D01*
X65547765Y-53401843D01*
X65300000Y-53352560D01*
X63700000Y-53352560D01*
X63452235Y-53401843D01*
X63260000Y-53530291D01*
X63260000Y-52458026D01*
X63340301Y-52538327D01*
X63573690Y-52635000D01*
X64214250Y-52635000D01*
X64373000Y-52476250D01*
X64373000Y-51127000D01*
X64627000Y-51127000D01*
X64627000Y-52476250D01*
X64785750Y-52635000D01*
X65426310Y-52635000D01*
X65659699Y-52538327D01*
X65838327Y-52359698D01*
X65935000Y-52126309D01*
X65935000Y-51285750D01*
X65776250Y-51127000D01*
X64627000Y-51127000D01*
X64373000Y-51127000D01*
X64353000Y-51127000D01*
X64353000Y-50873000D01*
X64373000Y-50873000D01*
X64373000Y-50853000D01*
X64627000Y-50853000D01*
X64627000Y-50873000D01*
X65776250Y-50873000D01*
X65935000Y-50714250D01*
X65935000Y-49873691D01*
X65887908Y-49760000D01*
X68324996Y-49760000D01*
X68615835Y-49702148D01*
X68862397Y-49537401D01*
X69913688Y-48486110D01*
X69969673Y-48542192D01*
X69969673Y-48542192D01*
G37*
X69969673Y-48542192D02*
X70313201Y-48684838D01*
X70360077Y-48684879D01*
X70740000Y-49064802D01*
X70740000Y-49687537D01*
X70707808Y-49719673D01*
X70565162Y-50063201D01*
X70564838Y-50435167D01*
X70608154Y-50539999D01*
X67821603Y-50539999D01*
X67793117Y-50471057D01*
X67530327Y-50207808D01*
X67186799Y-50065162D01*
X66814833Y-50064838D01*
X66471057Y-50206883D01*
X66207808Y-50469673D01*
X66065162Y-50813201D01*
X66064838Y-51185167D01*
X66206883Y-51528943D01*
X66469673Y-51792192D01*
X66813201Y-51934838D01*
X66908549Y-51934921D01*
X67009160Y-52002147D01*
X67299999Y-52059999D01*
X72420301Y-52059999D01*
X72315162Y-52313201D01*
X72314838Y-52685167D01*
X72456883Y-53028943D01*
X72719673Y-53292192D01*
X73063201Y-53434838D01*
X73435167Y-53435162D01*
X73778943Y-53293117D01*
X73812118Y-53260000D01*
X76665198Y-53260000D01*
X75960233Y-53964965D01*
X75795029Y-53964821D01*
X75414485Y-54122058D01*
X75123081Y-54412954D01*
X74999892Y-54709627D01*
X74877942Y-54414485D01*
X74587046Y-54123081D01*
X74206777Y-53965180D01*
X73795029Y-53964821D01*
X73414485Y-54122058D01*
X73123081Y-54412954D01*
X73007157Y-54692130D01*
X72922180Y-54486977D01*
X72717350Y-54462255D01*
X72214604Y-54965001D01*
X71785396Y-54965001D01*
X71282650Y-54462255D01*
X71077820Y-54486977D01*
X70951691Y-54878931D01*
X70958710Y-54965001D01*
X66589803Y-54965001D01*
X66087401Y-54462599D01*
X65947440Y-54369080D01*
X65947440Y-54282650D01*
X71462255Y-54282650D01*
X72000000Y-54820395D01*
X72537745Y-54282650D01*
X72513023Y-54077820D01*
X72121069Y-53951691D01*
X71710682Y-53985158D01*
X71486977Y-54077820D01*
X71462255Y-54282650D01*
X65947440Y-54282650D01*
X65947440Y-54000000D01*
X65898157Y-53752235D01*
X65757809Y-53542191D01*
X65547765Y-53401843D01*
X65300000Y-53352560D01*
X63700000Y-53352560D01*
X63452235Y-53401843D01*
X63260000Y-53530291D01*
X63260000Y-52458026D01*
X63340301Y-52538327D01*
X63573690Y-52635000D01*
X64214250Y-52635000D01*
X64373000Y-52476250D01*
X64373000Y-51127000D01*
X64627000Y-51127000D01*
X64627000Y-52476250D01*
X64785750Y-52635000D01*
X65426310Y-52635000D01*
X65659699Y-52538327D01*
X65838327Y-52359698D01*
X65935000Y-52126309D01*
X65935000Y-51285750D01*
X65776250Y-51127000D01*
X64627000Y-51127000D01*
X64373000Y-51127000D01*
X64353000Y-51127000D01*
X64353000Y-50873000D01*
X64373000Y-50873000D01*
X64373000Y-50853000D01*
X64627000Y-50853000D01*
X64627000Y-50873000D01*
X65776250Y-50873000D01*
X65935000Y-50714250D01*
X65935000Y-49873691D01*
X65887908Y-49760000D01*
X68324996Y-49760000D01*
X68615835Y-49702148D01*
X68862397Y-49537401D01*
X69913688Y-48486110D01*
X69969673Y-48542192D01*
G36*
X82471673Y-38046475D02*
X82235914Y-38046269D01*
X81745620Y-38248854D01*
X81370173Y-38623647D01*
X81166732Y-39113587D01*
X81166269Y-39644086D01*
X81368854Y-40134380D01*
X81743647Y-40509827D01*
X82233587Y-40713268D01*
X82764086Y-40713731D01*
X82993951Y-40618753D01*
X84202560Y-41827362D01*
X84202560Y-42472638D01*
X81962599Y-44712599D01*
X81797852Y-44959161D01*
X81740000Y-45250000D01*
X81740000Y-45874464D01*
X81370173Y-46243647D01*
X81166732Y-46733587D01*
X81166269Y-47264086D01*
X81368854Y-47754380D01*
X81743647Y-48129827D01*
X82233587Y-48333268D01*
X82764086Y-48333731D01*
X83254380Y-48131146D01*
X83629827Y-47756353D01*
X83833268Y-47266413D01*
X83833731Y-46735914D01*
X83631146Y-46245620D01*
X83260000Y-45873826D01*
X83260000Y-45564802D01*
X84202560Y-44622242D01*
X84202560Y-45600000D01*
X84251843Y-45847765D01*
X84392191Y-46057809D01*
X84602235Y-46198157D01*
X84740000Y-46225560D01*
X84740000Y-47185198D01*
X81049991Y-50875207D01*
X81051011Y-50870081D01*
X81051011Y-45315693D01*
X80993159Y-45024854D01*
X80828412Y-44778292D01*
X79097564Y-43047444D01*
X79468379Y-42877188D01*
X79906385Y-42404818D01*
X80105975Y-41922944D01*
X79986836Y-41667000D01*
X78627000Y-41667000D01*
X78627000Y-41687000D01*
X78373000Y-41687000D01*
X78373000Y-41667000D01*
X78353000Y-41667000D01*
X78353000Y-41413000D01*
X78373000Y-41413000D01*
X78373000Y-41393000D01*
X78627000Y-41393000D01*
X78627000Y-41413000D01*
X79986836Y-41413000D01*
X80105975Y-41157056D01*
X79906385Y-40675182D01*
X79816887Y-40578662D01*
X79973809Y-40473809D01*
X80114157Y-40263765D01*
X80163440Y-40016000D01*
X80163440Y-37984000D01*
X80114157Y-37736235D01*
X79973809Y-37526191D01*
X79763765Y-37385843D01*
X79516000Y-37336560D01*
X77484000Y-37336560D01*
X77236235Y-37385843D01*
X77026191Y-37526191D01*
X76885843Y-37736235D01*
X76836560Y-37984000D01*
X76836560Y-40016000D01*
X76885843Y-40263765D01*
X77026191Y-40473809D01*
X77183113Y-40578662D01*
X77093615Y-40675182D01*
X77048557Y-40783966D01*
X77043158Y-40756823D01*
X77043158Y-40756822D01*
X76878411Y-40510261D01*
X76560227Y-40192077D01*
X76614157Y-40111365D01*
X76663440Y-39863600D01*
X76663440Y-38136400D01*
X76614157Y-37888635D01*
X76473809Y-37678591D01*
X76263765Y-37538243D01*
X76016000Y-37488960D01*
X73984000Y-37488960D01*
X73736235Y-37538243D01*
X73526191Y-37678591D01*
X73385843Y-37888635D01*
X73336560Y-38136400D01*
X73336560Y-39863600D01*
X73341709Y-39889489D01*
X73102727Y-40128471D01*
X73114157Y-40111365D01*
X73163440Y-39863600D01*
X73163440Y-38136400D01*
X73114157Y-37888635D01*
X72973809Y-37678591D01*
X72763765Y-37538243D01*
X72516000Y-37488960D01*
X70484978Y-37488960D01*
X70484978Y-36662224D01*
X70539536Y-36607666D01*
X70920000Y-36683345D01*
X71493489Y-36569271D01*
X71979670Y-36244415D01*
X72186461Y-35934931D01*
X72557964Y-36350732D01*
X73085209Y-36604709D01*
X73100974Y-36607358D01*
X73333000Y-36486217D01*
X73333000Y-35127000D01*
X73313000Y-35127000D01*
X73313000Y-34873000D01*
X73333000Y-34873000D01*
X73333000Y-34853000D01*
X73587000Y-34853000D01*
X73587000Y-34873000D01*
X73607000Y-34873000D01*
X73607000Y-35127000D01*
X73587000Y-35127000D01*
X73587000Y-36486217D01*
X73819026Y-36607358D01*
X73834791Y-36604709D01*
X74362036Y-36350732D01*
X74520306Y-36173590D01*
X74538243Y-36263765D01*
X74678591Y-36473809D01*
X74888635Y-36614157D01*
X75136400Y-36663440D01*
X76863600Y-36663440D01*
X77111365Y-36614157D01*
X77321409Y-36473809D01*
X77461757Y-36263765D01*
X77511040Y-36016000D01*
X77511040Y-34418999D01*
X78844197Y-34418999D01*
X82471673Y-38046475D01*
X82471673Y-38046475D01*
G37*
X82471673Y-38046475D02*
X82235914Y-38046269D01*
X81745620Y-38248854D01*
X81370173Y-38623647D01*
X81166732Y-39113587D01*
X81166269Y-39644086D01*
X81368854Y-40134380D01*
X81743647Y-40509827D01*
X82233587Y-40713268D01*
X82764086Y-40713731D01*
X82993951Y-40618753D01*
X84202560Y-41827362D01*
X84202560Y-42472638D01*
X81962599Y-44712599D01*
X81797852Y-44959161D01*
X81740000Y-45250000D01*
X81740000Y-45874464D01*
X81370173Y-46243647D01*
X81166732Y-46733587D01*
X81166269Y-47264086D01*
X81368854Y-47754380D01*
X81743647Y-48129827D01*
X82233587Y-48333268D01*
X82764086Y-48333731D01*
X83254380Y-48131146D01*
X83629827Y-47756353D01*
X83833268Y-47266413D01*
X83833731Y-46735914D01*
X83631146Y-46245620D01*
X83260000Y-45873826D01*
X83260000Y-45564802D01*
X84202560Y-44622242D01*
X84202560Y-45600000D01*
X84251843Y-45847765D01*
X84392191Y-46057809D01*
X84602235Y-46198157D01*
X84740000Y-46225560D01*
X84740000Y-47185198D01*
X81049991Y-50875207D01*
X81051011Y-50870081D01*
X81051011Y-45315693D01*
X80993159Y-45024854D01*
X80828412Y-44778292D01*
X79097564Y-43047444D01*
X79468379Y-42877188D01*
X79906385Y-42404818D01*
X80105975Y-41922944D01*
X79986836Y-41667000D01*
X78627000Y-41667000D01*
X78627000Y-41687000D01*
X78373000Y-41687000D01*
X78373000Y-41667000D01*
X78353000Y-41667000D01*
X78353000Y-41413000D01*
X78373000Y-41413000D01*
X78373000Y-41393000D01*
X78627000Y-41393000D01*
X78627000Y-41413000D01*
X79986836Y-41413000D01*
X80105975Y-41157056D01*
X79906385Y-40675182D01*
X79816887Y-40578662D01*
X79973809Y-40473809D01*
X80114157Y-40263765D01*
X80163440Y-40016000D01*
X80163440Y-37984000D01*
X80114157Y-37736235D01*
X79973809Y-37526191D01*
X79763765Y-37385843D01*
X79516000Y-37336560D01*
X77484000Y-37336560D01*
X77236235Y-37385843D01*
X77026191Y-37526191D01*
X76885843Y-37736235D01*
X76836560Y-37984000D01*
X76836560Y-40016000D01*
X76885843Y-40263765D01*
X77026191Y-40473809D01*
X77183113Y-40578662D01*
X77093615Y-40675182D01*
X77048557Y-40783966D01*
X77043158Y-40756823D01*
X77043158Y-40756822D01*
X76878411Y-40510261D01*
X76560227Y-40192077D01*
X76614157Y-40111365D01*
X76663440Y-39863600D01*
X76663440Y-38136400D01*
X76614157Y-37888635D01*
X76473809Y-37678591D01*
X76263765Y-37538243D01*
X76016000Y-37488960D01*
X73984000Y-37488960D01*
X73736235Y-37538243D01*
X73526191Y-37678591D01*
X73385843Y-37888635D01*
X73336560Y-38136400D01*
X73336560Y-39863600D01*
X73341709Y-39889489D01*
X73102727Y-40128471D01*
X73114157Y-40111365D01*
X73163440Y-39863600D01*
X73163440Y-38136400D01*
X73114157Y-37888635D01*
X72973809Y-37678591D01*
X72763765Y-37538243D01*
X72516000Y-37488960D01*
X70484978Y-37488960D01*
X70484978Y-36662224D01*
X70539536Y-36607666D01*
X70920000Y-36683345D01*
X71493489Y-36569271D01*
X71979670Y-36244415D01*
X72186461Y-35934931D01*
X72557964Y-36350732D01*
X73085209Y-36604709D01*
X73100974Y-36607358D01*
X73333000Y-36486217D01*
X73333000Y-35127000D01*
X73313000Y-35127000D01*
X73313000Y-34873000D01*
X73333000Y-34873000D01*
X73333000Y-34853000D01*
X73587000Y-34853000D01*
X73587000Y-34873000D01*
X73607000Y-34873000D01*
X73607000Y-35127000D01*
X73587000Y-35127000D01*
X73587000Y-36486217D01*
X73819026Y-36607358D01*
X73834791Y-36604709D01*
X74362036Y-36350732D01*
X74520306Y-36173590D01*
X74538243Y-36263765D01*
X74678591Y-36473809D01*
X74888635Y-36614157D01*
X75136400Y-36663440D01*
X76863600Y-36663440D01*
X77111365Y-36614157D01*
X77321409Y-36473809D01*
X77461757Y-36263765D01*
X77511040Y-36016000D01*
X77511040Y-34418999D01*
X78844197Y-34418999D01*
X82471673Y-38046475D01*
G36*
X42990000Y-46745286D02*
X42990000Y-49417847D01*
X42780327Y-49207808D01*
X42436799Y-49065162D01*
X42305521Y-49065048D01*
X42277148Y-48542801D01*
X42129800Y-48187071D01*
X41894188Y-48125417D01*
X41139605Y-48880000D01*
X41153748Y-48894143D01*
X40974143Y-49073748D01*
X40960000Y-49059605D01*
X40945858Y-49073748D01*
X40766253Y-48894143D01*
X40780395Y-48880000D01*
X40766253Y-48865858D01*
X40945858Y-48686253D01*
X40960000Y-48700395D01*
X41714583Y-47945812D01*
X41652929Y-47710200D01*
X41152520Y-47534073D01*
X40622801Y-47562852D01*
X40267071Y-47710200D01*
X40210000Y-47928298D01*
X40210000Y-47057046D01*
X40597376Y-47134100D01*
X41202624Y-47134100D01*
X41636970Y-47047703D01*
X42005190Y-46801666D01*
X42251227Y-46433446D01*
X42322060Y-46077346D01*
X42990000Y-46745286D01*
X42990000Y-46745286D01*
G37*
X42990000Y-46745286D02*
X42990000Y-49417847D01*
X42780327Y-49207808D01*
X42436799Y-49065162D01*
X42305521Y-49065048D01*
X42277148Y-48542801D01*
X42129800Y-48187071D01*
X41894188Y-48125417D01*
X41139605Y-48880000D01*
X41153748Y-48894143D01*
X40974143Y-49073748D01*
X40960000Y-49059605D01*
X40945858Y-49073748D01*
X40766253Y-48894143D01*
X40780395Y-48880000D01*
X40766253Y-48865858D01*
X40945858Y-48686253D01*
X40960000Y-48700395D01*
X41714583Y-47945812D01*
X41652929Y-47710200D01*
X41152520Y-47534073D01*
X40622801Y-47562852D01*
X40267071Y-47710200D01*
X40210000Y-47928298D01*
X40210000Y-47057046D01*
X40597376Y-47134100D01*
X41202624Y-47134100D01*
X41636970Y-47047703D01*
X42005190Y-46801666D01*
X42251227Y-46433446D01*
X42322060Y-46077346D01*
X42990000Y-46745286D01*
G36*
X48047000Y-34873000D02*
X48067000Y-34873000D01*
X48067000Y-35127000D01*
X48047000Y-35127000D01*
X48047000Y-36486217D01*
X48141991Y-36535812D01*
X47957808Y-36719673D01*
X47815162Y-37063201D01*
X47814838Y-37435167D01*
X47956883Y-37778943D01*
X48036483Y-37858682D01*
X48047852Y-37915839D01*
X48212599Y-38162401D01*
X49727560Y-39677362D01*
X49727560Y-40322638D01*
X49512598Y-40537600D01*
X49347851Y-40784162D01*
X49289999Y-41075001D01*
X49289999Y-43060201D01*
X48314579Y-44035621D01*
X48557670Y-43671810D01*
X48683345Y-43040000D01*
X48557670Y-42408190D01*
X48331128Y-42069146D01*
X48473809Y-41973809D01*
X48614157Y-41763765D01*
X48663440Y-41516000D01*
X48663440Y-39484000D01*
X48614157Y-39236235D01*
X48473809Y-39026191D01*
X48263765Y-38885843D01*
X48016000Y-38836560D01*
X45984000Y-38836560D01*
X45736235Y-38885843D01*
X45526191Y-39026191D01*
X45385843Y-39236235D01*
X45336560Y-39484000D01*
X45336560Y-41516000D01*
X45385843Y-41763765D01*
X45526191Y-41973809D01*
X45668872Y-42069146D01*
X45442330Y-42408190D01*
X45316655Y-43040000D01*
X45442330Y-43671810D01*
X45740000Y-44117304D01*
X45740000Y-45437537D01*
X45707808Y-45469673D01*
X45565162Y-45813201D01*
X45564838Y-46185167D01*
X45706883Y-46528943D01*
X45764020Y-46586180D01*
X45610200Y-46740000D01*
X45562463Y-46740000D01*
X45530327Y-46707808D01*
X45186799Y-46565162D01*
X44814833Y-46564838D01*
X44510000Y-46690792D01*
X44510000Y-46430484D01*
X44452148Y-46139645D01*
X44347790Y-45983462D01*
X44384889Y-45958674D01*
X44625506Y-45598564D01*
X44710000Y-45173785D01*
X44710000Y-44824415D01*
X44625506Y-44399636D01*
X44384889Y-44039526D01*
X44024779Y-43798909D01*
X43600000Y-43714415D01*
X43559990Y-43722374D01*
X43559990Y-41275826D01*
X43600000Y-41283785D01*
X44024779Y-41199291D01*
X44384889Y-40958674D01*
X44625506Y-40598564D01*
X44710000Y-40173785D01*
X44710000Y-39824415D01*
X44625506Y-39399636D01*
X44384889Y-39039526D01*
X44360000Y-39022896D01*
X44360000Y-38100000D01*
X44302148Y-37809161D01*
X44137401Y-37562599D01*
X43709803Y-37135001D01*
X44711651Y-37135001D01*
X45002490Y-37077149D01*
X45249052Y-36912402D01*
X46529334Y-35632120D01*
X46628046Y-35914320D01*
X47017964Y-36350732D01*
X47545209Y-36604709D01*
X47560974Y-36607358D01*
X47793000Y-36486217D01*
X47793000Y-35127000D01*
X47773000Y-35127000D01*
X47773000Y-34873000D01*
X47793000Y-34873000D01*
X47793000Y-34853000D01*
X48047000Y-34853000D01*
X48047000Y-34873000D01*
X48047000Y-34873000D01*
G37*
X48047000Y-34873000D02*
X48067000Y-34873000D01*
X48067000Y-35127000D01*
X48047000Y-35127000D01*
X48047000Y-36486217D01*
X48141991Y-36535812D01*
X47957808Y-36719673D01*
X47815162Y-37063201D01*
X47814838Y-37435167D01*
X47956883Y-37778943D01*
X48036483Y-37858682D01*
X48047852Y-37915839D01*
X48212599Y-38162401D01*
X49727560Y-39677362D01*
X49727560Y-40322638D01*
X49512598Y-40537600D01*
X49347851Y-40784162D01*
X49289999Y-41075001D01*
X49289999Y-43060201D01*
X48314579Y-44035621D01*
X48557670Y-43671810D01*
X48683345Y-43040000D01*
X48557670Y-42408190D01*
X48331128Y-42069146D01*
X48473809Y-41973809D01*
X48614157Y-41763765D01*
X48663440Y-41516000D01*
X48663440Y-39484000D01*
X48614157Y-39236235D01*
X48473809Y-39026191D01*
X48263765Y-38885843D01*
X48016000Y-38836560D01*
X45984000Y-38836560D01*
X45736235Y-38885843D01*
X45526191Y-39026191D01*
X45385843Y-39236235D01*
X45336560Y-39484000D01*
X45336560Y-41516000D01*
X45385843Y-41763765D01*
X45526191Y-41973809D01*
X45668872Y-42069146D01*
X45442330Y-42408190D01*
X45316655Y-43040000D01*
X45442330Y-43671810D01*
X45740000Y-44117304D01*
X45740000Y-45437537D01*
X45707808Y-45469673D01*
X45565162Y-45813201D01*
X45564838Y-46185167D01*
X45706883Y-46528943D01*
X45764020Y-46586180D01*
X45610200Y-46740000D01*
X45562463Y-46740000D01*
X45530327Y-46707808D01*
X45186799Y-46565162D01*
X44814833Y-46564838D01*
X44510000Y-46690792D01*
X44510000Y-46430484D01*
X44452148Y-46139645D01*
X44347790Y-45983462D01*
X44384889Y-45958674D01*
X44625506Y-45598564D01*
X44710000Y-45173785D01*
X44710000Y-44824415D01*
X44625506Y-44399636D01*
X44384889Y-44039526D01*
X44024779Y-43798909D01*
X43600000Y-43714415D01*
X43559990Y-43722374D01*
X43559990Y-41275826D01*
X43600000Y-41283785D01*
X44024779Y-41199291D01*
X44384889Y-40958674D01*
X44625506Y-40598564D01*
X44710000Y-40173785D01*
X44710000Y-39824415D01*
X44625506Y-39399636D01*
X44384889Y-39039526D01*
X44360000Y-39022896D01*
X44360000Y-38100000D01*
X44302148Y-37809161D01*
X44137401Y-37562599D01*
X43709803Y-37135001D01*
X44711651Y-37135001D01*
X45002490Y-37077149D01*
X45249052Y-36912402D01*
X46529334Y-35632120D01*
X46628046Y-35914320D01*
X47017964Y-36350732D01*
X47545209Y-36604709D01*
X47560974Y-36607358D01*
X47793000Y-36486217D01*
X47793000Y-35127000D01*
X47773000Y-35127000D01*
X47773000Y-34873000D01*
X47793000Y-34873000D01*
X47793000Y-34853000D01*
X48047000Y-34853000D01*
X48047000Y-34873000D01*
G36*
X55636235Y-39820157D02*
X55821459Y-39857000D01*
X55636235Y-39893843D01*
X55426191Y-40034191D01*
X55285843Y-40244235D01*
X55236560Y-40492000D01*
X55236560Y-41508000D01*
X55285843Y-41755765D01*
X55426191Y-41965809D01*
X55636235Y-42106157D01*
X55821459Y-42143000D01*
X55757690Y-42143000D01*
X55524301Y-42239673D01*
X55345673Y-42418302D01*
X55249000Y-42651691D01*
X55249000Y-43000250D01*
X55407750Y-43159000D01*
X56773000Y-43159000D01*
X56773000Y-43139000D01*
X57027000Y-43139000D01*
X57027000Y-43159000D01*
X58392250Y-43159000D01*
X58551000Y-43000250D01*
X58551000Y-42651691D01*
X58454327Y-42418302D01*
X58275699Y-42239673D01*
X58042310Y-42143000D01*
X57978541Y-42143000D01*
X58163765Y-42106157D01*
X58373809Y-41965809D01*
X58511327Y-41760000D01*
X60675002Y-41760000D01*
X60965841Y-41702148D01*
X61212403Y-41537401D01*
X61840560Y-40909244D01*
X61840560Y-42828800D01*
X61889843Y-43076565D01*
X62030191Y-43286609D01*
X62240235Y-43426957D01*
X62488000Y-43476240D01*
X64081809Y-43476240D01*
X64190792Y-43740000D01*
X58551000Y-43740000D01*
X58551000Y-43571750D01*
X58392250Y-43413000D01*
X57027000Y-43413000D01*
X57027000Y-43433000D01*
X56773000Y-43433000D01*
X56773000Y-43413000D01*
X55407750Y-43413000D01*
X55249000Y-43571750D01*
X55249000Y-43740000D01*
X54533026Y-43740000D01*
X54663327Y-43609698D01*
X54760000Y-43376309D01*
X54760000Y-42785750D01*
X54601250Y-42627000D01*
X53627000Y-42627000D01*
X53627000Y-42647000D01*
X53373000Y-42647000D01*
X53373000Y-42627000D01*
X52398750Y-42627000D01*
X52250000Y-42775750D01*
X52101250Y-42627000D01*
X51127000Y-42627000D01*
X51127000Y-42647000D01*
X50873000Y-42647000D01*
X50873000Y-42627000D01*
X50853000Y-42627000D01*
X50853000Y-42373000D01*
X50873000Y-42373000D01*
X50873000Y-42353000D01*
X51127000Y-42353000D01*
X51127000Y-42373000D01*
X52101250Y-42373000D01*
X52250000Y-42224250D01*
X52398750Y-42373000D01*
X53373000Y-42373000D01*
X53373000Y-42353000D01*
X53627000Y-42353000D01*
X53627000Y-42373000D01*
X54601250Y-42373000D01*
X54760000Y-42214250D01*
X54760000Y-41623691D01*
X54663327Y-41390302D01*
X54521680Y-41248654D01*
X54582809Y-41207809D01*
X54723157Y-40997765D01*
X54772440Y-40750000D01*
X54772440Y-40630920D01*
X54912401Y-40537401D01*
X55632285Y-39817517D01*
X55636235Y-39820157D01*
X55636235Y-39820157D01*
G37*
X55636235Y-39820157D02*
X55821459Y-39857000D01*
X55636235Y-39893843D01*
X55426191Y-40034191D01*
X55285843Y-40244235D01*
X55236560Y-40492000D01*
X55236560Y-41508000D01*
X55285843Y-41755765D01*
X55426191Y-41965809D01*
X55636235Y-42106157D01*
X55821459Y-42143000D01*
X55757690Y-42143000D01*
X55524301Y-42239673D01*
X55345673Y-42418302D01*
X55249000Y-42651691D01*
X55249000Y-43000250D01*
X55407750Y-43159000D01*
X56773000Y-43159000D01*
X56773000Y-43139000D01*
X57027000Y-43139000D01*
X57027000Y-43159000D01*
X58392250Y-43159000D01*
X58551000Y-43000250D01*
X58551000Y-42651691D01*
X58454327Y-42418302D01*
X58275699Y-42239673D01*
X58042310Y-42143000D01*
X57978541Y-42143000D01*
X58163765Y-42106157D01*
X58373809Y-41965809D01*
X58511327Y-41760000D01*
X60675002Y-41760000D01*
X60965841Y-41702148D01*
X61212403Y-41537401D01*
X61840560Y-40909244D01*
X61840560Y-42828800D01*
X61889843Y-43076565D01*
X62030191Y-43286609D01*
X62240235Y-43426957D01*
X62488000Y-43476240D01*
X64081809Y-43476240D01*
X64190792Y-43740000D01*
X58551000Y-43740000D01*
X58551000Y-43571750D01*
X58392250Y-43413000D01*
X57027000Y-43413000D01*
X57027000Y-43433000D01*
X56773000Y-43433000D01*
X56773000Y-43413000D01*
X55407750Y-43413000D01*
X55249000Y-43571750D01*
X55249000Y-43740000D01*
X54533026Y-43740000D01*
X54663327Y-43609698D01*
X54760000Y-43376309D01*
X54760000Y-42785750D01*
X54601250Y-42627000D01*
X53627000Y-42627000D01*
X53627000Y-42647000D01*
X53373000Y-42647000D01*
X53373000Y-42627000D01*
X52398750Y-42627000D01*
X52250000Y-42775750D01*
X52101250Y-42627000D01*
X51127000Y-42627000D01*
X51127000Y-42647000D01*
X50873000Y-42647000D01*
X50873000Y-42627000D01*
X50853000Y-42627000D01*
X50853000Y-42373000D01*
X50873000Y-42373000D01*
X50873000Y-42353000D01*
X51127000Y-42353000D01*
X51127000Y-42373000D01*
X52101250Y-42373000D01*
X52250000Y-42224250D01*
X52398750Y-42373000D01*
X53373000Y-42373000D01*
X53373000Y-42353000D01*
X53627000Y-42353000D01*
X53627000Y-42373000D01*
X54601250Y-42373000D01*
X54760000Y-42214250D01*
X54760000Y-41623691D01*
X54663327Y-41390302D01*
X54521680Y-41248654D01*
X54582809Y-41207809D01*
X54723157Y-40997765D01*
X54772440Y-40750000D01*
X54772440Y-40630920D01*
X54912401Y-40537401D01*
X55632285Y-39817517D01*
X55636235Y-39820157D01*
G36*
X88790000Y-38784123D02*
X88749800Y-38687071D01*
X88514188Y-38625417D01*
X87759605Y-39380000D01*
X88514188Y-40134583D01*
X88749800Y-40072929D01*
X88790000Y-39958713D01*
X88790000Y-42215198D01*
X87253612Y-40678810D01*
X87387480Y-40725927D01*
X87917199Y-40697148D01*
X88272929Y-40549800D01*
X88334583Y-40314188D01*
X87580000Y-39559605D01*
X87565858Y-39573748D01*
X87386253Y-39394143D01*
X87400395Y-39380000D01*
X86645812Y-38625417D01*
X86410200Y-38687071D01*
X86234073Y-39187480D01*
X86261177Y-39686375D01*
X85020614Y-38445812D01*
X86825417Y-38445812D01*
X87580000Y-39200395D01*
X88334583Y-38445812D01*
X88272929Y-38210200D01*
X87772520Y-38034073D01*
X87242801Y-38062852D01*
X86887071Y-38210200D01*
X86825417Y-38445812D01*
X85020614Y-38445812D01*
X81017421Y-34442619D01*
X84264613Y-34442619D01*
X84604155Y-35264372D01*
X85232321Y-35893636D01*
X86053481Y-36234611D01*
X86942619Y-36235387D01*
X87764372Y-35895845D01*
X88393636Y-35267679D01*
X88734611Y-34446519D01*
X88735387Y-33557381D01*
X88395845Y-32735628D01*
X87767679Y-32106364D01*
X86946519Y-31765389D01*
X86057381Y-31764613D01*
X85235628Y-32104155D01*
X84606364Y-32732321D01*
X84265389Y-33553481D01*
X84264613Y-34442619D01*
X81017421Y-34442619D01*
X79696400Y-33121598D01*
X79449838Y-32956851D01*
X79158999Y-32898999D01*
X74035217Y-32898999D01*
X73023803Y-31887586D01*
X72777241Y-31722839D01*
X72712696Y-31710000D01*
X88790000Y-31710000D01*
X88790000Y-38784123D01*
X88790000Y-38784123D01*
G37*
X88790000Y-38784123D02*
X88749800Y-38687071D01*
X88514188Y-38625417D01*
X87759605Y-39380000D01*
X88514188Y-40134583D01*
X88749800Y-40072929D01*
X88790000Y-39958713D01*
X88790000Y-42215198D01*
X87253612Y-40678810D01*
X87387480Y-40725927D01*
X87917199Y-40697148D01*
X88272929Y-40549800D01*
X88334583Y-40314188D01*
X87580000Y-39559605D01*
X87565858Y-39573748D01*
X87386253Y-39394143D01*
X87400395Y-39380000D01*
X86645812Y-38625417D01*
X86410200Y-38687071D01*
X86234073Y-39187480D01*
X86261177Y-39686375D01*
X85020614Y-38445812D01*
X86825417Y-38445812D01*
X87580000Y-39200395D01*
X88334583Y-38445812D01*
X88272929Y-38210200D01*
X87772520Y-38034073D01*
X87242801Y-38062852D01*
X86887071Y-38210200D01*
X86825417Y-38445812D01*
X85020614Y-38445812D01*
X81017421Y-34442619D01*
X84264613Y-34442619D01*
X84604155Y-35264372D01*
X85232321Y-35893636D01*
X86053481Y-36234611D01*
X86942619Y-36235387D01*
X87764372Y-35895845D01*
X88393636Y-35267679D01*
X88734611Y-34446519D01*
X88735387Y-33557381D01*
X88395845Y-32735628D01*
X87767679Y-32106364D01*
X86946519Y-31765389D01*
X86057381Y-31764613D01*
X85235628Y-32104155D01*
X84606364Y-32732321D01*
X84265389Y-33553481D01*
X84264613Y-34442619D01*
X81017421Y-34442619D01*
X79696400Y-33121598D01*
X79449838Y-32956851D01*
X79158999Y-32898999D01*
X74035217Y-32898999D01*
X73023803Y-31887586D01*
X72777241Y-31722839D01*
X72712696Y-31710000D01*
X88790000Y-31710000D01*
X88790000Y-38784123D01*
G36*
X56734816Y-34638087D02*
X56879076Y-34873000D01*
X58093000Y-34873000D01*
X58093000Y-34853000D01*
X58347000Y-34853000D01*
X58347000Y-34873000D01*
X58367000Y-34873000D01*
X58367000Y-35127000D01*
X58347000Y-35127000D01*
X58347000Y-36486217D01*
X58579026Y-36607358D01*
X58594791Y-36604709D01*
X59122036Y-36350732D01*
X59493539Y-35934931D01*
X59700330Y-36244415D01*
X60186511Y-36569271D01*
X60490000Y-36629639D01*
X60490000Y-38937537D01*
X60457808Y-38969673D01*
X60315162Y-39313201D01*
X60314838Y-39685167D01*
X60456883Y-40028943D01*
X60514020Y-40086180D01*
X60360200Y-40240000D01*
X58511327Y-40240000D01*
X58373809Y-40034191D01*
X58163765Y-39893843D01*
X57978541Y-39857000D01*
X58163765Y-39820157D01*
X58373809Y-39679809D01*
X58514157Y-39469765D01*
X58563440Y-39222000D01*
X58563440Y-38206000D01*
X58514157Y-37958235D01*
X58373809Y-37748191D01*
X58163765Y-37607843D01*
X57916000Y-37558560D01*
X55884000Y-37558560D01*
X55636235Y-37607843D01*
X55426191Y-37748191D01*
X55360255Y-37846871D01*
X54948715Y-37435331D01*
X54948755Y-37389844D01*
X54806710Y-37046068D01*
X54543920Y-36782819D01*
X54200392Y-36640173D01*
X53981531Y-36639982D01*
X54111365Y-36614157D01*
X54321409Y-36473809D01*
X54461757Y-36263765D01*
X54511040Y-36016000D01*
X54511040Y-35361913D01*
X56734816Y-35361913D01*
X56928046Y-35914320D01*
X57317964Y-36350732D01*
X57845209Y-36604709D01*
X57860974Y-36607358D01*
X58093000Y-36486217D01*
X58093000Y-35127000D01*
X56879076Y-35127000D01*
X56734816Y-35361913D01*
X54511040Y-35361913D01*
X54511040Y-34418999D01*
X56811452Y-34418999D01*
X56734816Y-34638087D01*
X56734816Y-34638087D01*
G37*
X56734816Y-34638087D02*
X56879076Y-34873000D01*
X58093000Y-34873000D01*
X58093000Y-34853000D01*
X58347000Y-34853000D01*
X58347000Y-34873000D01*
X58367000Y-34873000D01*
X58367000Y-35127000D01*
X58347000Y-35127000D01*
X58347000Y-36486217D01*
X58579026Y-36607358D01*
X58594791Y-36604709D01*
X59122036Y-36350732D01*
X59493539Y-35934931D01*
X59700330Y-36244415D01*
X60186511Y-36569271D01*
X60490000Y-36629639D01*
X60490000Y-38937537D01*
X60457808Y-38969673D01*
X60315162Y-39313201D01*
X60314838Y-39685167D01*
X60456883Y-40028943D01*
X60514020Y-40086180D01*
X60360200Y-40240000D01*
X58511327Y-40240000D01*
X58373809Y-40034191D01*
X58163765Y-39893843D01*
X57978541Y-39857000D01*
X58163765Y-39820157D01*
X58373809Y-39679809D01*
X58514157Y-39469765D01*
X58563440Y-39222000D01*
X58563440Y-38206000D01*
X58514157Y-37958235D01*
X58373809Y-37748191D01*
X58163765Y-37607843D01*
X57916000Y-37558560D01*
X55884000Y-37558560D01*
X55636235Y-37607843D01*
X55426191Y-37748191D01*
X55360255Y-37846871D01*
X54948715Y-37435331D01*
X54948755Y-37389844D01*
X54806710Y-37046068D01*
X54543920Y-36782819D01*
X54200392Y-36640173D01*
X53981531Y-36639982D01*
X54111365Y-36614157D01*
X54321409Y-36473809D01*
X54461757Y-36263765D01*
X54511040Y-36016000D01*
X54511040Y-35361913D01*
X56734816Y-35361913D01*
X56928046Y-35914320D01*
X57317964Y-36350732D01*
X57845209Y-36604709D01*
X57860974Y-36607358D01*
X58093000Y-36486217D01*
X58093000Y-35127000D01*
X56879076Y-35127000D01*
X56734816Y-35361913D01*
X54511040Y-35361913D01*
X54511040Y-34418999D01*
X56811452Y-34418999D01*
X56734816Y-34638087D01*
M02*
