M48
;DRILL file {KiCad 4.0.4-1.fc24-product} date Sun Jan 15 22:00:45 2017
;FORMAT={-:-/ absolute / inch / decimal}
FMAT,2
INCH,TZ
T1C0.016
T2C0.020
T3C0.022
T4C0.031
T5C0.032
T6C0.040
T7C0.118
T8C0.122
%
G90
G05
M72
T1
X1.6634Y-1.9685
X1.6831Y-1.4665
X1.7224Y-2.3031
X1.7717Y-1.8701
X1.8307Y-1.811
X1.9193Y-1.4665
X1.9882Y-2.6969
X2.0079Y-2.7264
X2.126Y-2.5394
X2.126Y-2.7953
X2.1265Y-1.4793
X2.1457Y-1.9094
X2.1555Y-1.7224
X2.3199Y-2.0167
X2.3425Y-2.5787
X2.4016Y-1.6634
X2.4114Y-1.5551
X2.4606Y-2.0325
X2.4803Y-2.3819
X2.5315Y-2.2726
X2.5591Y-1.7028
X2.5886Y-1.6634
X2.664Y-2.064
X2.7195Y-2.2835
X2.7451Y-1.8307
X2.7559Y-2.3228
X2.7756Y-1.8799
X2.7986Y-2.3459
X2.815Y-1.9783
X2.8346Y-1.3189
X2.8346Y-2.313
X2.8452Y-1.8701
X2.8543Y-1.9646
X2.8583Y-1.9333
X2.8593Y-2.3387
X2.96Y-2.126
X2.9726Y-2.2446
X3.0906Y-1.7913
X3.2677Y-1.7224
T4
X2.8051Y-2.1654
X2.9035Y-2.1654
X3.002Y-2.1654
X3.1004Y-2.1654
T5
X1.6126Y-1.9244
X1.6126Y-2.2244
X1.6142Y-2.3303
X1.6142Y-2.6303
X1.8126Y-1.9244
X1.8126Y-2.2244
X1.8142Y-2.3303
X1.8142Y-2.6303
X3.248Y-1.5504
X3.248Y-1.8504
X3.448Y-1.5504
X3.448Y-1.8504
T6
X1.8504Y-1.5945
X1.8504Y-1.6945
X1.8866Y-1.378
X1.9866Y-1.378
X2.0866Y-1.378
X2.2921Y-1.378
X2.3921Y-1.378
X2.4921Y-1.378
X2.5921Y-1.378
X2.6732Y-1.5354
X2.6732Y-1.6354
X2.6732Y-1.7354
X2.6921Y-1.378
X2.7921Y-1.378
X2.815Y-1.5354
X2.815Y-1.6354
X2.815Y-1.7354
X2.8921Y-1.378
X2.9528Y-1.5354
X2.9528Y-1.6354
X2.9528Y-1.7354
X2.9528Y-1.8354
X2.9921Y-1.378
X3.0906Y-1.5354
X3.0906Y-1.6354
X3.0906Y-1.8701
X3.0906Y-1.9701
X3.4449Y-2.0047
X3.4449Y-2.1047
X3.4449Y-2.2047
X3.4449Y-2.3047
X3.4449Y-2.4047
T7
X2.9528Y-3.0709
T8
X1.6732Y-1.3386
X1.6732Y-2.874
X3.4055Y-1.3386
X3.4055Y-2.874
T2
X1.5974Y-1.5354G85X1.623Y-1.5354
G05
X1.5974Y-1.811G85X1.623Y-1.811
G05
T3
X1.7165Y-1.5689G85X1.7165Y-1.5807
G05
X1.7165Y-1.7657G85X1.7165Y-1.7775
G05
T0
M30
