G04 #@! TF.FileFunction,Legend,Top*
%FSLAX46Y46*%
G04 Gerber Fmt 4.6, Leading zero omitted, Abs format (unit mm)*
G04 Created by KiCad (PCBNEW 4.0.3-1.fc24-product) date Tue Nov  1 15:00:33 2016*
%MOMM*%
%LPD*%
G01*
G04 APERTURE LIST*
%ADD10C,0.100000*%
%ADD11C,0.150000*%
G04 APERTURE END LIST*
D10*
D11*
X79770000Y-40270000D02*
X79770000Y-42810000D01*
X80050000Y-37450000D02*
X80050000Y-39000000D01*
X79770000Y-40270000D02*
X77230000Y-40270000D01*
X76950000Y-39000000D02*
X76950000Y-37450000D01*
X76950000Y-37450000D02*
X80050000Y-37450000D01*
X77230000Y-40270000D02*
X77230000Y-42810000D01*
X77230000Y-42810000D02*
X79770000Y-42810000D01*
X38220000Y-38149100D02*
X38220000Y-46849100D01*
X44625000Y-38149100D02*
X44625000Y-46849100D01*
X44625000Y-46849100D02*
X38220000Y-46849100D01*
X39450000Y-46849100D02*
X39450000Y-38149100D01*
X38220000Y-38149100D02*
X44625000Y-38149100D01*
X66630000Y-40270000D02*
X66630000Y-45350000D01*
X66630000Y-45350000D02*
X69170000Y-45350000D01*
X69170000Y-45350000D02*
X69170000Y-40270000D01*
X69450000Y-37450000D02*
X69450000Y-39000000D01*
X69170000Y-40270000D02*
X66630000Y-40270000D01*
X66350000Y-39000000D02*
X66350000Y-37450000D01*
X66350000Y-37450000D02*
X69450000Y-37450000D01*
X70230000Y-40270000D02*
X70230000Y-45350000D01*
X70230000Y-45350000D02*
X72770000Y-45350000D01*
X72770000Y-45350000D02*
X72770000Y-40270000D01*
X73050000Y-37450000D02*
X73050000Y-39000000D01*
X72770000Y-40270000D02*
X70230000Y-40270000D01*
X69950000Y-39000000D02*
X69950000Y-37450000D01*
X69950000Y-37450000D02*
X73050000Y-37450000D01*
X85950000Y-50920000D02*
X85950000Y-49370000D01*
X85950000Y-49370000D02*
X89050000Y-49370000D01*
X89050000Y-49370000D02*
X89050000Y-50920000D01*
X88770000Y-52190000D02*
X88770000Y-62350000D01*
X88770000Y-62350000D02*
X86230000Y-62350000D01*
X86230000Y-62350000D02*
X86230000Y-52190000D01*
X88770000Y-52190000D02*
X86230000Y-52190000D01*
X57200000Y-39325000D02*
X58400000Y-39325000D01*
X58400000Y-41075000D02*
X57200000Y-41075000D01*
X58400000Y-44275000D02*
X57200000Y-44275000D01*
X57200000Y-42525000D02*
X58400000Y-42525000D01*
X50800000Y-39325000D02*
X52000000Y-39325000D01*
X52000000Y-41075000D02*
X50800000Y-41075000D01*
X50800000Y-42525000D02*
X52000000Y-42525000D01*
X52000000Y-44275000D02*
X50800000Y-44275000D01*
X87580000Y-43190000D02*
G75*
G03X87580000Y-43190000I-2540000J0D01*
G01*
X81230000Y-47000000D02*
X81230000Y-39380000D01*
X81230000Y-39380000D02*
X88850000Y-39380000D01*
X88850000Y-39380000D02*
X88850000Y-47000000D01*
X81230000Y-47000000D02*
X88850000Y-47000000D01*
X46040000Y-52690000D02*
G75*
G03X46040000Y-52690000I-2540000J0D01*
G01*
X47310000Y-48880000D02*
X47310000Y-56500000D01*
X47310000Y-56500000D02*
X39690000Y-56500000D01*
X39690000Y-56500000D02*
X39690000Y-48880000D01*
X47310000Y-48880000D02*
X39690000Y-48880000D01*
X46080000Y-63000000D02*
G75*
G03X46080000Y-63000000I-2540000J0D01*
G01*
X47350000Y-59190000D02*
X47350000Y-66810000D01*
X47350000Y-66810000D02*
X39730000Y-66810000D01*
X39730000Y-66810000D02*
X39730000Y-59190000D01*
X47350000Y-59190000D02*
X39730000Y-59190000D01*
X73730000Y-40270000D02*
X73730000Y-47890000D01*
X76270000Y-40270000D02*
X76270000Y-47890000D01*
X76550000Y-37450000D02*
X76550000Y-39000000D01*
X73730000Y-47890000D02*
X76270000Y-47890000D01*
X76270000Y-40270000D02*
X73730000Y-40270000D01*
X73450000Y-39000000D02*
X73450000Y-37450000D01*
X73450000Y-37450000D02*
X76550000Y-37450000D01*
X79770000Y-48770000D02*
X79770000Y-51310000D01*
X80050000Y-45950000D02*
X80050000Y-47500000D01*
X79770000Y-48770000D02*
X77230000Y-48770000D01*
X76950000Y-47500000D02*
X76950000Y-45950000D01*
X76950000Y-45950000D02*
X80050000Y-45950000D01*
X77230000Y-48770000D02*
X77230000Y-51310000D01*
X77230000Y-51310000D02*
X79770000Y-51310000D01*
X48270000Y-41770000D02*
X48270000Y-44310000D01*
X48550000Y-38950000D02*
X48550000Y-40500000D01*
X48270000Y-41770000D02*
X45730000Y-41770000D01*
X45450000Y-40500000D02*
X45450000Y-38950000D01*
X45450000Y-38950000D02*
X48550000Y-38950000D01*
X45730000Y-41770000D02*
X45730000Y-44310000D01*
X45730000Y-44310000D02*
X48270000Y-44310000D01*
X76500000Y-78000000D02*
G75*
G03X76500000Y-78000000I-1500000J0D01*
G01*
X83000000Y-76000000D02*
X81000000Y-81000000D01*
X83000000Y-75000000D02*
X83000000Y-76000000D01*
X69000000Y-81000000D02*
X81000000Y-81000000D01*
X67000000Y-76000000D02*
X69000000Y-81000000D01*
X83000000Y-76000000D02*
X83000000Y-56000000D01*
X67000000Y-76000000D02*
X83000000Y-76000000D01*
X67000000Y-56000000D02*
X67000000Y-76000000D01*
X83000000Y-56000000D02*
X67000000Y-56000000D01*
X77761905Y-37202381D02*
X77761905Y-36202381D01*
X78142858Y-36202381D01*
X78238096Y-36250000D01*
X78285715Y-36297619D01*
X78333334Y-36392857D01*
X78333334Y-36535714D01*
X78285715Y-36630952D01*
X78238096Y-36678571D01*
X78142858Y-36726190D01*
X77761905Y-36726190D01*
X79285715Y-37202381D02*
X78714286Y-37202381D01*
X79000000Y-37202381D02*
X79000000Y-36202381D01*
X78904762Y-36345238D01*
X78809524Y-36440476D01*
X78714286Y-36488095D01*
X77511905Y-43916667D02*
X77988096Y-43916667D01*
X77416667Y-44202381D02*
X77750000Y-43202381D01*
X78083334Y-44202381D01*
X78416667Y-44202381D02*
X78416667Y-43202381D01*
X78654762Y-43202381D01*
X78797620Y-43250000D01*
X78892858Y-43345238D01*
X78940477Y-43440476D01*
X78988096Y-43630952D01*
X78988096Y-43773810D01*
X78940477Y-43964286D01*
X78892858Y-44059524D01*
X78797620Y-44154762D01*
X78654762Y-44202381D01*
X78416667Y-44202381D01*
X79988096Y-44107143D02*
X79940477Y-44154762D01*
X79797620Y-44202381D01*
X79702382Y-44202381D01*
X79559524Y-44154762D01*
X79464286Y-44059524D01*
X79416667Y-43964286D01*
X79369048Y-43773810D01*
X79369048Y-43630952D01*
X79416667Y-43440476D01*
X79464286Y-43345238D01*
X79559524Y-43250000D01*
X79702382Y-43202381D01*
X79797620Y-43202381D01*
X79940477Y-43250000D01*
X79988096Y-43297619D01*
X41452381Y-43238095D02*
X40452381Y-43238095D01*
X40452381Y-42857142D01*
X40500000Y-42761904D01*
X40547619Y-42714285D01*
X40642857Y-42666666D01*
X40785714Y-42666666D01*
X40880952Y-42714285D01*
X40928571Y-42761904D01*
X40976190Y-42857142D01*
X40976190Y-43238095D01*
X40547619Y-42285714D02*
X40500000Y-42238095D01*
X40452381Y-42142857D01*
X40452381Y-41904761D01*
X40500000Y-41809523D01*
X40547619Y-41761904D01*
X40642857Y-41714285D01*
X40738095Y-41714285D01*
X40880952Y-41761904D01*
X41452381Y-42333333D01*
X41452381Y-41714285D01*
X39690476Y-37952381D02*
X39690476Y-36952381D01*
X40071429Y-36952381D01*
X40166667Y-37000000D01*
X40214286Y-37047619D01*
X40261905Y-37142857D01*
X40261905Y-37285714D01*
X40214286Y-37380952D01*
X40166667Y-37428571D01*
X40071429Y-37476190D01*
X39690476Y-37476190D01*
X40880952Y-36952381D02*
X41071429Y-36952381D01*
X41166667Y-37000000D01*
X41261905Y-37095238D01*
X41309524Y-37285714D01*
X41309524Y-37619048D01*
X41261905Y-37809524D01*
X41166667Y-37904762D01*
X41071429Y-37952381D01*
X40880952Y-37952381D01*
X40785714Y-37904762D01*
X40690476Y-37809524D01*
X40642857Y-37619048D01*
X40642857Y-37285714D01*
X40690476Y-37095238D01*
X40785714Y-37000000D01*
X40880952Y-36952381D01*
X41642857Y-36952381D02*
X41880952Y-37952381D01*
X42071429Y-37238095D01*
X42261905Y-37952381D01*
X42500000Y-36952381D01*
X42880952Y-37428571D02*
X43214286Y-37428571D01*
X43357143Y-37952381D02*
X42880952Y-37952381D01*
X42880952Y-36952381D01*
X43357143Y-36952381D01*
X44357143Y-37952381D02*
X44023809Y-37476190D01*
X43785714Y-37952381D02*
X43785714Y-36952381D01*
X44166667Y-36952381D01*
X44261905Y-37000000D01*
X44309524Y-37047619D01*
X44357143Y-37142857D01*
X44357143Y-37285714D01*
X44309524Y-37380952D01*
X44261905Y-37428571D01*
X44166667Y-37476190D01*
X43785714Y-37476190D01*
X77202381Y-33238095D02*
X76202381Y-33238095D01*
X76202381Y-32857142D01*
X76250000Y-32761904D01*
X76297619Y-32714285D01*
X76392857Y-32666666D01*
X76535714Y-32666666D01*
X76630952Y-32714285D01*
X76678571Y-32761904D01*
X76726190Y-32857142D01*
X76726190Y-33238095D01*
X76202381Y-32333333D02*
X76202381Y-31714285D01*
X76583333Y-32047619D01*
X76583333Y-31904761D01*
X76630952Y-31809523D01*
X76678571Y-31761904D01*
X76773810Y-31714285D01*
X77011905Y-31714285D01*
X77107143Y-31761904D01*
X77154762Y-31809523D01*
X77202381Y-31904761D01*
X77202381Y-32190476D01*
X77154762Y-32285714D01*
X77107143Y-32333333D01*
X56452381Y-34440476D02*
X56452381Y-34916667D01*
X55452381Y-34916667D01*
X56357143Y-33535714D02*
X56404762Y-33583333D01*
X56452381Y-33726190D01*
X56452381Y-33821428D01*
X56404762Y-33964286D01*
X56309524Y-34059524D01*
X56214286Y-34107143D01*
X56023810Y-34154762D01*
X55880952Y-34154762D01*
X55690476Y-34107143D01*
X55595238Y-34059524D01*
X55500000Y-33964286D01*
X55452381Y-33821428D01*
X55452381Y-33726190D01*
X55500000Y-33583333D01*
X55547619Y-33535714D01*
X56452381Y-33107143D02*
X55452381Y-33107143D01*
X55452381Y-32869048D01*
X55500000Y-32726190D01*
X55595238Y-32630952D01*
X55690476Y-32583333D01*
X55880952Y-32535714D01*
X56023810Y-32535714D01*
X56214286Y-32583333D01*
X56309524Y-32630952D01*
X56404762Y-32726190D01*
X56452381Y-32869048D01*
X56452381Y-33107143D01*
X67011905Y-37452381D02*
X67011905Y-36452381D01*
X67392858Y-36452381D01*
X67488096Y-36500000D01*
X67535715Y-36547619D01*
X67583334Y-36642857D01*
X67583334Y-36785714D01*
X67535715Y-36880952D01*
X67488096Y-36928571D01*
X67392858Y-36976190D01*
X67011905Y-36976190D01*
X68440477Y-36785714D02*
X68440477Y-37452381D01*
X68202381Y-36404762D02*
X67964286Y-37119048D01*
X68583334Y-37119048D01*
X64071429Y-46952381D02*
X63595238Y-46952381D01*
X63595238Y-45952381D01*
X64976191Y-46857143D02*
X64928572Y-46904762D01*
X64785715Y-46952381D01*
X64690477Y-46952381D01*
X64547619Y-46904762D01*
X64452381Y-46809524D01*
X64404762Y-46714286D01*
X64357143Y-46523810D01*
X64357143Y-46380952D01*
X64404762Y-46190476D01*
X64452381Y-46095238D01*
X64547619Y-46000000D01*
X64690477Y-45952381D01*
X64785715Y-45952381D01*
X64928572Y-46000000D01*
X64976191Y-46047619D01*
X65404762Y-46952381D02*
X65404762Y-45952381D01*
X65642857Y-45952381D01*
X65785715Y-46000000D01*
X65880953Y-46095238D01*
X65928572Y-46190476D01*
X65976191Y-46380952D01*
X65976191Y-46523810D01*
X65928572Y-46714286D01*
X65880953Y-46809524D01*
X65785715Y-46904762D01*
X65642857Y-46952381D01*
X65404762Y-46952381D01*
X66166667Y-47047619D02*
X66928572Y-47047619D01*
X67738096Y-46952381D02*
X67404762Y-46476190D01*
X67166667Y-46952381D02*
X67166667Y-45952381D01*
X67547620Y-45952381D01*
X67642858Y-46000000D01*
X67690477Y-46047619D01*
X67738096Y-46142857D01*
X67738096Y-46285714D01*
X67690477Y-46380952D01*
X67642858Y-46428571D01*
X67547620Y-46476190D01*
X67166667Y-46476190D01*
X68119048Y-46904762D02*
X68261905Y-46952381D01*
X68500001Y-46952381D01*
X68595239Y-46904762D01*
X68642858Y-46857143D01*
X68690477Y-46761905D01*
X68690477Y-46666667D01*
X68642858Y-46571429D01*
X68595239Y-46523810D01*
X68500001Y-46476190D01*
X68309524Y-46428571D01*
X68214286Y-46380952D01*
X68166667Y-46333333D01*
X68119048Y-46238095D01*
X68119048Y-46142857D01*
X68166667Y-46047619D01*
X68214286Y-46000000D01*
X68309524Y-45952381D01*
X68547620Y-45952381D01*
X68690477Y-46000000D01*
X68976191Y-45952381D02*
X69547620Y-45952381D01*
X69261905Y-46952381D02*
X69261905Y-45952381D01*
X45904762Y-36309524D02*
X45952381Y-36166667D01*
X45952381Y-35928571D01*
X45904762Y-35833333D01*
X45857143Y-35785714D01*
X45761905Y-35738095D01*
X45666667Y-35738095D01*
X45571429Y-35785714D01*
X45523810Y-35833333D01*
X45476190Y-35928571D01*
X45428571Y-36119048D01*
X45380952Y-36214286D01*
X45333333Y-36261905D01*
X45238095Y-36309524D01*
X45142857Y-36309524D01*
X45047619Y-36261905D01*
X45000000Y-36214286D01*
X44952381Y-36119048D01*
X44952381Y-35880952D01*
X45000000Y-35738095D01*
X45428571Y-35309524D02*
X45428571Y-34976190D01*
X45952381Y-34833333D02*
X45952381Y-35309524D01*
X44952381Y-35309524D01*
X44952381Y-34833333D01*
X45952381Y-33833333D02*
X45476190Y-34166667D01*
X45952381Y-34404762D02*
X44952381Y-34404762D01*
X44952381Y-34023809D01*
X45000000Y-33928571D01*
X45047619Y-33880952D01*
X45142857Y-33833333D01*
X45285714Y-33833333D01*
X45380952Y-33880952D01*
X45428571Y-33928571D01*
X45476190Y-34023809D01*
X45476190Y-34404762D01*
X45952381Y-33404762D02*
X44952381Y-33404762D01*
X45666667Y-32976191D02*
X45666667Y-32500000D01*
X45952381Y-33071429D02*
X44952381Y-32738096D01*
X45952381Y-32404762D01*
X45952381Y-31595238D02*
X45952381Y-32071429D01*
X44952381Y-32071429D01*
X71011905Y-37452381D02*
X71011905Y-36452381D01*
X71392858Y-36452381D01*
X71488096Y-36500000D01*
X71535715Y-36547619D01*
X71583334Y-36642857D01*
X71583334Y-36785714D01*
X71535715Y-36880952D01*
X71488096Y-36928571D01*
X71392858Y-36976190D01*
X71011905Y-36976190D01*
X72440477Y-36452381D02*
X72250000Y-36452381D01*
X72154762Y-36500000D01*
X72107143Y-36547619D01*
X72011905Y-36690476D01*
X71964286Y-36880952D01*
X71964286Y-37261905D01*
X72011905Y-37357143D01*
X72059524Y-37404762D01*
X72154762Y-37452381D01*
X72345239Y-37452381D01*
X72440477Y-37404762D01*
X72488096Y-37357143D01*
X72535715Y-37261905D01*
X72535715Y-37023810D01*
X72488096Y-36928571D01*
X72440477Y-36880952D01*
X72345239Y-36833333D01*
X72154762Y-36833333D01*
X72059524Y-36880952D01*
X72011905Y-36928571D01*
X71964286Y-37023810D01*
X70833333Y-46952381D02*
X70833333Y-45952381D01*
X71071428Y-45952381D01*
X71214286Y-46000000D01*
X71309524Y-46095238D01*
X71357143Y-46190476D01*
X71404762Y-46380952D01*
X71404762Y-46523810D01*
X71357143Y-46714286D01*
X71309524Y-46809524D01*
X71214286Y-46904762D01*
X71071428Y-46952381D01*
X70833333Y-46952381D01*
X71833333Y-46952381D02*
X71833333Y-45952381D01*
X71833333Y-46428571D02*
X72404762Y-46428571D01*
X72404762Y-46952381D02*
X72404762Y-45952381D01*
X72738095Y-45952381D02*
X73309524Y-45952381D01*
X73023809Y-46952381D02*
X73023809Y-45952381D01*
X86761905Y-46272381D02*
X86761905Y-45272381D01*
X87142858Y-45272381D01*
X87238096Y-45320000D01*
X87285715Y-45367619D01*
X87333334Y-45462857D01*
X87333334Y-45605714D01*
X87285715Y-45700952D01*
X87238096Y-45748571D01*
X87142858Y-45796190D01*
X86761905Y-45796190D01*
X87666667Y-45272381D02*
X88333334Y-45272381D01*
X87904762Y-46272381D01*
X85404762Y-58761905D02*
X85452381Y-58619048D01*
X85452381Y-58380952D01*
X85404762Y-58285714D01*
X85357143Y-58238095D01*
X85261905Y-58190476D01*
X85166667Y-58190476D01*
X85071429Y-58238095D01*
X85023810Y-58285714D01*
X84976190Y-58380952D01*
X84928571Y-58571429D01*
X84880952Y-58666667D01*
X84833333Y-58714286D01*
X84738095Y-58761905D01*
X84642857Y-58761905D01*
X84547619Y-58714286D01*
X84500000Y-58666667D01*
X84452381Y-58571429D01*
X84452381Y-58333333D01*
X84500000Y-58190476D01*
X84928571Y-57761905D02*
X84928571Y-57428571D01*
X85452381Y-57285714D02*
X85452381Y-57761905D01*
X84452381Y-57761905D01*
X84452381Y-57285714D01*
X85452381Y-56857143D02*
X84452381Y-56857143D01*
X85452381Y-56285714D01*
X84452381Y-56285714D01*
X85404762Y-55857143D02*
X85452381Y-55714286D01*
X85452381Y-55476190D01*
X85404762Y-55380952D01*
X85357143Y-55333333D01*
X85261905Y-55285714D01*
X85166667Y-55285714D01*
X85071429Y-55333333D01*
X85023810Y-55380952D01*
X84976190Y-55476190D01*
X84928571Y-55666667D01*
X84880952Y-55761905D01*
X84833333Y-55809524D01*
X84738095Y-55857143D01*
X84642857Y-55857143D01*
X84547619Y-55809524D01*
X84500000Y-55761905D01*
X84452381Y-55666667D01*
X84452381Y-55428571D01*
X84500000Y-55285714D01*
X84452381Y-54666667D02*
X84452381Y-54476190D01*
X84500000Y-54380952D01*
X84595238Y-54285714D01*
X84785714Y-54238095D01*
X85119048Y-54238095D01*
X85309524Y-54285714D01*
X85404762Y-54380952D01*
X85452381Y-54476190D01*
X85452381Y-54666667D01*
X85404762Y-54761905D01*
X85309524Y-54857143D01*
X85119048Y-54904762D01*
X84785714Y-54904762D01*
X84595238Y-54857143D01*
X84500000Y-54761905D01*
X84452381Y-54666667D01*
X85452381Y-53238095D02*
X84976190Y-53571429D01*
X85452381Y-53809524D02*
X84452381Y-53809524D01*
X84452381Y-53428571D01*
X84500000Y-53333333D01*
X84547619Y-53285714D01*
X84642857Y-53238095D01*
X84785714Y-53238095D01*
X84880952Y-53285714D01*
X84928571Y-53333333D01*
X84976190Y-53428571D01*
X84976190Y-53809524D01*
X55833334Y-38952381D02*
X55500000Y-38476190D01*
X55261905Y-38952381D02*
X55261905Y-37952381D01*
X55642858Y-37952381D01*
X55738096Y-38000000D01*
X55785715Y-38047619D01*
X55833334Y-38142857D01*
X55833334Y-38285714D01*
X55785715Y-38380952D01*
X55738096Y-38428571D01*
X55642858Y-38476190D01*
X55261905Y-38476190D01*
X56690477Y-38285714D02*
X56690477Y-38952381D01*
X56452381Y-37904762D02*
X56214286Y-38619048D01*
X56833334Y-38619048D01*
X57261905Y-38047619D02*
X57309524Y-38000000D01*
X57404762Y-37952381D01*
X57642858Y-37952381D01*
X57738096Y-38000000D01*
X57785715Y-38047619D01*
X57833334Y-38142857D01*
X57833334Y-38238095D01*
X57785715Y-38380952D01*
X57214286Y-38952381D01*
X57833334Y-38952381D01*
X58214286Y-38047619D02*
X58261905Y-38000000D01*
X58357143Y-37952381D01*
X58595239Y-37952381D01*
X58690477Y-38000000D01*
X58738096Y-38047619D01*
X58785715Y-38142857D01*
X58785715Y-38238095D01*
X58738096Y-38380952D01*
X58166667Y-38952381D01*
X58785715Y-38952381D01*
X59404762Y-37952381D02*
X59500001Y-37952381D01*
X59595239Y-38000000D01*
X59642858Y-38047619D01*
X59690477Y-38142857D01*
X59738096Y-38333333D01*
X59738096Y-38571429D01*
X59690477Y-38761905D01*
X59642858Y-38857143D01*
X59595239Y-38904762D01*
X59500001Y-38952381D01*
X59404762Y-38952381D01*
X59309524Y-38904762D01*
X59261905Y-38857143D01*
X59214286Y-38761905D01*
X59166667Y-38571429D01*
X59166667Y-38333333D01*
X59214286Y-38142857D01*
X59261905Y-38047619D01*
X59309524Y-38000000D01*
X59404762Y-37952381D01*
X60166667Y-38952381D02*
X60166667Y-37952381D01*
X60738096Y-38952381D02*
X60309524Y-38380952D01*
X60738096Y-37952381D02*
X60166667Y-38523810D01*
X56333334Y-45952381D02*
X56000000Y-45476190D01*
X55761905Y-45952381D02*
X55761905Y-44952381D01*
X56142858Y-44952381D01*
X56238096Y-45000000D01*
X56285715Y-45047619D01*
X56333334Y-45142857D01*
X56333334Y-45285714D01*
X56285715Y-45380952D01*
X56238096Y-45428571D01*
X56142858Y-45476190D01*
X55761905Y-45476190D01*
X57238096Y-44952381D02*
X56761905Y-44952381D01*
X56714286Y-45428571D01*
X56761905Y-45380952D01*
X56857143Y-45333333D01*
X57095239Y-45333333D01*
X57190477Y-45380952D01*
X57238096Y-45428571D01*
X57285715Y-45523810D01*
X57285715Y-45761905D01*
X57238096Y-45857143D01*
X57190477Y-45904762D01*
X57095239Y-45952381D01*
X56857143Y-45952381D01*
X56761905Y-45904762D01*
X56714286Y-45857143D01*
X58333334Y-45952381D02*
X57761905Y-45952381D01*
X58047619Y-45952381D02*
X58047619Y-44952381D01*
X57952381Y-45095238D01*
X57857143Y-45190476D01*
X57761905Y-45238095D01*
X58952381Y-44952381D02*
X59047620Y-44952381D01*
X59142858Y-45000000D01*
X59190477Y-45047619D01*
X59238096Y-45142857D01*
X59285715Y-45333333D01*
X59285715Y-45571429D01*
X59238096Y-45761905D01*
X59190477Y-45857143D01*
X59142858Y-45904762D01*
X59047620Y-45952381D01*
X58952381Y-45952381D01*
X58857143Y-45904762D01*
X58809524Y-45857143D01*
X58761905Y-45761905D01*
X58714286Y-45571429D01*
X58714286Y-45333333D01*
X58761905Y-45142857D01*
X58809524Y-45047619D01*
X58857143Y-45000000D01*
X58952381Y-44952381D01*
X59904762Y-44952381D02*
X60000001Y-44952381D01*
X60095239Y-45000000D01*
X60142858Y-45047619D01*
X60190477Y-45142857D01*
X60238096Y-45333333D01*
X60238096Y-45571429D01*
X60190477Y-45761905D01*
X60142858Y-45857143D01*
X60095239Y-45904762D01*
X60000001Y-45952381D01*
X59904762Y-45952381D01*
X59809524Y-45904762D01*
X59761905Y-45857143D01*
X59714286Y-45761905D01*
X59666667Y-45571429D01*
X59666667Y-45333333D01*
X59714286Y-45142857D01*
X59761905Y-45047619D01*
X59809524Y-45000000D01*
X59904762Y-44952381D01*
X60666667Y-45952381D02*
X60666667Y-44952381D01*
X61238096Y-45952381D02*
X60809524Y-45380952D01*
X61238096Y-44952381D02*
X60666667Y-45523810D01*
X49833334Y-38952381D02*
X49500000Y-38476190D01*
X49261905Y-38952381D02*
X49261905Y-37952381D01*
X49642858Y-37952381D01*
X49738096Y-38000000D01*
X49785715Y-38047619D01*
X49833334Y-38142857D01*
X49833334Y-38285714D01*
X49785715Y-38380952D01*
X49738096Y-38428571D01*
X49642858Y-38476190D01*
X49261905Y-38476190D01*
X50690477Y-37952381D02*
X50500000Y-37952381D01*
X50404762Y-38000000D01*
X50357143Y-38047619D01*
X50261905Y-38190476D01*
X50214286Y-38380952D01*
X50214286Y-38761905D01*
X50261905Y-38857143D01*
X50309524Y-38904762D01*
X50404762Y-38952381D01*
X50595239Y-38952381D01*
X50690477Y-38904762D01*
X50738096Y-38857143D01*
X50785715Y-38761905D01*
X50785715Y-38523810D01*
X50738096Y-38428571D01*
X50690477Y-38380952D01*
X50595239Y-38333333D01*
X50404762Y-38333333D01*
X50309524Y-38380952D01*
X50261905Y-38428571D01*
X50214286Y-38523810D01*
X51309524Y-38952381D02*
X50738095Y-38952381D01*
X51023809Y-38952381D02*
X51023809Y-37952381D01*
X50928571Y-38095238D01*
X50833333Y-38190476D01*
X50738095Y-38238095D01*
X51928571Y-37952381D02*
X52023810Y-37952381D01*
X52119048Y-38000000D01*
X52166667Y-38047619D01*
X52214286Y-38142857D01*
X52261905Y-38333333D01*
X52261905Y-38571429D01*
X52214286Y-38761905D01*
X52166667Y-38857143D01*
X52119048Y-38904762D01*
X52023810Y-38952381D01*
X51928571Y-38952381D01*
X51833333Y-38904762D01*
X51785714Y-38857143D01*
X51738095Y-38761905D01*
X51690476Y-38571429D01*
X51690476Y-38333333D01*
X51738095Y-38142857D01*
X51785714Y-38047619D01*
X51833333Y-38000000D01*
X51928571Y-37952381D01*
X52690476Y-38952381D02*
X52690476Y-37952381D01*
X53261905Y-38952381D02*
X52833333Y-38380952D01*
X53261905Y-37952381D02*
X52690476Y-38523810D01*
X49833334Y-45952381D02*
X49500000Y-45476190D01*
X49261905Y-45952381D02*
X49261905Y-44952381D01*
X49642858Y-44952381D01*
X49738096Y-45000000D01*
X49785715Y-45047619D01*
X49833334Y-45142857D01*
X49833334Y-45285714D01*
X49785715Y-45380952D01*
X49738096Y-45428571D01*
X49642858Y-45476190D01*
X49261905Y-45476190D01*
X50166667Y-44952381D02*
X50833334Y-44952381D01*
X50404762Y-45952381D01*
X51809524Y-45952381D02*
X51238095Y-45952381D01*
X51523809Y-45952381D02*
X51523809Y-44952381D01*
X51428571Y-45095238D01*
X51333333Y-45190476D01*
X51238095Y-45238095D01*
X52428571Y-44952381D02*
X52523810Y-44952381D01*
X52619048Y-45000000D01*
X52666667Y-45047619D01*
X52714286Y-45142857D01*
X52761905Y-45333333D01*
X52761905Y-45571429D01*
X52714286Y-45761905D01*
X52666667Y-45857143D01*
X52619048Y-45904762D01*
X52523810Y-45952381D01*
X52428571Y-45952381D01*
X52333333Y-45904762D01*
X52285714Y-45857143D01*
X52238095Y-45761905D01*
X52190476Y-45571429D01*
X52190476Y-45333333D01*
X52238095Y-45142857D01*
X52285714Y-45047619D01*
X52333333Y-45000000D01*
X52428571Y-44952381D01*
X53190476Y-45952381D02*
X53190476Y-44952381D01*
X53761905Y-45952381D02*
X53333333Y-45380952D01*
X53761905Y-44952381D02*
X53190476Y-45523810D01*
X83654762Y-44083333D02*
X83702381Y-43940476D01*
X83702381Y-43702380D01*
X83654762Y-43607142D01*
X83607143Y-43559523D01*
X83511905Y-43511904D01*
X83416667Y-43511904D01*
X83321429Y-43559523D01*
X83273810Y-43607142D01*
X83226190Y-43702380D01*
X83178571Y-43892857D01*
X83130952Y-43988095D01*
X83083333Y-44035714D01*
X82988095Y-44083333D01*
X82892857Y-44083333D01*
X82797619Y-44035714D01*
X82750000Y-43988095D01*
X82702381Y-43892857D01*
X82702381Y-43654761D01*
X82750000Y-43511904D01*
X82702381Y-43178571D02*
X83702381Y-42940476D01*
X82988095Y-42749999D01*
X83702381Y-42559523D01*
X82702381Y-42321428D01*
X83702381Y-41416666D02*
X83702381Y-41988095D01*
X83702381Y-41702381D02*
X82702381Y-41702381D01*
X82845238Y-41797619D01*
X82940476Y-41892857D01*
X82988095Y-41988095D01*
X83214286Y-38452381D02*
X83214286Y-37452381D01*
X83595239Y-37452381D01*
X83690477Y-37500000D01*
X83738096Y-37547619D01*
X83785715Y-37642857D01*
X83785715Y-37785714D01*
X83738096Y-37880952D01*
X83690477Y-37928571D01*
X83595239Y-37976190D01*
X83214286Y-37976190D01*
X84785715Y-38452381D02*
X84452381Y-37976190D01*
X84214286Y-38452381D02*
X84214286Y-37452381D01*
X84595239Y-37452381D01*
X84690477Y-37500000D01*
X84738096Y-37547619D01*
X84785715Y-37642857D01*
X84785715Y-37785714D01*
X84738096Y-37880952D01*
X84690477Y-37928571D01*
X84595239Y-37976190D01*
X84214286Y-37976190D01*
X85404762Y-37452381D02*
X85595239Y-37452381D01*
X85690477Y-37500000D01*
X85785715Y-37595238D01*
X85833334Y-37785714D01*
X85833334Y-38119048D01*
X85785715Y-38309524D01*
X85690477Y-38404762D01*
X85595239Y-38452381D01*
X85404762Y-38452381D01*
X85309524Y-38404762D01*
X85214286Y-38309524D01*
X85166667Y-38119048D01*
X85166667Y-37785714D01*
X85214286Y-37595238D01*
X85309524Y-37500000D01*
X85404762Y-37452381D01*
X86785715Y-37500000D02*
X86690477Y-37452381D01*
X86547620Y-37452381D01*
X86404762Y-37500000D01*
X86309524Y-37595238D01*
X86261905Y-37690476D01*
X86214286Y-37880952D01*
X86214286Y-38023810D01*
X86261905Y-38214286D01*
X86309524Y-38309524D01*
X86404762Y-38404762D01*
X86547620Y-38452381D01*
X86642858Y-38452381D01*
X86785715Y-38404762D01*
X86833334Y-38357143D01*
X86833334Y-38023810D01*
X86642858Y-38023810D01*
X44666762Y-54023333D02*
X44714381Y-53880476D01*
X44714381Y-53642380D01*
X44666762Y-53547142D01*
X44619143Y-53499523D01*
X44523905Y-53451904D01*
X44428667Y-53451904D01*
X44333429Y-53499523D01*
X44285810Y-53547142D01*
X44238190Y-53642380D01*
X44190571Y-53832857D01*
X44142952Y-53928095D01*
X44095333Y-53975714D01*
X44000095Y-54023333D01*
X43904857Y-54023333D01*
X43809619Y-53975714D01*
X43762000Y-53928095D01*
X43714381Y-53832857D01*
X43714381Y-53594761D01*
X43762000Y-53451904D01*
X43714381Y-53118571D02*
X44714381Y-52880476D01*
X44000095Y-52689999D01*
X44714381Y-52499523D01*
X43714381Y-52261428D01*
X43809619Y-51928095D02*
X43762000Y-51880476D01*
X43714381Y-51785238D01*
X43714381Y-51547142D01*
X43762000Y-51451904D01*
X43809619Y-51404285D01*
X43904857Y-51356666D01*
X44000095Y-51356666D01*
X44142952Y-51404285D01*
X44714381Y-51975714D01*
X44714381Y-51356666D01*
X48702381Y-53452381D02*
X48226190Y-53785715D01*
X48702381Y-54023810D02*
X47702381Y-54023810D01*
X47702381Y-53642857D01*
X47750000Y-53547619D01*
X47797619Y-53500000D01*
X47892857Y-53452381D01*
X48035714Y-53452381D01*
X48130952Y-53500000D01*
X48178571Y-53547619D01*
X48226190Y-53642857D01*
X48226190Y-54023810D01*
X48178571Y-53023810D02*
X48178571Y-52690476D01*
X48702381Y-52547619D02*
X48702381Y-53023810D01*
X47702381Y-53023810D01*
X47702381Y-52547619D01*
X48654762Y-52166667D02*
X48702381Y-52023810D01*
X48702381Y-51785714D01*
X48654762Y-51690476D01*
X48607143Y-51642857D01*
X48511905Y-51595238D01*
X48416667Y-51595238D01*
X48321429Y-51642857D01*
X48273810Y-51690476D01*
X48226190Y-51785714D01*
X48178571Y-51976191D01*
X48130952Y-52071429D01*
X48083333Y-52119048D01*
X47988095Y-52166667D01*
X47892857Y-52166667D01*
X47797619Y-52119048D01*
X47750000Y-52071429D01*
X47702381Y-51976191D01*
X47702381Y-51738095D01*
X47750000Y-51595238D01*
X48178571Y-51166667D02*
X48178571Y-50833333D01*
X48702381Y-50690476D02*
X48702381Y-51166667D01*
X47702381Y-51166667D01*
X47702381Y-50690476D01*
X47702381Y-50404762D02*
X47702381Y-49833333D01*
X48702381Y-50119048D02*
X47702381Y-50119048D01*
X44706762Y-64333333D02*
X44754381Y-64190476D01*
X44754381Y-63952380D01*
X44706762Y-63857142D01*
X44659143Y-63809523D01*
X44563905Y-63761904D01*
X44468667Y-63761904D01*
X44373429Y-63809523D01*
X44325810Y-63857142D01*
X44278190Y-63952380D01*
X44230571Y-64142857D01*
X44182952Y-64238095D01*
X44135333Y-64285714D01*
X44040095Y-64333333D01*
X43944857Y-64333333D01*
X43849619Y-64285714D01*
X43802000Y-64238095D01*
X43754381Y-64142857D01*
X43754381Y-63904761D01*
X43802000Y-63761904D01*
X43754381Y-63428571D02*
X44754381Y-63190476D01*
X44040095Y-62999999D01*
X44754381Y-62809523D01*
X43754381Y-62571428D01*
X43754381Y-62285714D02*
X43754381Y-61666666D01*
X44135333Y-62000000D01*
X44135333Y-61857142D01*
X44182952Y-61761904D01*
X44230571Y-61714285D01*
X44325810Y-61666666D01*
X44563905Y-61666666D01*
X44659143Y-61714285D01*
X44706762Y-61761904D01*
X44754381Y-61857142D01*
X44754381Y-62142857D01*
X44706762Y-62238095D01*
X44659143Y-62285714D01*
X42380952Y-68404762D02*
X42523809Y-68452381D01*
X42761905Y-68452381D01*
X42857143Y-68404762D01*
X42904762Y-68357143D01*
X42952381Y-68261905D01*
X42952381Y-68166667D01*
X42904762Y-68071429D01*
X42857143Y-68023810D01*
X42761905Y-67976190D01*
X42571428Y-67928571D01*
X42476190Y-67880952D01*
X42428571Y-67833333D01*
X42380952Y-67738095D01*
X42380952Y-67642857D01*
X42428571Y-67547619D01*
X42476190Y-67500000D01*
X42571428Y-67452381D01*
X42809524Y-67452381D01*
X42952381Y-67500000D01*
X43380952Y-67928571D02*
X43714286Y-67928571D01*
X43857143Y-68452381D02*
X43380952Y-68452381D01*
X43380952Y-67452381D01*
X43857143Y-67452381D01*
X44142857Y-67452381D02*
X44714286Y-67452381D01*
X44428571Y-68452381D02*
X44428571Y-67452381D01*
X66238095Y-74952381D02*
X66238095Y-75761905D01*
X66285714Y-75857143D01*
X66333333Y-75904762D01*
X66428571Y-75952381D01*
X66619048Y-75952381D01*
X66714286Y-75904762D01*
X66761905Y-75857143D01*
X66809524Y-75761905D01*
X66809524Y-74952381D01*
X67809524Y-75952381D02*
X67238095Y-75952381D01*
X67523809Y-75952381D02*
X67523809Y-74952381D01*
X67428571Y-75095238D01*
X67333333Y-75190476D01*
X67238095Y-75238095D01*
X74261905Y-37452381D02*
X74261905Y-36452381D01*
X74642858Y-36452381D01*
X74738096Y-36500000D01*
X74785715Y-36547619D01*
X74833334Y-36642857D01*
X74833334Y-36785714D01*
X74785715Y-36880952D01*
X74738096Y-36928571D01*
X74642858Y-36976190D01*
X74261905Y-36976190D01*
X75404762Y-36880952D02*
X75309524Y-36833333D01*
X75261905Y-36785714D01*
X75214286Y-36690476D01*
X75214286Y-36642857D01*
X75261905Y-36547619D01*
X75309524Y-36500000D01*
X75404762Y-36452381D01*
X75595239Y-36452381D01*
X75690477Y-36500000D01*
X75738096Y-36547619D01*
X75785715Y-36642857D01*
X75785715Y-36690476D01*
X75738096Y-36785714D01*
X75690477Y-36833333D01*
X75595239Y-36880952D01*
X75404762Y-36880952D01*
X75309524Y-36928571D01*
X75261905Y-36976190D01*
X75214286Y-37071429D01*
X75214286Y-37261905D01*
X75261905Y-37357143D01*
X75309524Y-37404762D01*
X75404762Y-37452381D01*
X75595239Y-37452381D01*
X75690477Y-37404762D01*
X75738096Y-37357143D01*
X75785715Y-37261905D01*
X75785715Y-37071429D01*
X75738096Y-36976190D01*
X75690477Y-36928571D01*
X75595239Y-36880952D01*
X73523810Y-48250000D02*
X73428572Y-48202381D01*
X73285715Y-48202381D01*
X73142857Y-48250000D01*
X73047619Y-48345238D01*
X73000000Y-48440476D01*
X72952381Y-48630952D01*
X72952381Y-48773810D01*
X73000000Y-48964286D01*
X73047619Y-49059524D01*
X73142857Y-49154762D01*
X73285715Y-49202381D01*
X73380953Y-49202381D01*
X73523810Y-49154762D01*
X73571429Y-49107143D01*
X73571429Y-48773810D01*
X73380953Y-48773810D01*
X74000000Y-49202381D02*
X74000000Y-48202381D01*
X74380953Y-48202381D01*
X74476191Y-48250000D01*
X74523810Y-48297619D01*
X74571429Y-48392857D01*
X74571429Y-48535714D01*
X74523810Y-48630952D01*
X74476191Y-48678571D01*
X74380953Y-48726190D01*
X74000000Y-48726190D01*
X75000000Y-49202381D02*
X75000000Y-48202381D01*
X75666666Y-48202381D02*
X75857143Y-48202381D01*
X75952381Y-48250000D01*
X76047619Y-48345238D01*
X76095238Y-48535714D01*
X76095238Y-48869048D01*
X76047619Y-49059524D01*
X75952381Y-49154762D01*
X75857143Y-49202381D01*
X75666666Y-49202381D01*
X75571428Y-49154762D01*
X75476190Y-49059524D01*
X75428571Y-48869048D01*
X75428571Y-48535714D01*
X75476190Y-48345238D01*
X75571428Y-48250000D01*
X75666666Y-48202381D01*
X76476190Y-49154762D02*
X76619047Y-49202381D01*
X76857143Y-49202381D01*
X76952381Y-49154762D01*
X77000000Y-49107143D01*
X77047619Y-49011905D01*
X77047619Y-48916667D01*
X77000000Y-48821429D01*
X76952381Y-48773810D01*
X76857143Y-48726190D01*
X76666666Y-48678571D01*
X76571428Y-48630952D01*
X76523809Y-48583333D01*
X76476190Y-48488095D01*
X76476190Y-48392857D01*
X76523809Y-48297619D01*
X76571428Y-48250000D01*
X76666666Y-48202381D01*
X76904762Y-48202381D01*
X77047619Y-48250000D01*
X77761905Y-42852381D02*
X77761905Y-41852381D01*
X78142858Y-41852381D01*
X78238096Y-41900000D01*
X78285715Y-41947619D01*
X78333334Y-42042857D01*
X78333334Y-42185714D01*
X78285715Y-42280952D01*
X78238096Y-42328571D01*
X78142858Y-42376190D01*
X77761905Y-42376190D01*
X78809524Y-42852381D02*
X79000000Y-42852381D01*
X79095239Y-42804762D01*
X79142858Y-42757143D01*
X79238096Y-42614286D01*
X79285715Y-42423810D01*
X79285715Y-42042857D01*
X79238096Y-41947619D01*
X79190477Y-41900000D01*
X79095239Y-41852381D01*
X78904762Y-41852381D01*
X78809524Y-41900000D01*
X78761905Y-41947619D01*
X78714286Y-42042857D01*
X78714286Y-42280952D01*
X78761905Y-42376190D01*
X78809524Y-42423810D01*
X78904762Y-42471429D01*
X79095239Y-42471429D01*
X79190477Y-42423810D01*
X79238096Y-42376190D01*
X79285715Y-42280952D01*
X77083333Y-52702381D02*
X77083333Y-51702381D01*
X77321428Y-51702381D01*
X77464286Y-51750000D01*
X77559524Y-51845238D01*
X77607143Y-51940476D01*
X77654762Y-52130952D01*
X77654762Y-52273810D01*
X77607143Y-52464286D01*
X77559524Y-52559524D01*
X77464286Y-52654762D01*
X77321428Y-52702381D01*
X77083333Y-52702381D01*
X78083333Y-52178571D02*
X78416667Y-52178571D01*
X78559524Y-52702381D02*
X78083333Y-52702381D01*
X78083333Y-51702381D01*
X78559524Y-51702381D01*
X78988095Y-52178571D02*
X79321429Y-52178571D01*
X79464286Y-52702381D02*
X78988095Y-52702381D01*
X78988095Y-51702381D01*
X79464286Y-51702381D01*
X79892857Y-52702381D02*
X79892857Y-51702381D01*
X80273810Y-51702381D01*
X80369048Y-51750000D01*
X80416667Y-51797619D01*
X80464286Y-51892857D01*
X80464286Y-52035714D01*
X80416667Y-52130952D01*
X80369048Y-52178571D01*
X80273810Y-52226190D01*
X79892857Y-52226190D01*
X45785714Y-45702381D02*
X45785714Y-44702381D01*
X46166667Y-44702381D01*
X46261905Y-44750000D01*
X46309524Y-44797619D01*
X46357143Y-44892857D01*
X46357143Y-45035714D01*
X46309524Y-45130952D01*
X46261905Y-45178571D01*
X46166667Y-45226190D01*
X45785714Y-45226190D01*
X47309524Y-45702381D02*
X46738095Y-45702381D01*
X47023809Y-45702381D02*
X47023809Y-44702381D01*
X46928571Y-44845238D01*
X46833333Y-44940476D01*
X46738095Y-44988095D01*
X47928571Y-44702381D02*
X48023810Y-44702381D01*
X48119048Y-44750000D01*
X48166667Y-44797619D01*
X48214286Y-44892857D01*
X48261905Y-45083333D01*
X48261905Y-45321429D01*
X48214286Y-45511905D01*
X48166667Y-45607143D01*
X48119048Y-45654762D01*
X48023810Y-45702381D01*
X47928571Y-45702381D01*
X47833333Y-45654762D01*
X47785714Y-45607143D01*
X47738095Y-45511905D01*
X47690476Y-45321429D01*
X47690476Y-45083333D01*
X47738095Y-44892857D01*
X47785714Y-44797619D01*
X47833333Y-44750000D01*
X47928571Y-44702381D01*
X45666667Y-37852381D02*
X45666667Y-36852381D01*
X46047620Y-36852381D01*
X46142858Y-36900000D01*
X46190477Y-36947619D01*
X46238096Y-37042857D01*
X46238096Y-37185714D01*
X46190477Y-37280952D01*
X46142858Y-37328571D01*
X46047620Y-37376190D01*
X45666667Y-37376190D01*
X46571429Y-36852381D02*
X46809524Y-37852381D01*
X47000001Y-37138095D01*
X47190477Y-37852381D01*
X47428572Y-36852381D01*
X48380953Y-37852381D02*
X48047619Y-37376190D01*
X47809524Y-37852381D02*
X47809524Y-36852381D01*
X48190477Y-36852381D01*
X48285715Y-36900000D01*
X48333334Y-36947619D01*
X48380953Y-37042857D01*
X48380953Y-37185714D01*
X48333334Y-37280952D01*
X48285715Y-37328571D01*
X48190477Y-37376190D01*
X47809524Y-37376190D01*
X74238095Y-50452381D02*
X74238095Y-51261905D01*
X74285714Y-51357143D01*
X74333333Y-51404762D01*
X74428571Y-51452381D01*
X74619048Y-51452381D01*
X74714286Y-51404762D01*
X74761905Y-51357143D01*
X74809524Y-51261905D01*
X74809524Y-50452381D01*
X75714286Y-50785714D02*
X75714286Y-51452381D01*
X75476190Y-50404762D02*
X75238095Y-51119048D01*
X75857143Y-51119048D01*
M02*
