G04 #@! TF.FileFunction,Copper,L1,Top,Signal*
%FSLAX46Y46*%
G04 Gerber Fmt 4.6, Leading zero omitted, Abs format (unit mm)*
G04 Created by KiCad (PCBNEW 4.0.4-1.fc24-product) date Sun Jan 15 22:00:39 2017*
%MOMM*%
%LPD*%
G01*
G04 APERTURE LIST*
%ADD10C,0.100000*%
%ADD11C,0.200000*%
%ADD12R,2.032000X2.032000*%
%ADD13O,2.032000X2.032000*%
%ADD14R,1.350000X0.400000*%
%ADD15O,0.950000X1.250000*%
%ADD16O,1.550000X1.000000*%
%ADD17R,1.727200X2.032000*%
%ADD18O,1.727200X2.032000*%
%ADD19R,2.032000X1.727200*%
%ADD20O,2.032000X1.727200*%
%ADD21R,1.500000X1.300000*%
%ADD22C,1.397000*%
%ADD23O,1.100000X2.400000*%
%ADD24R,2.400000X1.100000*%
%ADD25O,2.400000X1.100000*%
%ADD26C,3.200000*%
%ADD27C,1.200000*%
%ADD28C,3.000000*%
%ADD29C,0.600000*%
%ADD30C,0.250000*%
G04 APERTURE END LIST*
D10*
D11*
X83559524Y-69285714D02*
X83797619Y-69952381D01*
X84035715Y-69285714D01*
X84607143Y-68952381D02*
X84702382Y-68952381D01*
X84797620Y-69000000D01*
X84845239Y-69047619D01*
X84892858Y-69142857D01*
X84940477Y-69333333D01*
X84940477Y-69571429D01*
X84892858Y-69761905D01*
X84845239Y-69857143D01*
X84797620Y-69904762D01*
X84702382Y-69952381D01*
X84607143Y-69952381D01*
X84511905Y-69904762D01*
X84464286Y-69857143D01*
X84416667Y-69761905D01*
X84369048Y-69571429D01*
X84369048Y-69333333D01*
X84416667Y-69142857D01*
X84464286Y-69047619D01*
X84511905Y-69000000D01*
X84607143Y-68952381D01*
X85369048Y-69857143D02*
X85416667Y-69904762D01*
X85369048Y-69952381D01*
X85321429Y-69904762D01*
X85369048Y-69857143D01*
X85369048Y-69952381D01*
X85750000Y-68952381D02*
X86369048Y-68952381D01*
X86035714Y-69333333D01*
X86178572Y-69333333D01*
X86273810Y-69380952D01*
X86321429Y-69428571D01*
X86369048Y-69523810D01*
X86369048Y-69761905D01*
X86321429Y-69857143D01*
X86273810Y-69904762D01*
X86178572Y-69952381D01*
X85892857Y-69952381D01*
X85797619Y-69904762D01*
X85750000Y-69857143D01*
X87226191Y-69952381D02*
X87226191Y-68952381D01*
X87226191Y-69904762D02*
X87130953Y-69952381D01*
X86940476Y-69952381D01*
X86845238Y-69904762D01*
X86797619Y-69857143D01*
X86750000Y-69761905D01*
X86750000Y-69476190D01*
X86797619Y-69380952D01*
X86845238Y-69333333D01*
X86940476Y-69285714D01*
X87130953Y-69285714D01*
X87226191Y-69333333D01*
X88083334Y-69904762D02*
X87988096Y-69952381D01*
X87797619Y-69952381D01*
X87702381Y-69904762D01*
X87654762Y-69809524D01*
X87654762Y-69428571D01*
X87702381Y-69333333D01*
X87797619Y-69285714D01*
X87988096Y-69285714D01*
X88083334Y-69333333D01*
X88130953Y-69428571D01*
X88130953Y-69523810D01*
X87654762Y-69619048D01*
X88464286Y-69285714D02*
X88702381Y-69952381D01*
X88940477Y-69285714D01*
D12*
X78500000Y-39000000D03*
D13*
X78500000Y-41540000D03*
D14*
X43600000Y-41199100D03*
X43600000Y-41849100D03*
X43600000Y-42499100D03*
X43600000Y-43149100D03*
X43600000Y-43799100D03*
D15*
X43600000Y-39999100D03*
X43600000Y-44999100D03*
D16*
X40900000Y-38999100D03*
X40900000Y-45999100D03*
D17*
X76000000Y-35000000D03*
D18*
X73460000Y-35000000D03*
X70920000Y-35000000D03*
X68380000Y-35000000D03*
X65840000Y-35000000D03*
X63300000Y-35000000D03*
X60760000Y-35000000D03*
X58220000Y-35000000D03*
D19*
X67900000Y-39000000D03*
D20*
X67900000Y-41540000D03*
X67900000Y-44080000D03*
D17*
X53000000Y-35000000D03*
D18*
X50460000Y-35000000D03*
X47920000Y-35000000D03*
D19*
X71500000Y-39000000D03*
D20*
X71500000Y-41540000D03*
X71500000Y-44080000D03*
D19*
X87500000Y-50920000D03*
D20*
X87500000Y-53460000D03*
X87500000Y-56000000D03*
X87500000Y-58540000D03*
X87500000Y-61080000D03*
D21*
X59150000Y-40200000D03*
X56450000Y-40200000D03*
X56450000Y-43400000D03*
X59150000Y-43400000D03*
X52750000Y-40200000D03*
X50050000Y-40200000D03*
X52750000Y-43400000D03*
X50050000Y-43400000D03*
D22*
X82500000Y-39380000D03*
X87580000Y-39380000D03*
X82500000Y-47000000D03*
X87580000Y-47000000D03*
X46040000Y-56500000D03*
X40960000Y-56500000D03*
X46040000Y-48880000D03*
X40960000Y-48880000D03*
X46080000Y-66810000D03*
X41000000Y-66810000D03*
X46080000Y-59190000D03*
X41000000Y-59190000D03*
D23*
X62010000Y-57750000D03*
X60010000Y-57750000D03*
X58010000Y-57750000D03*
X56010000Y-57750000D03*
X54010000Y-57750000D03*
X52010000Y-57750000D03*
D24*
X65000000Y-73500000D03*
D25*
X65000000Y-71500000D03*
X65000000Y-69500000D03*
X65000000Y-67500000D03*
X65000000Y-65500000D03*
X65000000Y-63500000D03*
X65000000Y-61500000D03*
X65000000Y-59500000D03*
X49000000Y-59500000D03*
X49000000Y-61500000D03*
X49000000Y-63500000D03*
X49000000Y-65500000D03*
X49000000Y-67500000D03*
X49000000Y-69500000D03*
X49000000Y-71500000D03*
X49000000Y-73500000D03*
D19*
X75000000Y-39000000D03*
D20*
X75000000Y-41540000D03*
X75000000Y-44080000D03*
X75000000Y-46620000D03*
D12*
X78500000Y-47500000D03*
D13*
X78500000Y-50040000D03*
D12*
X47000000Y-40500000D03*
D13*
X47000000Y-43040000D03*
D26*
X86500000Y-34000000D03*
X86500000Y-73000000D03*
X42500000Y-73000000D03*
X42500000Y-34000000D03*
D27*
X78750000Y-55000000D03*
X76250000Y-55000000D03*
X73750000Y-55000000D03*
X71250000Y-55000000D03*
D28*
X75000000Y-78000000D03*
D29*
X48750000Y-37250000D03*
X42250000Y-50000000D03*
X45000000Y-47500000D03*
X64300000Y-57725000D03*
X63000000Y-60500000D03*
X58925000Y-51225000D03*
X83000000Y-43750000D03*
X61000000Y-42250000D03*
X54749971Y-43750000D03*
X72499024Y-49900722D03*
X46500000Y-46000000D03*
X54500000Y-48500000D03*
X42750000Y-37250000D03*
X72000000Y-33500000D03*
X69075031Y-58000000D03*
X69724978Y-46500000D03*
X65750000Y-42250000D03*
X65000000Y-43250000D03*
X61250000Y-39500000D03*
X59500000Y-65500000D03*
X62500000Y-51625010D03*
X43750000Y-58500000D03*
X75504210Y-57013010D03*
X70500000Y-47750000D03*
X71500000Y-50250000D03*
X72000000Y-58750000D03*
X72268705Y-47499989D03*
X70000000Y-59000000D03*
X72599762Y-49107078D03*
X71085551Y-59585551D03*
X75183998Y-54000400D03*
X72625010Y-59403500D03*
X78500000Y-45500000D03*
X54000000Y-71000000D03*
X54000000Y-64500000D03*
X50500000Y-68500000D03*
X51000000Y-69250000D03*
X67665600Y-52425600D03*
X54013593Y-37575011D03*
D30*
X54799988Y-38200012D02*
X54799988Y-37313338D01*
X54799988Y-37313338D02*
X54436651Y-36950001D01*
X50050000Y-40200000D02*
X50150000Y-40200000D01*
X50150000Y-40200000D02*
X52149988Y-38200012D01*
X52149988Y-38200012D02*
X54799988Y-38200012D01*
X49049999Y-36950001D02*
X54436651Y-36950001D01*
X63300000Y-34847600D02*
X63300000Y-35000000D01*
X48750000Y-37250000D02*
X49049999Y-36950001D01*
X54436651Y-36950001D02*
X57727662Y-33658990D01*
X57727662Y-33658990D02*
X62111390Y-33658990D01*
X62111390Y-33658990D02*
X63300000Y-34847600D01*
X45000000Y-47500000D02*
X42500000Y-50000000D01*
X42500000Y-50000000D02*
X42250000Y-50000000D01*
X65000000Y-58700000D02*
X64374990Y-58074990D01*
X65000000Y-59500000D02*
X65000000Y-58700000D01*
X64374990Y-58074990D02*
X64300000Y-57725000D01*
X63000000Y-60500000D02*
X64800000Y-60500000D01*
X64800000Y-60500000D02*
X65000000Y-60300000D01*
X65000000Y-60300000D02*
X65000000Y-59500000D01*
X83000000Y-43750000D02*
X86250000Y-47000000D01*
X86250000Y-47000000D02*
X87580000Y-47000000D01*
X87347600Y-56000000D02*
X87500000Y-56000000D01*
X61000000Y-42250000D02*
X59400000Y-42250000D01*
X59400000Y-42250000D02*
X59150000Y-42500000D01*
X59150000Y-42500000D02*
X59150000Y-43400000D01*
X54749971Y-43750000D02*
X54749971Y-43325736D01*
X54749971Y-43325736D02*
X53849234Y-42424999D01*
X53849234Y-42424999D02*
X51125001Y-42424999D01*
X51125001Y-42424999D02*
X50150000Y-43400000D01*
X50150000Y-43400000D02*
X50050000Y-43400000D01*
X43600000Y-43799100D02*
X44075000Y-43799100D01*
X44075000Y-43799100D02*
X44656901Y-44381001D01*
X44656901Y-44381001D02*
X48068999Y-44381001D01*
X48068999Y-44381001D02*
X49050000Y-43400000D01*
X49050000Y-43400000D02*
X50050000Y-43400000D01*
X87500000Y-58540000D02*
X87347600Y-58540000D01*
X87347600Y-58540000D02*
X82604800Y-53797200D01*
X82604800Y-53797200D02*
X76395502Y-53797200D01*
X76395502Y-53797200D02*
X72799023Y-50200721D01*
X72799023Y-50200721D02*
X72499024Y-49900722D01*
X47000000Y-43040000D02*
X45159100Y-41199100D01*
X45159100Y-41199100D02*
X43600000Y-41199100D01*
X54500000Y-48500000D02*
X51500000Y-46000000D01*
X51500000Y-46000000D02*
X46500000Y-46000000D01*
X46290000Y-42790000D02*
X47000000Y-43040000D01*
X78500000Y-37734000D02*
X78500000Y-39000000D01*
X78127388Y-37361388D02*
X78500000Y-37734000D01*
X71550002Y-36374998D02*
X72536392Y-37361388D01*
X61638601Y-37811399D02*
X69263597Y-37811399D01*
X70699998Y-36374998D02*
X71550002Y-36374998D01*
X69263597Y-37811399D02*
X70699998Y-36374998D01*
X59150000Y-40200000D02*
X59250000Y-40200000D01*
X72536392Y-37361388D02*
X78127388Y-37361388D01*
X59250000Y-40200000D02*
X61638601Y-37811399D01*
X42750000Y-37250000D02*
X41000900Y-38999100D01*
X41000900Y-38999100D02*
X40900000Y-38999100D01*
X40900000Y-45999100D02*
X42750000Y-45999100D01*
X42750000Y-45999100D02*
X43600000Y-45149100D01*
X43600000Y-45149100D02*
X43600000Y-44999100D01*
X72000000Y-33500000D02*
X74500000Y-33500000D01*
X74500000Y-33500000D02*
X74734000Y-33734000D01*
X74734000Y-33734000D02*
X74886400Y-33734000D01*
X76000000Y-34847600D02*
X76000000Y-35000000D01*
X74886400Y-33734000D02*
X76000000Y-34847600D01*
X67900000Y-41540000D02*
X68052400Y-41540000D01*
X69075031Y-47149947D02*
X69075031Y-58000000D01*
X69724978Y-46500000D02*
X69075031Y-47149947D01*
X65074998Y-42250000D02*
X65325736Y-42250000D01*
X62374999Y-60199999D02*
X63300001Y-59274997D01*
X62374999Y-61524999D02*
X62374999Y-60199999D01*
X65325736Y-42250000D02*
X65750000Y-42250000D01*
X65000000Y-63500000D02*
X64350000Y-63500000D01*
X64350000Y-63500000D02*
X62374999Y-61524999D01*
X63300001Y-44024997D02*
X65074998Y-42250000D01*
X63300001Y-59274997D02*
X63300001Y-44024997D01*
X66525010Y-59862441D02*
X66525010Y-59137559D01*
X66525010Y-59137559D02*
X65000000Y-57612549D01*
X65000000Y-57612549D02*
X65000000Y-43674264D01*
X65000000Y-61387451D02*
X66525010Y-59862441D01*
X65000000Y-61500000D02*
X65000000Y-61387451D01*
X65000000Y-43674264D02*
X65000000Y-43250000D01*
X61549999Y-39799999D02*
X61250000Y-39500000D01*
X61625001Y-39875001D02*
X61549999Y-39799999D01*
X61625001Y-42550001D02*
X61625001Y-39875001D01*
X61134990Y-43040012D02*
X61625001Y-42550001D01*
X61134990Y-63865010D02*
X61134990Y-43040012D01*
X59500000Y-65500000D02*
X61134990Y-63865010D01*
X66574987Y-40113600D02*
X62500000Y-44188587D01*
X62500000Y-51200746D02*
X62500000Y-51625010D01*
X67747600Y-39000000D02*
X66634000Y-40113600D01*
X67900000Y-39000000D02*
X67747600Y-39000000D01*
X62500000Y-44188587D02*
X62500000Y-51200746D01*
X66634000Y-40113600D02*
X66574987Y-40113600D01*
X68369611Y-60563483D02*
X68369611Y-51142432D01*
X67900000Y-45193600D02*
X67900000Y-44080000D01*
X67900000Y-48827179D02*
X67900000Y-45193600D01*
X67900000Y-61033094D02*
X68369611Y-60563483D01*
X65650000Y-73500000D02*
X67900000Y-71250000D01*
X67900000Y-71250000D02*
X67900000Y-61033094D01*
X67599980Y-50372801D02*
X67599980Y-49127199D01*
X67599980Y-49127199D02*
X67900000Y-48827179D01*
X65000000Y-73500000D02*
X65650000Y-73500000D01*
X68369611Y-51142432D02*
X67599980Y-50372801D01*
X72144738Y-42891390D02*
X70354610Y-42891390D01*
X72841010Y-43587662D02*
X72144738Y-42891390D01*
X76925390Y-47808610D02*
X74072218Y-47808610D01*
X70354610Y-42891390D02*
X69166000Y-44080000D01*
X77234000Y-47500000D02*
X76925390Y-47808610D01*
X78500000Y-47500000D02*
X77234000Y-47500000D01*
X69166000Y-44080000D02*
X67900000Y-44080000D01*
X74072218Y-47808610D02*
X72841010Y-46577402D01*
X72841010Y-46577402D02*
X72841010Y-43587662D01*
X88071281Y-38356499D02*
X88841001Y-39126219D01*
X88841001Y-39126219D02*
X88841001Y-52271399D01*
X88841001Y-52271399D02*
X87652400Y-53460000D01*
X87652400Y-53460000D02*
X87500000Y-53460000D01*
X85856499Y-38356499D02*
X88071281Y-38356499D01*
X71775007Y-32799991D02*
X74436402Y-32799991D01*
X74436402Y-32799991D02*
X74845392Y-33208981D01*
X74845392Y-33208981D02*
X80708981Y-33208981D01*
X80708981Y-33208981D02*
X85856499Y-38356499D01*
X53000000Y-35000000D02*
X54113600Y-35000000D01*
X54113600Y-35000000D02*
X55904619Y-33208981D01*
X55904619Y-33208981D02*
X71366017Y-33208981D01*
X71366017Y-33208981D02*
X71775007Y-32799991D01*
X49000000Y-73500000D02*
X47550000Y-73500000D01*
X42000010Y-39340830D02*
X42000010Y-39086642D01*
X49967662Y-36341010D02*
X51811390Y-36341010D01*
X47550000Y-73500000D02*
X41883501Y-67833501D01*
X39799990Y-67124772D02*
X39799990Y-41540850D01*
X41883501Y-67833501D02*
X40508719Y-67833501D01*
X47427662Y-33658990D02*
X48412338Y-33658990D01*
X49271390Y-34518042D02*
X49271390Y-35644738D01*
X40508719Y-67833501D02*
X39799990Y-67124772D01*
X42000010Y-39086642D02*
X47427662Y-33658990D01*
X39799990Y-41540850D02*
X42000010Y-39340830D01*
X48412338Y-33658990D02*
X49271390Y-34518042D01*
X49271390Y-35644738D02*
X49967662Y-36341010D01*
X51811390Y-36341010D02*
X53000000Y-35152400D01*
X53000000Y-35152400D02*
X53000000Y-35000000D01*
X49000000Y-71500000D02*
X48350000Y-71500000D01*
X48350000Y-71500000D02*
X43750000Y-66900000D01*
X43750000Y-66900000D02*
X43750000Y-58500000D01*
X71347600Y-39000000D02*
X71500000Y-39000000D01*
X66374999Y-43771653D02*
X67255262Y-42891390D01*
X65000000Y-65500000D02*
X65650000Y-65500000D01*
X69241010Y-41106590D02*
X71347600Y-39000000D01*
X69241010Y-42195118D02*
X69241010Y-41106590D01*
X68544738Y-42891390D02*
X69241010Y-42195118D01*
X66374999Y-58351137D02*
X66374999Y-43771653D01*
X66975021Y-60048841D02*
X66975021Y-58951159D01*
X65650000Y-65500000D02*
X66555189Y-64594811D01*
X67255262Y-42891390D02*
X68544738Y-42891390D01*
X66555189Y-64594811D02*
X66555189Y-60468672D01*
X66555189Y-60468672D02*
X66975021Y-60048841D01*
X66975021Y-58951159D02*
X66374999Y-58351137D01*
X71500000Y-39000000D02*
X75000000Y-39000000D01*
X75504210Y-55745790D02*
X75504210Y-56588746D01*
X76250000Y-55000000D02*
X75504210Y-55745790D01*
X75504210Y-56588746D02*
X75504210Y-57013010D01*
X72694800Y-58055200D02*
X72694800Y-51444800D01*
X72000000Y-58750000D02*
X72694800Y-58055200D01*
X72694800Y-51444800D02*
X71799999Y-50549999D01*
X71799999Y-50549999D02*
X71500000Y-50250000D01*
X70500000Y-45500000D02*
X71193600Y-45500000D01*
X71193600Y-45500000D02*
X71500000Y-45193600D01*
X71500000Y-45193600D02*
X71500000Y-44080000D01*
X70500000Y-47750000D02*
X70500000Y-45500000D01*
X56450000Y-43400000D02*
X56450000Y-42500000D01*
X56450000Y-42500000D02*
X56450000Y-40200000D01*
X65000000Y-71500000D02*
X64350000Y-71500000D01*
X64350000Y-71500000D02*
X56885010Y-64035010D01*
X56885010Y-64035010D02*
X56885010Y-44735010D01*
X56450000Y-44300000D02*
X56450000Y-43400000D01*
X56885010Y-44735010D02*
X56450000Y-44300000D01*
X71968706Y-47799988D02*
X72268705Y-47499989D01*
X69603189Y-55358602D02*
X69603189Y-54641398D01*
X69603189Y-54641398D02*
X70000000Y-54244587D01*
X70000000Y-59000000D02*
X70000000Y-55755413D01*
X70000000Y-49768694D02*
X71968706Y-47799988D01*
X70000000Y-55755413D02*
X69603189Y-55358602D01*
X70000000Y-54244587D02*
X70000000Y-49768694D01*
X70053200Y-54827798D02*
X70662800Y-54218198D01*
X71085551Y-59585551D02*
X70662800Y-59162800D01*
X70662800Y-50087189D02*
X71750000Y-48999989D01*
X72492673Y-48999989D02*
X72599762Y-49107078D01*
X70662800Y-59162800D02*
X70662800Y-55781802D01*
X70662800Y-55781802D02*
X70053200Y-55172202D01*
X70053200Y-55172202D02*
X70053200Y-54827798D01*
X70662800Y-54218198D02*
X70662800Y-50087189D01*
X71750000Y-48999989D02*
X72492673Y-48999989D01*
X74879200Y-54305198D02*
X74883999Y-54300399D01*
X74883999Y-54300399D02*
X75183998Y-54000400D01*
X74879200Y-57149310D02*
X74879200Y-54305198D01*
X72625010Y-59403500D02*
X74879200Y-57149310D01*
X78500000Y-45500000D02*
X75006400Y-45500000D01*
X75006400Y-45500000D02*
X75000000Y-45506400D01*
X75000000Y-45506400D02*
X75000000Y-46620000D01*
X82500000Y-52833348D02*
X82500000Y-47987828D01*
X88841010Y-58047662D02*
X88144738Y-57351390D01*
X81106392Y-59728610D02*
X88144738Y-59728610D01*
X88144738Y-57351390D02*
X87018042Y-57351390D01*
X66460001Y-74375001D02*
X81106392Y-59728610D01*
X58800003Y-74375001D02*
X66460001Y-74375001D01*
X88144738Y-59728610D02*
X88841010Y-59032338D01*
X50725002Y-66300000D02*
X58800003Y-74375001D01*
X49650000Y-65500000D02*
X50450000Y-66300000D01*
X87018042Y-57351390D02*
X82500000Y-52833348D01*
X88841010Y-59032338D02*
X88841010Y-58047662D01*
X50450000Y-66300000D02*
X50725002Y-66300000D01*
X82500000Y-47987828D02*
X82500000Y-47000000D01*
X49000000Y-65500000D02*
X49650000Y-65500000D01*
X54000000Y-71000000D02*
X53375010Y-70375010D01*
X53375010Y-70375010D02*
X47987559Y-70375010D01*
X47987559Y-70375010D02*
X46080000Y-68467451D01*
X46080000Y-68467451D02*
X46080000Y-67797828D01*
X46080000Y-67797828D02*
X46080000Y-66810000D01*
X52850000Y-40200000D02*
X52750000Y-40200000D01*
X55374999Y-44310001D02*
X55374999Y-42724999D01*
X55647559Y-44582561D02*
X55374999Y-44310001D01*
X55647559Y-56224990D02*
X55647559Y-44582561D01*
X55134990Y-63522441D02*
X55134990Y-56737559D01*
X66012441Y-72375010D02*
X63987559Y-72375010D01*
X65000000Y-69500000D02*
X65650000Y-69500000D01*
X66525010Y-71862441D02*
X66012441Y-72375010D01*
X55374999Y-42724999D02*
X52850000Y-40200000D01*
X66525010Y-70375010D02*
X66525010Y-71862441D01*
X65650000Y-69500000D02*
X66525010Y-70375010D01*
X63987559Y-72375010D02*
X55134990Y-63522441D01*
X55134990Y-56737559D02*
X55647559Y-56224990D01*
X49000000Y-61500000D02*
X50450000Y-61500000D01*
X50450000Y-61500000D02*
X51134990Y-60815010D01*
X51134990Y-53290012D02*
X55125001Y-49300001D01*
X55125001Y-49300001D02*
X55125001Y-46675001D01*
X51134990Y-60815010D02*
X51134990Y-53290012D01*
X55125001Y-46675001D02*
X52750000Y-44300000D01*
X52750000Y-44300000D02*
X52750000Y-43400000D01*
X51500000Y-64500000D02*
X50500000Y-63500000D01*
X50500000Y-63500000D02*
X49000000Y-63500000D01*
X54000000Y-64500000D02*
X51500000Y-64500000D01*
X49000000Y-63500000D02*
X49650000Y-63500000D01*
X50500000Y-68500000D02*
X50000000Y-68500000D01*
X50000000Y-68500000D02*
X49000000Y-67500000D01*
X49000000Y-69500000D02*
X50750000Y-69500000D01*
X50750000Y-69500000D02*
X51000000Y-69250000D01*
X67665600Y-52849864D02*
X67665600Y-52425600D01*
X67425030Y-53090434D02*
X67665600Y-52849864D01*
X67425030Y-65724970D02*
X67425030Y-53090434D01*
X65000000Y-67500000D02*
X65650000Y-67500000D01*
X65650000Y-67500000D02*
X67425030Y-65724970D01*
X67425030Y-65724970D02*
X65000000Y-67500000D01*
X53589329Y-37575011D02*
X54013593Y-37575011D01*
X49924989Y-37575011D02*
X53589329Y-37575011D01*
X47000000Y-40500000D02*
X49924989Y-37575011D01*
D11*
G36*
X48739225Y-40850000D02*
X48777576Y-41053818D01*
X48898032Y-41241012D01*
X49081827Y-41366594D01*
X49300000Y-41410775D01*
X50800000Y-41410775D01*
X51003818Y-41372424D01*
X51191012Y-41251968D01*
X51316594Y-41068173D01*
X51360775Y-40850000D01*
X51360775Y-39943819D01*
X51439225Y-39865369D01*
X51439225Y-40850000D01*
X51477576Y-41053818D01*
X51598032Y-41241012D01*
X51781827Y-41366594D01*
X52000000Y-41410775D01*
X53106181Y-41410775D01*
X54699999Y-43004593D01*
X54699999Y-44310001D01*
X54751380Y-44568313D01*
X54897702Y-44787298D01*
X54972559Y-44862155D01*
X54972559Y-45567965D01*
X53870050Y-44465456D01*
X53891012Y-44451968D01*
X54016594Y-44268173D01*
X54060775Y-44050000D01*
X54060775Y-42750000D01*
X54022424Y-42546182D01*
X53901968Y-42358988D01*
X53718173Y-42233406D01*
X53500000Y-42189225D01*
X52000000Y-42189225D01*
X51796182Y-42227576D01*
X51608988Y-42348032D01*
X51483406Y-42531827D01*
X51439225Y-42750000D01*
X51439225Y-44050000D01*
X51477576Y-44253818D01*
X51598032Y-44441012D01*
X51781827Y-44566594D01*
X52000000Y-44610775D01*
X52161436Y-44610775D01*
X52272703Y-44777297D01*
X54450001Y-46954595D01*
X54450001Y-47579681D01*
X51932124Y-45481451D01*
X51842838Y-45432860D01*
X51758311Y-45376381D01*
X51727966Y-45370345D01*
X51700791Y-45355556D01*
X51599703Y-45344832D01*
X51500000Y-45325000D01*
X47027210Y-45325000D01*
X46982115Y-45279826D01*
X46669817Y-45150148D01*
X46331666Y-45149853D01*
X46019143Y-45278985D01*
X45779826Y-45517885D01*
X45650148Y-45830183D01*
X45649853Y-46168334D01*
X45778985Y-46480857D01*
X46017885Y-46720174D01*
X46330183Y-46849852D01*
X46668334Y-46850147D01*
X46980857Y-46721015D01*
X47026952Y-46675000D01*
X51255617Y-46675000D01*
X53651027Y-48671175D01*
X53778985Y-48980857D01*
X54017885Y-49220174D01*
X54182062Y-49288346D01*
X50657693Y-52812715D01*
X50511371Y-53031700D01*
X50488513Y-53146615D01*
X50459990Y-53290012D01*
X50459990Y-58686541D01*
X50235425Y-58489081D01*
X49804000Y-58342000D01*
X49154000Y-58342000D01*
X49154000Y-59346000D01*
X49174000Y-59346000D01*
X49174000Y-59654000D01*
X49154000Y-59654000D01*
X49154000Y-59674000D01*
X48846000Y-59674000D01*
X48846000Y-59654000D01*
X48826000Y-59654000D01*
X48826000Y-59346000D01*
X48846000Y-59346000D01*
X48846000Y-58342000D01*
X48196000Y-58342000D01*
X47764575Y-58489081D01*
X47422276Y-58790065D01*
X47328680Y-58984852D01*
X47328717Y-58942747D01*
X47139044Y-58483705D01*
X46788142Y-58132190D01*
X46329432Y-57941717D01*
X45832747Y-57941283D01*
X45373705Y-58130956D01*
X45022190Y-58481858D01*
X44831717Y-58940568D01*
X44831283Y-59437253D01*
X45020956Y-59896295D01*
X45371858Y-60247810D01*
X45830568Y-60438283D01*
X46327253Y-60438717D01*
X46786295Y-60249044D01*
X47137810Y-59898142D01*
X47239186Y-59654002D01*
X47355856Y-59654002D01*
X47240507Y-59831646D01*
X47422276Y-60209935D01*
X47764575Y-60510919D01*
X47823839Y-60531123D01*
X47537898Y-60722183D01*
X47299448Y-61079048D01*
X47215715Y-61500000D01*
X47299448Y-61920952D01*
X47537898Y-62277817D01*
X47870418Y-62500000D01*
X47537898Y-62722183D01*
X47299448Y-63079048D01*
X47215715Y-63500000D01*
X47299448Y-63920952D01*
X47537898Y-64277817D01*
X47870418Y-64500000D01*
X47537898Y-64722183D01*
X47299448Y-65079048D01*
X47215715Y-65500000D01*
X47299448Y-65920952D01*
X47537898Y-66277817D01*
X47870418Y-66500000D01*
X47537898Y-66722183D01*
X47328304Y-67035863D01*
X47328717Y-66562747D01*
X47139044Y-66103705D01*
X46788142Y-65752190D01*
X46329432Y-65561717D01*
X45832747Y-65561283D01*
X45373705Y-65750956D01*
X45022190Y-66101858D01*
X44831717Y-66560568D01*
X44831310Y-67026716D01*
X44425000Y-66620406D01*
X44425000Y-59027210D01*
X44470174Y-58982115D01*
X44599852Y-58669817D01*
X44600147Y-58331666D01*
X44471015Y-58019143D01*
X44232115Y-57779826D01*
X43919817Y-57650148D01*
X43581666Y-57649853D01*
X43269143Y-57778985D01*
X43029826Y-58017885D01*
X42900148Y-58330183D01*
X42899853Y-58668334D01*
X43028985Y-58980857D01*
X43075000Y-59026952D01*
X43075000Y-66900000D01*
X43126381Y-67158312D01*
X43272703Y-67377297D01*
X47245528Y-71350122D01*
X47215715Y-71500000D01*
X47299448Y-71920952D01*
X47537898Y-72277817D01*
X47870418Y-72500000D01*
X47651123Y-72646529D01*
X42360798Y-67356204D01*
X42225523Y-67265815D01*
X42322556Y-66969141D01*
X42282783Y-66450908D01*
X42160981Y-66156852D01*
X41936213Y-66091576D01*
X41217789Y-66810000D01*
X41231931Y-66824142D01*
X41014142Y-67041931D01*
X41000000Y-67027789D01*
X40985858Y-67041931D01*
X40768069Y-66824142D01*
X40782211Y-66810000D01*
X40768069Y-66795858D01*
X40985858Y-66578069D01*
X41000000Y-66592211D01*
X41718424Y-65873787D01*
X41653148Y-65649019D01*
X41159141Y-65487444D01*
X40640908Y-65527217D01*
X40474990Y-65595942D01*
X40474990Y-60392891D01*
X40840859Y-60512556D01*
X41359092Y-60472783D01*
X41653148Y-60350981D01*
X41718424Y-60126213D01*
X41000000Y-59407789D01*
X40985858Y-59421931D01*
X40768069Y-59204142D01*
X40782211Y-59190000D01*
X41217789Y-59190000D01*
X41936213Y-59908424D01*
X42160981Y-59843148D01*
X42322556Y-59349141D01*
X42282783Y-58830908D01*
X42160981Y-58536852D01*
X41936213Y-58471576D01*
X41217789Y-59190000D01*
X40782211Y-59190000D01*
X40768069Y-59175858D01*
X40985858Y-58958069D01*
X41000000Y-58972211D01*
X41718424Y-58253787D01*
X41653148Y-58029019D01*
X41159141Y-57867444D01*
X40640908Y-57907217D01*
X40474990Y-57975942D01*
X40474990Y-57715974D01*
X40800859Y-57822556D01*
X41319092Y-57782783D01*
X41613148Y-57660981D01*
X41678424Y-57436213D01*
X40960000Y-56717789D01*
X40945858Y-56731931D01*
X40728069Y-56514142D01*
X40742211Y-56500000D01*
X41177789Y-56500000D01*
X41896213Y-57218424D01*
X42120981Y-57153148D01*
X42253737Y-56747253D01*
X44791283Y-56747253D01*
X44980956Y-57206295D01*
X45331858Y-57557810D01*
X45790568Y-57748283D01*
X46287253Y-57748717D01*
X46746295Y-57559044D01*
X47097810Y-57208142D01*
X47288283Y-56749432D01*
X47288717Y-56252747D01*
X47099044Y-55793705D01*
X46748142Y-55442190D01*
X46289432Y-55251717D01*
X45792747Y-55251283D01*
X45333705Y-55440956D01*
X44982190Y-55791858D01*
X44791717Y-56250568D01*
X44791283Y-56747253D01*
X42253737Y-56747253D01*
X42282556Y-56659141D01*
X42242783Y-56140908D01*
X42120981Y-55846852D01*
X41896213Y-55781576D01*
X41177789Y-56500000D01*
X40742211Y-56500000D01*
X40728069Y-56485858D01*
X40945858Y-56268069D01*
X40960000Y-56282211D01*
X41678424Y-55563787D01*
X41613148Y-55339019D01*
X41119141Y-55177444D01*
X40600908Y-55217217D01*
X40474990Y-55269374D01*
X40474990Y-50095974D01*
X40800859Y-50202556D01*
X41319092Y-50162783D01*
X41399887Y-50129317D01*
X41399853Y-50168334D01*
X41528985Y-50480857D01*
X41767885Y-50720174D01*
X42080183Y-50849852D01*
X42418334Y-50850147D01*
X42730857Y-50721015D01*
X42970174Y-50482115D01*
X42970208Y-50482034D01*
X42977297Y-50477297D01*
X44791689Y-48662905D01*
X44791283Y-49127253D01*
X44980956Y-49586295D01*
X45331858Y-49937810D01*
X45790568Y-50128283D01*
X46287253Y-50128717D01*
X46746295Y-49939044D01*
X47097810Y-49588142D01*
X47288283Y-49129432D01*
X47288717Y-48632747D01*
X47099044Y-48173705D01*
X46748142Y-47822190D01*
X46289432Y-47631717D01*
X45849886Y-47631333D01*
X45850147Y-47331666D01*
X45721015Y-47019143D01*
X45482115Y-46779826D01*
X45169817Y-46650148D01*
X44831666Y-46649853D01*
X44519143Y-46778985D01*
X44279826Y-47017885D01*
X44150148Y-47330183D01*
X44150091Y-47395315D01*
X42395279Y-49150127D01*
X42246298Y-49149997D01*
X42282556Y-49039141D01*
X42242783Y-48520908D01*
X42120981Y-48226852D01*
X41896213Y-48161576D01*
X41177789Y-48880000D01*
X41191931Y-48894142D01*
X40974142Y-49111931D01*
X40960000Y-49097789D01*
X40945858Y-49111931D01*
X40728069Y-48894142D01*
X40742211Y-48880000D01*
X40728069Y-48865858D01*
X40945858Y-48648069D01*
X40960000Y-48662211D01*
X41678424Y-47943787D01*
X41613148Y-47719019D01*
X41119141Y-47557444D01*
X40600908Y-47597217D01*
X40474990Y-47649374D01*
X40474990Y-47024425D01*
X40599042Y-47049100D01*
X41200958Y-47049100D01*
X41602776Y-46969174D01*
X41943420Y-46741562D01*
X41988497Y-46674100D01*
X42750000Y-46674100D01*
X43008312Y-46622719D01*
X43227297Y-46476397D01*
X43522074Y-46181620D01*
X43600000Y-46197120D01*
X43992251Y-46119097D01*
X44324784Y-45896904D01*
X44546977Y-45564371D01*
X44625000Y-45172120D01*
X44625000Y-44826080D01*
X44567322Y-44536111D01*
X44619405Y-44514537D01*
X44790438Y-44343504D01*
X44883000Y-44120038D01*
X44883000Y-44051100D01*
X44731000Y-43899100D01*
X44332264Y-43899100D01*
X44478818Y-43871524D01*
X44666012Y-43751068D01*
X44701520Y-43699100D01*
X44731000Y-43699100D01*
X44883000Y-43547100D01*
X44883000Y-43478162D01*
X44833728Y-43359208D01*
X44835775Y-43349100D01*
X44835775Y-42949100D01*
X44811391Y-42819511D01*
X44835775Y-42699100D01*
X44835775Y-42299100D01*
X44811391Y-42169511D01*
X44835775Y-42049100D01*
X44835775Y-41874100D01*
X44879506Y-41874100D01*
X45509849Y-42504443D01*
X45403320Y-43040000D01*
X45522525Y-43639282D01*
X45861991Y-44147329D01*
X46370038Y-44486795D01*
X46969320Y-44606000D01*
X47030680Y-44606000D01*
X47629962Y-44486795D01*
X48138009Y-44147329D01*
X48432895Y-43706000D01*
X48692000Y-43706000D01*
X48692000Y-44170938D01*
X48784562Y-44394404D01*
X48955595Y-44565437D01*
X49179061Y-44658000D01*
X49744000Y-44658000D01*
X49896000Y-44506000D01*
X49896000Y-43554000D01*
X50204000Y-43554000D01*
X50204000Y-44506000D01*
X50356000Y-44658000D01*
X50920939Y-44658000D01*
X51144405Y-44565437D01*
X51315438Y-44394404D01*
X51408000Y-44170938D01*
X51408000Y-43706000D01*
X51256000Y-43554000D01*
X50204000Y-43554000D01*
X49896000Y-43554000D01*
X48844000Y-43554000D01*
X48692000Y-43706000D01*
X48432895Y-43706000D01*
X48477475Y-43639282D01*
X48596680Y-43040000D01*
X48514940Y-42629062D01*
X48692000Y-42629062D01*
X48692000Y-43094000D01*
X48844000Y-43246000D01*
X49896000Y-43246000D01*
X49896000Y-42294000D01*
X50204000Y-42294000D01*
X50204000Y-43246000D01*
X51256000Y-43246000D01*
X51408000Y-43094000D01*
X51408000Y-42629062D01*
X51315438Y-42405596D01*
X51144405Y-42234563D01*
X50920939Y-42142000D01*
X50356000Y-42142000D01*
X50204000Y-42294000D01*
X49896000Y-42294000D01*
X49744000Y-42142000D01*
X49179061Y-42142000D01*
X48955595Y-42234563D01*
X48784562Y-42405596D01*
X48692000Y-42629062D01*
X48514940Y-42629062D01*
X48477475Y-42440718D01*
X48209916Y-42040287D01*
X48219818Y-42038424D01*
X48407012Y-41917968D01*
X48532594Y-41734173D01*
X48576775Y-41516000D01*
X48576775Y-39877819D01*
X48739225Y-39715369D01*
X48739225Y-40850000D01*
X48739225Y-40850000D01*
G37*
X48739225Y-40850000D02*
X48777576Y-41053818D01*
X48898032Y-41241012D01*
X49081827Y-41366594D01*
X49300000Y-41410775D01*
X50800000Y-41410775D01*
X51003818Y-41372424D01*
X51191012Y-41251968D01*
X51316594Y-41068173D01*
X51360775Y-40850000D01*
X51360775Y-39943819D01*
X51439225Y-39865369D01*
X51439225Y-40850000D01*
X51477576Y-41053818D01*
X51598032Y-41241012D01*
X51781827Y-41366594D01*
X52000000Y-41410775D01*
X53106181Y-41410775D01*
X54699999Y-43004593D01*
X54699999Y-44310001D01*
X54751380Y-44568313D01*
X54897702Y-44787298D01*
X54972559Y-44862155D01*
X54972559Y-45567965D01*
X53870050Y-44465456D01*
X53891012Y-44451968D01*
X54016594Y-44268173D01*
X54060775Y-44050000D01*
X54060775Y-42750000D01*
X54022424Y-42546182D01*
X53901968Y-42358988D01*
X53718173Y-42233406D01*
X53500000Y-42189225D01*
X52000000Y-42189225D01*
X51796182Y-42227576D01*
X51608988Y-42348032D01*
X51483406Y-42531827D01*
X51439225Y-42750000D01*
X51439225Y-44050000D01*
X51477576Y-44253818D01*
X51598032Y-44441012D01*
X51781827Y-44566594D01*
X52000000Y-44610775D01*
X52161436Y-44610775D01*
X52272703Y-44777297D01*
X54450001Y-46954595D01*
X54450001Y-47579681D01*
X51932124Y-45481451D01*
X51842838Y-45432860D01*
X51758311Y-45376381D01*
X51727966Y-45370345D01*
X51700791Y-45355556D01*
X51599703Y-45344832D01*
X51500000Y-45325000D01*
X47027210Y-45325000D01*
X46982115Y-45279826D01*
X46669817Y-45150148D01*
X46331666Y-45149853D01*
X46019143Y-45278985D01*
X45779826Y-45517885D01*
X45650148Y-45830183D01*
X45649853Y-46168334D01*
X45778985Y-46480857D01*
X46017885Y-46720174D01*
X46330183Y-46849852D01*
X46668334Y-46850147D01*
X46980857Y-46721015D01*
X47026952Y-46675000D01*
X51255617Y-46675000D01*
X53651027Y-48671175D01*
X53778985Y-48980857D01*
X54017885Y-49220174D01*
X54182062Y-49288346D01*
X50657693Y-52812715D01*
X50511371Y-53031700D01*
X50488513Y-53146615D01*
X50459990Y-53290012D01*
X50459990Y-58686541D01*
X50235425Y-58489081D01*
X49804000Y-58342000D01*
X49154000Y-58342000D01*
X49154000Y-59346000D01*
X49174000Y-59346000D01*
X49174000Y-59654000D01*
X49154000Y-59654000D01*
X49154000Y-59674000D01*
X48846000Y-59674000D01*
X48846000Y-59654000D01*
X48826000Y-59654000D01*
X48826000Y-59346000D01*
X48846000Y-59346000D01*
X48846000Y-58342000D01*
X48196000Y-58342000D01*
X47764575Y-58489081D01*
X47422276Y-58790065D01*
X47328680Y-58984852D01*
X47328717Y-58942747D01*
X47139044Y-58483705D01*
X46788142Y-58132190D01*
X46329432Y-57941717D01*
X45832747Y-57941283D01*
X45373705Y-58130956D01*
X45022190Y-58481858D01*
X44831717Y-58940568D01*
X44831283Y-59437253D01*
X45020956Y-59896295D01*
X45371858Y-60247810D01*
X45830568Y-60438283D01*
X46327253Y-60438717D01*
X46786295Y-60249044D01*
X47137810Y-59898142D01*
X47239186Y-59654002D01*
X47355856Y-59654002D01*
X47240507Y-59831646D01*
X47422276Y-60209935D01*
X47764575Y-60510919D01*
X47823839Y-60531123D01*
X47537898Y-60722183D01*
X47299448Y-61079048D01*
X47215715Y-61500000D01*
X47299448Y-61920952D01*
X47537898Y-62277817D01*
X47870418Y-62500000D01*
X47537898Y-62722183D01*
X47299448Y-63079048D01*
X47215715Y-63500000D01*
X47299448Y-63920952D01*
X47537898Y-64277817D01*
X47870418Y-64500000D01*
X47537898Y-64722183D01*
X47299448Y-65079048D01*
X47215715Y-65500000D01*
X47299448Y-65920952D01*
X47537898Y-66277817D01*
X47870418Y-66500000D01*
X47537898Y-66722183D01*
X47328304Y-67035863D01*
X47328717Y-66562747D01*
X47139044Y-66103705D01*
X46788142Y-65752190D01*
X46329432Y-65561717D01*
X45832747Y-65561283D01*
X45373705Y-65750956D01*
X45022190Y-66101858D01*
X44831717Y-66560568D01*
X44831310Y-67026716D01*
X44425000Y-66620406D01*
X44425000Y-59027210D01*
X44470174Y-58982115D01*
X44599852Y-58669817D01*
X44600147Y-58331666D01*
X44471015Y-58019143D01*
X44232115Y-57779826D01*
X43919817Y-57650148D01*
X43581666Y-57649853D01*
X43269143Y-57778985D01*
X43029826Y-58017885D01*
X42900148Y-58330183D01*
X42899853Y-58668334D01*
X43028985Y-58980857D01*
X43075000Y-59026952D01*
X43075000Y-66900000D01*
X43126381Y-67158312D01*
X43272703Y-67377297D01*
X47245528Y-71350122D01*
X47215715Y-71500000D01*
X47299448Y-71920952D01*
X47537898Y-72277817D01*
X47870418Y-72500000D01*
X47651123Y-72646529D01*
X42360798Y-67356204D01*
X42225523Y-67265815D01*
X42322556Y-66969141D01*
X42282783Y-66450908D01*
X42160981Y-66156852D01*
X41936213Y-66091576D01*
X41217789Y-66810000D01*
X41231931Y-66824142D01*
X41014142Y-67041931D01*
X41000000Y-67027789D01*
X40985858Y-67041931D01*
X40768069Y-66824142D01*
X40782211Y-66810000D01*
X40768069Y-66795858D01*
X40985858Y-66578069D01*
X41000000Y-66592211D01*
X41718424Y-65873787D01*
X41653148Y-65649019D01*
X41159141Y-65487444D01*
X40640908Y-65527217D01*
X40474990Y-65595942D01*
X40474990Y-60392891D01*
X40840859Y-60512556D01*
X41359092Y-60472783D01*
X41653148Y-60350981D01*
X41718424Y-60126213D01*
X41000000Y-59407789D01*
X40985858Y-59421931D01*
X40768069Y-59204142D01*
X40782211Y-59190000D01*
X41217789Y-59190000D01*
X41936213Y-59908424D01*
X42160981Y-59843148D01*
X42322556Y-59349141D01*
X42282783Y-58830908D01*
X42160981Y-58536852D01*
X41936213Y-58471576D01*
X41217789Y-59190000D01*
X40782211Y-59190000D01*
X40768069Y-59175858D01*
X40985858Y-58958069D01*
X41000000Y-58972211D01*
X41718424Y-58253787D01*
X41653148Y-58029019D01*
X41159141Y-57867444D01*
X40640908Y-57907217D01*
X40474990Y-57975942D01*
X40474990Y-57715974D01*
X40800859Y-57822556D01*
X41319092Y-57782783D01*
X41613148Y-57660981D01*
X41678424Y-57436213D01*
X40960000Y-56717789D01*
X40945858Y-56731931D01*
X40728069Y-56514142D01*
X40742211Y-56500000D01*
X41177789Y-56500000D01*
X41896213Y-57218424D01*
X42120981Y-57153148D01*
X42253737Y-56747253D01*
X44791283Y-56747253D01*
X44980956Y-57206295D01*
X45331858Y-57557810D01*
X45790568Y-57748283D01*
X46287253Y-57748717D01*
X46746295Y-57559044D01*
X47097810Y-57208142D01*
X47288283Y-56749432D01*
X47288717Y-56252747D01*
X47099044Y-55793705D01*
X46748142Y-55442190D01*
X46289432Y-55251717D01*
X45792747Y-55251283D01*
X45333705Y-55440956D01*
X44982190Y-55791858D01*
X44791717Y-56250568D01*
X44791283Y-56747253D01*
X42253737Y-56747253D01*
X42282556Y-56659141D01*
X42242783Y-56140908D01*
X42120981Y-55846852D01*
X41896213Y-55781576D01*
X41177789Y-56500000D01*
X40742211Y-56500000D01*
X40728069Y-56485858D01*
X40945858Y-56268069D01*
X40960000Y-56282211D01*
X41678424Y-55563787D01*
X41613148Y-55339019D01*
X41119141Y-55177444D01*
X40600908Y-55217217D01*
X40474990Y-55269374D01*
X40474990Y-50095974D01*
X40800859Y-50202556D01*
X41319092Y-50162783D01*
X41399887Y-50129317D01*
X41399853Y-50168334D01*
X41528985Y-50480857D01*
X41767885Y-50720174D01*
X42080183Y-50849852D01*
X42418334Y-50850147D01*
X42730857Y-50721015D01*
X42970174Y-50482115D01*
X42970208Y-50482034D01*
X42977297Y-50477297D01*
X44791689Y-48662905D01*
X44791283Y-49127253D01*
X44980956Y-49586295D01*
X45331858Y-49937810D01*
X45790568Y-50128283D01*
X46287253Y-50128717D01*
X46746295Y-49939044D01*
X47097810Y-49588142D01*
X47288283Y-49129432D01*
X47288717Y-48632747D01*
X47099044Y-48173705D01*
X46748142Y-47822190D01*
X46289432Y-47631717D01*
X45849886Y-47631333D01*
X45850147Y-47331666D01*
X45721015Y-47019143D01*
X45482115Y-46779826D01*
X45169817Y-46650148D01*
X44831666Y-46649853D01*
X44519143Y-46778985D01*
X44279826Y-47017885D01*
X44150148Y-47330183D01*
X44150091Y-47395315D01*
X42395279Y-49150127D01*
X42246298Y-49149997D01*
X42282556Y-49039141D01*
X42242783Y-48520908D01*
X42120981Y-48226852D01*
X41896213Y-48161576D01*
X41177789Y-48880000D01*
X41191931Y-48894142D01*
X40974142Y-49111931D01*
X40960000Y-49097789D01*
X40945858Y-49111931D01*
X40728069Y-48894142D01*
X40742211Y-48880000D01*
X40728069Y-48865858D01*
X40945858Y-48648069D01*
X40960000Y-48662211D01*
X41678424Y-47943787D01*
X41613148Y-47719019D01*
X41119141Y-47557444D01*
X40600908Y-47597217D01*
X40474990Y-47649374D01*
X40474990Y-47024425D01*
X40599042Y-47049100D01*
X41200958Y-47049100D01*
X41602776Y-46969174D01*
X41943420Y-46741562D01*
X41988497Y-46674100D01*
X42750000Y-46674100D01*
X43008312Y-46622719D01*
X43227297Y-46476397D01*
X43522074Y-46181620D01*
X43600000Y-46197120D01*
X43992251Y-46119097D01*
X44324784Y-45896904D01*
X44546977Y-45564371D01*
X44625000Y-45172120D01*
X44625000Y-44826080D01*
X44567322Y-44536111D01*
X44619405Y-44514537D01*
X44790438Y-44343504D01*
X44883000Y-44120038D01*
X44883000Y-44051100D01*
X44731000Y-43899100D01*
X44332264Y-43899100D01*
X44478818Y-43871524D01*
X44666012Y-43751068D01*
X44701520Y-43699100D01*
X44731000Y-43699100D01*
X44883000Y-43547100D01*
X44883000Y-43478162D01*
X44833728Y-43359208D01*
X44835775Y-43349100D01*
X44835775Y-42949100D01*
X44811391Y-42819511D01*
X44835775Y-42699100D01*
X44835775Y-42299100D01*
X44811391Y-42169511D01*
X44835775Y-42049100D01*
X44835775Y-41874100D01*
X44879506Y-41874100D01*
X45509849Y-42504443D01*
X45403320Y-43040000D01*
X45522525Y-43639282D01*
X45861991Y-44147329D01*
X46370038Y-44486795D01*
X46969320Y-44606000D01*
X47030680Y-44606000D01*
X47629962Y-44486795D01*
X48138009Y-44147329D01*
X48432895Y-43706000D01*
X48692000Y-43706000D01*
X48692000Y-44170938D01*
X48784562Y-44394404D01*
X48955595Y-44565437D01*
X49179061Y-44658000D01*
X49744000Y-44658000D01*
X49896000Y-44506000D01*
X49896000Y-43554000D01*
X50204000Y-43554000D01*
X50204000Y-44506000D01*
X50356000Y-44658000D01*
X50920939Y-44658000D01*
X51144405Y-44565437D01*
X51315438Y-44394404D01*
X51408000Y-44170938D01*
X51408000Y-43706000D01*
X51256000Y-43554000D01*
X50204000Y-43554000D01*
X49896000Y-43554000D01*
X48844000Y-43554000D01*
X48692000Y-43706000D01*
X48432895Y-43706000D01*
X48477475Y-43639282D01*
X48596680Y-43040000D01*
X48514940Y-42629062D01*
X48692000Y-42629062D01*
X48692000Y-43094000D01*
X48844000Y-43246000D01*
X49896000Y-43246000D01*
X49896000Y-42294000D01*
X50204000Y-42294000D01*
X50204000Y-43246000D01*
X51256000Y-43246000D01*
X51408000Y-43094000D01*
X51408000Y-42629062D01*
X51315438Y-42405596D01*
X51144405Y-42234563D01*
X50920939Y-42142000D01*
X50356000Y-42142000D01*
X50204000Y-42294000D01*
X49896000Y-42294000D01*
X49744000Y-42142000D01*
X49179061Y-42142000D01*
X48955595Y-42234563D01*
X48784562Y-42405596D01*
X48692000Y-42629062D01*
X48514940Y-42629062D01*
X48477475Y-42440718D01*
X48209916Y-42040287D01*
X48219818Y-42038424D01*
X48407012Y-41917968D01*
X48532594Y-41734173D01*
X48576775Y-41516000D01*
X48576775Y-39877819D01*
X48739225Y-39715369D01*
X48739225Y-40850000D01*
G36*
X58374000Y-34846000D02*
X58394000Y-34846000D01*
X58394000Y-35154000D01*
X58374000Y-35154000D01*
X58374000Y-36462983D01*
X58601049Y-36573811D01*
X59083641Y-36343822D01*
X59473838Y-35922629D01*
X59514071Y-35813937D01*
X59760434Y-36182646D01*
X60219039Y-36489076D01*
X60760000Y-36596680D01*
X61300961Y-36489076D01*
X61759566Y-36182646D01*
X62030000Y-35777913D01*
X62300434Y-36182646D01*
X62759039Y-36489076D01*
X63300000Y-36596680D01*
X63840961Y-36489076D01*
X64299566Y-36182646D01*
X64570000Y-35777913D01*
X64840434Y-36182646D01*
X65299039Y-36489076D01*
X65840000Y-36596680D01*
X66380961Y-36489076D01*
X66839566Y-36182646D01*
X67110000Y-35777913D01*
X67380434Y-36182646D01*
X67839039Y-36489076D01*
X68380000Y-36596680D01*
X68920961Y-36489076D01*
X69379566Y-36182646D01*
X69650000Y-35777913D01*
X69920434Y-36182646D01*
X69930818Y-36189584D01*
X68984003Y-37136399D01*
X61638601Y-37136399D01*
X61380289Y-37187780D01*
X61161304Y-37334102D01*
X59506181Y-38989225D01*
X58400000Y-38989225D01*
X58196182Y-39027576D01*
X58008988Y-39148032D01*
X57883406Y-39331827D01*
X57839225Y-39550000D01*
X57839225Y-40850000D01*
X57877576Y-41053818D01*
X57998032Y-41241012D01*
X58181827Y-41366594D01*
X58400000Y-41410775D01*
X59900000Y-41410775D01*
X60103818Y-41372424D01*
X60291012Y-41251968D01*
X60416594Y-41068173D01*
X60460775Y-40850000D01*
X60460775Y-39943819D01*
X60498212Y-39906382D01*
X60528985Y-39980857D01*
X60767885Y-40220174D01*
X60950001Y-40295795D01*
X60950001Y-42270407D01*
X60657693Y-42562715D01*
X60511371Y-42781700D01*
X60508000Y-42798647D01*
X60508000Y-42629062D01*
X60415438Y-42405596D01*
X60244405Y-42234563D01*
X60020939Y-42142000D01*
X59456000Y-42142000D01*
X59304000Y-42294000D01*
X59304000Y-43246000D01*
X59324000Y-43246000D01*
X59324000Y-43554000D01*
X59304000Y-43554000D01*
X59304000Y-44506000D01*
X59456000Y-44658000D01*
X60020939Y-44658000D01*
X60244405Y-44565437D01*
X60415438Y-44394404D01*
X60459990Y-44286845D01*
X60459990Y-56068851D01*
X60430952Y-56049448D01*
X60010000Y-55965715D01*
X59589048Y-56049448D01*
X59232183Y-56287898D01*
X59010000Y-56620418D01*
X58787817Y-56287898D01*
X58430952Y-56049448D01*
X58010000Y-55965715D01*
X57589048Y-56049448D01*
X57560010Y-56068851D01*
X57560010Y-44735010D01*
X57534567Y-44607100D01*
X57513616Y-44501771D01*
X57591012Y-44451968D01*
X57716594Y-44268173D01*
X57760775Y-44050000D01*
X57760775Y-43706000D01*
X57792000Y-43706000D01*
X57792000Y-44170938D01*
X57884562Y-44394404D01*
X58055595Y-44565437D01*
X58279061Y-44658000D01*
X58844000Y-44658000D01*
X58996000Y-44506000D01*
X58996000Y-43554000D01*
X57944000Y-43554000D01*
X57792000Y-43706000D01*
X57760775Y-43706000D01*
X57760775Y-42750000D01*
X57738019Y-42629062D01*
X57792000Y-42629062D01*
X57792000Y-43094000D01*
X57944000Y-43246000D01*
X58996000Y-43246000D01*
X58996000Y-42294000D01*
X58844000Y-42142000D01*
X58279061Y-42142000D01*
X58055595Y-42234563D01*
X57884562Y-42405596D01*
X57792000Y-42629062D01*
X57738019Y-42629062D01*
X57722424Y-42546182D01*
X57601968Y-42358988D01*
X57418173Y-42233406D01*
X57200000Y-42189225D01*
X57125000Y-42189225D01*
X57125000Y-41410775D01*
X57200000Y-41410775D01*
X57403818Y-41372424D01*
X57591012Y-41251968D01*
X57716594Y-41068173D01*
X57760775Y-40850000D01*
X57760775Y-39550000D01*
X57722424Y-39346182D01*
X57601968Y-39158988D01*
X57418173Y-39033406D01*
X57200000Y-38989225D01*
X55700000Y-38989225D01*
X55496182Y-39027576D01*
X55308988Y-39148032D01*
X55183406Y-39331827D01*
X55139225Y-39550000D01*
X55139225Y-40850000D01*
X55177576Y-41053818D01*
X55298032Y-41241012D01*
X55481827Y-41366594D01*
X55700000Y-41410775D01*
X55775000Y-41410775D01*
X55775000Y-42170406D01*
X54060775Y-40456181D01*
X54060775Y-39550000D01*
X54022424Y-39346182D01*
X53901968Y-39158988D01*
X53718173Y-39033406D01*
X53500000Y-38989225D01*
X52315369Y-38989225D01*
X52429582Y-38875012D01*
X54799988Y-38875012D01*
X55058299Y-38823631D01*
X55277285Y-38677309D01*
X55423607Y-38458323D01*
X55474988Y-38200012D01*
X55474988Y-37313338D01*
X55433165Y-37103077D01*
X55423607Y-37055026D01*
X55368577Y-36972669D01*
X56818240Y-35523006D01*
X56966162Y-35922629D01*
X57356359Y-36343822D01*
X57838951Y-36573811D01*
X58066000Y-36462983D01*
X58066000Y-35154000D01*
X58046000Y-35154000D01*
X58046000Y-34846000D01*
X58066000Y-34846000D01*
X58066000Y-34826000D01*
X58374000Y-34826000D01*
X58374000Y-34846000D01*
X58374000Y-34846000D01*
G37*
X58374000Y-34846000D02*
X58394000Y-34846000D01*
X58394000Y-35154000D01*
X58374000Y-35154000D01*
X58374000Y-36462983D01*
X58601049Y-36573811D01*
X59083641Y-36343822D01*
X59473838Y-35922629D01*
X59514071Y-35813937D01*
X59760434Y-36182646D01*
X60219039Y-36489076D01*
X60760000Y-36596680D01*
X61300961Y-36489076D01*
X61759566Y-36182646D01*
X62030000Y-35777913D01*
X62300434Y-36182646D01*
X62759039Y-36489076D01*
X63300000Y-36596680D01*
X63840961Y-36489076D01*
X64299566Y-36182646D01*
X64570000Y-35777913D01*
X64840434Y-36182646D01*
X65299039Y-36489076D01*
X65840000Y-36596680D01*
X66380961Y-36489076D01*
X66839566Y-36182646D01*
X67110000Y-35777913D01*
X67380434Y-36182646D01*
X67839039Y-36489076D01*
X68380000Y-36596680D01*
X68920961Y-36489076D01*
X69379566Y-36182646D01*
X69650000Y-35777913D01*
X69920434Y-36182646D01*
X69930818Y-36189584D01*
X68984003Y-37136399D01*
X61638601Y-37136399D01*
X61380289Y-37187780D01*
X61161304Y-37334102D01*
X59506181Y-38989225D01*
X58400000Y-38989225D01*
X58196182Y-39027576D01*
X58008988Y-39148032D01*
X57883406Y-39331827D01*
X57839225Y-39550000D01*
X57839225Y-40850000D01*
X57877576Y-41053818D01*
X57998032Y-41241012D01*
X58181827Y-41366594D01*
X58400000Y-41410775D01*
X59900000Y-41410775D01*
X60103818Y-41372424D01*
X60291012Y-41251968D01*
X60416594Y-41068173D01*
X60460775Y-40850000D01*
X60460775Y-39943819D01*
X60498212Y-39906382D01*
X60528985Y-39980857D01*
X60767885Y-40220174D01*
X60950001Y-40295795D01*
X60950001Y-42270407D01*
X60657693Y-42562715D01*
X60511371Y-42781700D01*
X60508000Y-42798647D01*
X60508000Y-42629062D01*
X60415438Y-42405596D01*
X60244405Y-42234563D01*
X60020939Y-42142000D01*
X59456000Y-42142000D01*
X59304000Y-42294000D01*
X59304000Y-43246000D01*
X59324000Y-43246000D01*
X59324000Y-43554000D01*
X59304000Y-43554000D01*
X59304000Y-44506000D01*
X59456000Y-44658000D01*
X60020939Y-44658000D01*
X60244405Y-44565437D01*
X60415438Y-44394404D01*
X60459990Y-44286845D01*
X60459990Y-56068851D01*
X60430952Y-56049448D01*
X60010000Y-55965715D01*
X59589048Y-56049448D01*
X59232183Y-56287898D01*
X59010000Y-56620418D01*
X58787817Y-56287898D01*
X58430952Y-56049448D01*
X58010000Y-55965715D01*
X57589048Y-56049448D01*
X57560010Y-56068851D01*
X57560010Y-44735010D01*
X57534567Y-44607100D01*
X57513616Y-44501771D01*
X57591012Y-44451968D01*
X57716594Y-44268173D01*
X57760775Y-44050000D01*
X57760775Y-43706000D01*
X57792000Y-43706000D01*
X57792000Y-44170938D01*
X57884562Y-44394404D01*
X58055595Y-44565437D01*
X58279061Y-44658000D01*
X58844000Y-44658000D01*
X58996000Y-44506000D01*
X58996000Y-43554000D01*
X57944000Y-43554000D01*
X57792000Y-43706000D01*
X57760775Y-43706000D01*
X57760775Y-42750000D01*
X57738019Y-42629062D01*
X57792000Y-42629062D01*
X57792000Y-43094000D01*
X57944000Y-43246000D01*
X58996000Y-43246000D01*
X58996000Y-42294000D01*
X58844000Y-42142000D01*
X58279061Y-42142000D01*
X58055595Y-42234563D01*
X57884562Y-42405596D01*
X57792000Y-42629062D01*
X57738019Y-42629062D01*
X57722424Y-42546182D01*
X57601968Y-42358988D01*
X57418173Y-42233406D01*
X57200000Y-42189225D01*
X57125000Y-42189225D01*
X57125000Y-41410775D01*
X57200000Y-41410775D01*
X57403818Y-41372424D01*
X57591012Y-41251968D01*
X57716594Y-41068173D01*
X57760775Y-40850000D01*
X57760775Y-39550000D01*
X57722424Y-39346182D01*
X57601968Y-39158988D01*
X57418173Y-39033406D01*
X57200000Y-38989225D01*
X55700000Y-38989225D01*
X55496182Y-39027576D01*
X55308988Y-39148032D01*
X55183406Y-39331827D01*
X55139225Y-39550000D01*
X55139225Y-40850000D01*
X55177576Y-41053818D01*
X55298032Y-41241012D01*
X55481827Y-41366594D01*
X55700000Y-41410775D01*
X55775000Y-41410775D01*
X55775000Y-42170406D01*
X54060775Y-40456181D01*
X54060775Y-39550000D01*
X54022424Y-39346182D01*
X53901968Y-39158988D01*
X53718173Y-39033406D01*
X53500000Y-38989225D01*
X52315369Y-38989225D01*
X52429582Y-38875012D01*
X54799988Y-38875012D01*
X55058299Y-38823631D01*
X55277285Y-38677309D01*
X55423607Y-38458323D01*
X55474988Y-38200012D01*
X55474988Y-37313338D01*
X55433165Y-37103077D01*
X55423607Y-37055026D01*
X55368577Y-36972669D01*
X56818240Y-35523006D01*
X56966162Y-35922629D01*
X57356359Y-36343822D01*
X57838951Y-36573811D01*
X58066000Y-36462983D01*
X58066000Y-35154000D01*
X58046000Y-35154000D01*
X58046000Y-34846000D01*
X58066000Y-34846000D01*
X58066000Y-34826000D01*
X58374000Y-34826000D01*
X58374000Y-34846000D01*
G36*
X87654000Y-55846000D02*
X87674000Y-55846000D01*
X87674000Y-56154000D01*
X87654000Y-56154000D01*
X87654000Y-56174000D01*
X87346000Y-56174000D01*
X87346000Y-56154000D01*
X87326000Y-56154000D01*
X87326000Y-55846000D01*
X87346000Y-55846000D01*
X87346000Y-55826000D01*
X87654000Y-55826000D01*
X87654000Y-55846000D01*
X87654000Y-55846000D01*
G37*
X87654000Y-55846000D02*
X87674000Y-55846000D01*
X87674000Y-56154000D01*
X87654000Y-56154000D01*
X87654000Y-56174000D01*
X87346000Y-56174000D01*
X87346000Y-56154000D01*
X87326000Y-56154000D01*
X87326000Y-55846000D01*
X87346000Y-55846000D01*
X87346000Y-55826000D01*
X87654000Y-55826000D01*
X87654000Y-55846000D01*
G36*
X85379202Y-38833796D02*
X85598187Y-38980118D01*
X85856499Y-39031499D01*
X86319378Y-39031499D01*
X86257444Y-39220859D01*
X86297217Y-39739092D01*
X86419019Y-40033148D01*
X86643787Y-40098424D01*
X87362211Y-39380000D01*
X87348069Y-39365858D01*
X87565858Y-39148069D01*
X87580000Y-39162211D01*
X87594142Y-39148069D01*
X87811931Y-39365858D01*
X87797789Y-39380000D01*
X87811931Y-39394142D01*
X87594142Y-39611931D01*
X87580000Y-39597789D01*
X86861576Y-40316213D01*
X86926852Y-40540981D01*
X87420859Y-40702556D01*
X87939092Y-40662783D01*
X88166001Y-40568794D01*
X88166001Y-45817057D01*
X87739141Y-45677444D01*
X87220908Y-45717217D01*
X86926852Y-45839019D01*
X86861576Y-46063787D01*
X87580000Y-46782211D01*
X87594142Y-46768069D01*
X87811931Y-46985858D01*
X87797789Y-47000000D01*
X87811931Y-47014142D01*
X87594142Y-47231931D01*
X87580000Y-47217789D01*
X86861576Y-47936213D01*
X86926852Y-48160981D01*
X87420859Y-48322556D01*
X87939092Y-48282783D01*
X88166001Y-48188794D01*
X88166001Y-49495625D01*
X86484000Y-49495625D01*
X86280182Y-49533976D01*
X86092988Y-49654432D01*
X85967406Y-49838227D01*
X85923225Y-50056400D01*
X85923225Y-51783600D01*
X85961576Y-51987418D01*
X86082032Y-52174612D01*
X86265827Y-52300194D01*
X86484000Y-52344375D01*
X86491049Y-52344375D01*
X86317354Y-52460434D01*
X86010924Y-52919039D01*
X85903320Y-53460000D01*
X86010924Y-54000961D01*
X86317354Y-54459566D01*
X86686063Y-54705929D01*
X86577371Y-54746162D01*
X86156178Y-55136359D01*
X86027537Y-55406291D01*
X83175000Y-52553754D01*
X83175000Y-48071975D01*
X83206295Y-48059044D01*
X83557810Y-47708142D01*
X83748283Y-47249432D01*
X83748640Y-46840859D01*
X86257444Y-46840859D01*
X86297217Y-47359092D01*
X86419019Y-47653148D01*
X86643787Y-47718424D01*
X87362211Y-47000000D01*
X86643787Y-46281576D01*
X86419019Y-46346852D01*
X86257444Y-46840859D01*
X83748640Y-46840859D01*
X83748717Y-46752747D01*
X83559044Y-46293705D01*
X83208142Y-45942190D01*
X82749432Y-45751717D01*
X82252747Y-45751283D01*
X81793705Y-45940956D01*
X81442190Y-46291858D01*
X81251717Y-46750568D01*
X81251283Y-47247253D01*
X81440956Y-47706295D01*
X81791858Y-48057810D01*
X81825000Y-48071572D01*
X81825000Y-52833348D01*
X81876381Y-53091660D01*
X81896787Y-53122200D01*
X76675096Y-53122200D01*
X73349115Y-49796219D01*
X73349171Y-49732388D01*
X73298745Y-49610347D01*
X73319936Y-49589193D01*
X73449614Y-49276895D01*
X73449909Y-48938744D01*
X73320777Y-48626221D01*
X73081877Y-48386904D01*
X72769579Y-48257226D01*
X72662125Y-48257132D01*
X72749562Y-48221004D01*
X72988879Y-47982104D01*
X73077557Y-47768543D01*
X73594921Y-48285907D01*
X73813906Y-48432229D01*
X74072218Y-48483610D01*
X76923225Y-48483610D01*
X76923225Y-48516000D01*
X76961576Y-48719818D01*
X77082032Y-48907012D01*
X77265827Y-49032594D01*
X77291721Y-49037838D01*
X77022525Y-49440718D01*
X76903320Y-50040000D01*
X77022525Y-50639282D01*
X77361991Y-51147329D01*
X77870038Y-51486795D01*
X78469320Y-51606000D01*
X78530680Y-51606000D01*
X79129962Y-51486795D01*
X79638009Y-51147329D01*
X79977475Y-50639282D01*
X80096680Y-50040000D01*
X79977475Y-49440718D01*
X79709916Y-49040287D01*
X79719818Y-49038424D01*
X79907012Y-48917968D01*
X80032594Y-48734173D01*
X80076775Y-48516000D01*
X80076775Y-46484000D01*
X80038424Y-46280182D01*
X79917968Y-46092988D01*
X79734173Y-45967406D01*
X79516000Y-45923225D01*
X79244627Y-45923225D01*
X79349852Y-45669817D01*
X79350147Y-45331666D01*
X79221015Y-45019143D01*
X78982115Y-44779826D01*
X78669817Y-44650148D01*
X78331666Y-44649853D01*
X78019143Y-44778985D01*
X77973048Y-44825000D01*
X76352742Y-44825000D01*
X76489076Y-44620961D01*
X76596680Y-44080000D01*
X76489076Y-43539039D01*
X76182646Y-43080434D01*
X75777913Y-42810000D01*
X76182646Y-42539566D01*
X76489076Y-42080961D01*
X76516118Y-41945009D01*
X76927313Y-41945009D01*
X77101549Y-42365679D01*
X77523973Y-42837992D01*
X78094989Y-43112698D01*
X78346000Y-43004693D01*
X78346000Y-41694000D01*
X78654000Y-41694000D01*
X78654000Y-43004693D01*
X78905011Y-43112698D01*
X79476027Y-42837992D01*
X79898451Y-42365679D01*
X80072687Y-41945009D01*
X79963922Y-41694000D01*
X78654000Y-41694000D01*
X78346000Y-41694000D01*
X77036078Y-41694000D01*
X76927313Y-41945009D01*
X76516118Y-41945009D01*
X76596680Y-41540000D01*
X76489076Y-40999039D01*
X76182646Y-40540434D01*
X76008951Y-40424375D01*
X76016000Y-40424375D01*
X76219818Y-40386024D01*
X76407012Y-40265568D01*
X76532594Y-40081773D01*
X76576775Y-39863600D01*
X76576775Y-38136400D01*
X76557956Y-38036388D01*
X76923225Y-38036388D01*
X76923225Y-40016000D01*
X76961576Y-40219818D01*
X77082032Y-40407012D01*
X77264743Y-40531853D01*
X77101549Y-40714321D01*
X76927313Y-41134991D01*
X77036078Y-41386000D01*
X78346000Y-41386000D01*
X78346000Y-41366000D01*
X78654000Y-41366000D01*
X78654000Y-41386000D01*
X79963922Y-41386000D01*
X80072687Y-41134991D01*
X79898451Y-40714321D01*
X79733347Y-40529718D01*
X79907012Y-40417968D01*
X80032594Y-40234173D01*
X80076775Y-40016000D01*
X80076775Y-39627253D01*
X81251283Y-39627253D01*
X81440956Y-40086295D01*
X81791858Y-40437810D01*
X82250568Y-40628283D01*
X82747253Y-40628717D01*
X83206295Y-40439044D01*
X83557810Y-40088142D01*
X83748283Y-39629432D01*
X83748717Y-39132747D01*
X83559044Y-38673705D01*
X83208142Y-38322190D01*
X82749432Y-38131717D01*
X82252747Y-38131283D01*
X81793705Y-38320956D01*
X81442190Y-38671858D01*
X81251717Y-39130568D01*
X81251283Y-39627253D01*
X80076775Y-39627253D01*
X80076775Y-37984000D01*
X80038424Y-37780182D01*
X79917968Y-37592988D01*
X79734173Y-37467406D01*
X79516000Y-37423225D01*
X79088564Y-37423225D01*
X78977297Y-37256703D01*
X78604685Y-36884091D01*
X78385700Y-36737769D01*
X78127388Y-36686388D01*
X72815986Y-36686388D01*
X72076851Y-35947253D01*
X72165929Y-35813937D01*
X72206162Y-35922629D01*
X72596359Y-36343822D01*
X73078951Y-36573811D01*
X73306000Y-36462983D01*
X73306000Y-35154000D01*
X73286000Y-35154000D01*
X73286000Y-34846000D01*
X73306000Y-34846000D01*
X73306000Y-34826000D01*
X73614000Y-34826000D01*
X73614000Y-34846000D01*
X73634000Y-34846000D01*
X73634000Y-35154000D01*
X73614000Y-35154000D01*
X73614000Y-36462983D01*
X73841049Y-36573811D01*
X74323641Y-36343822D01*
X74584355Y-36062397D01*
X74613976Y-36219818D01*
X74734432Y-36407012D01*
X74918227Y-36532594D01*
X75136400Y-36576775D01*
X76863600Y-36576775D01*
X77067418Y-36538424D01*
X77254612Y-36417968D01*
X77380194Y-36234173D01*
X77424375Y-36016000D01*
X77424375Y-33984000D01*
X77405555Y-33883981D01*
X80429387Y-33883981D01*
X85379202Y-38833796D01*
X85379202Y-38833796D01*
G37*
X85379202Y-38833796D02*
X85598187Y-38980118D01*
X85856499Y-39031499D01*
X86319378Y-39031499D01*
X86257444Y-39220859D01*
X86297217Y-39739092D01*
X86419019Y-40033148D01*
X86643787Y-40098424D01*
X87362211Y-39380000D01*
X87348069Y-39365858D01*
X87565858Y-39148069D01*
X87580000Y-39162211D01*
X87594142Y-39148069D01*
X87811931Y-39365858D01*
X87797789Y-39380000D01*
X87811931Y-39394142D01*
X87594142Y-39611931D01*
X87580000Y-39597789D01*
X86861576Y-40316213D01*
X86926852Y-40540981D01*
X87420859Y-40702556D01*
X87939092Y-40662783D01*
X88166001Y-40568794D01*
X88166001Y-45817057D01*
X87739141Y-45677444D01*
X87220908Y-45717217D01*
X86926852Y-45839019D01*
X86861576Y-46063787D01*
X87580000Y-46782211D01*
X87594142Y-46768069D01*
X87811931Y-46985858D01*
X87797789Y-47000000D01*
X87811931Y-47014142D01*
X87594142Y-47231931D01*
X87580000Y-47217789D01*
X86861576Y-47936213D01*
X86926852Y-48160981D01*
X87420859Y-48322556D01*
X87939092Y-48282783D01*
X88166001Y-48188794D01*
X88166001Y-49495625D01*
X86484000Y-49495625D01*
X86280182Y-49533976D01*
X86092988Y-49654432D01*
X85967406Y-49838227D01*
X85923225Y-50056400D01*
X85923225Y-51783600D01*
X85961576Y-51987418D01*
X86082032Y-52174612D01*
X86265827Y-52300194D01*
X86484000Y-52344375D01*
X86491049Y-52344375D01*
X86317354Y-52460434D01*
X86010924Y-52919039D01*
X85903320Y-53460000D01*
X86010924Y-54000961D01*
X86317354Y-54459566D01*
X86686063Y-54705929D01*
X86577371Y-54746162D01*
X86156178Y-55136359D01*
X86027537Y-55406291D01*
X83175000Y-52553754D01*
X83175000Y-48071975D01*
X83206295Y-48059044D01*
X83557810Y-47708142D01*
X83748283Y-47249432D01*
X83748640Y-46840859D01*
X86257444Y-46840859D01*
X86297217Y-47359092D01*
X86419019Y-47653148D01*
X86643787Y-47718424D01*
X87362211Y-47000000D01*
X86643787Y-46281576D01*
X86419019Y-46346852D01*
X86257444Y-46840859D01*
X83748640Y-46840859D01*
X83748717Y-46752747D01*
X83559044Y-46293705D01*
X83208142Y-45942190D01*
X82749432Y-45751717D01*
X82252747Y-45751283D01*
X81793705Y-45940956D01*
X81442190Y-46291858D01*
X81251717Y-46750568D01*
X81251283Y-47247253D01*
X81440956Y-47706295D01*
X81791858Y-48057810D01*
X81825000Y-48071572D01*
X81825000Y-52833348D01*
X81876381Y-53091660D01*
X81896787Y-53122200D01*
X76675096Y-53122200D01*
X73349115Y-49796219D01*
X73349171Y-49732388D01*
X73298745Y-49610347D01*
X73319936Y-49589193D01*
X73449614Y-49276895D01*
X73449909Y-48938744D01*
X73320777Y-48626221D01*
X73081877Y-48386904D01*
X72769579Y-48257226D01*
X72662125Y-48257132D01*
X72749562Y-48221004D01*
X72988879Y-47982104D01*
X73077557Y-47768543D01*
X73594921Y-48285907D01*
X73813906Y-48432229D01*
X74072218Y-48483610D01*
X76923225Y-48483610D01*
X76923225Y-48516000D01*
X76961576Y-48719818D01*
X77082032Y-48907012D01*
X77265827Y-49032594D01*
X77291721Y-49037838D01*
X77022525Y-49440718D01*
X76903320Y-50040000D01*
X77022525Y-50639282D01*
X77361991Y-51147329D01*
X77870038Y-51486795D01*
X78469320Y-51606000D01*
X78530680Y-51606000D01*
X79129962Y-51486795D01*
X79638009Y-51147329D01*
X79977475Y-50639282D01*
X80096680Y-50040000D01*
X79977475Y-49440718D01*
X79709916Y-49040287D01*
X79719818Y-49038424D01*
X79907012Y-48917968D01*
X80032594Y-48734173D01*
X80076775Y-48516000D01*
X80076775Y-46484000D01*
X80038424Y-46280182D01*
X79917968Y-46092988D01*
X79734173Y-45967406D01*
X79516000Y-45923225D01*
X79244627Y-45923225D01*
X79349852Y-45669817D01*
X79350147Y-45331666D01*
X79221015Y-45019143D01*
X78982115Y-44779826D01*
X78669817Y-44650148D01*
X78331666Y-44649853D01*
X78019143Y-44778985D01*
X77973048Y-44825000D01*
X76352742Y-44825000D01*
X76489076Y-44620961D01*
X76596680Y-44080000D01*
X76489076Y-43539039D01*
X76182646Y-43080434D01*
X75777913Y-42810000D01*
X76182646Y-42539566D01*
X76489076Y-42080961D01*
X76516118Y-41945009D01*
X76927313Y-41945009D01*
X77101549Y-42365679D01*
X77523973Y-42837992D01*
X78094989Y-43112698D01*
X78346000Y-43004693D01*
X78346000Y-41694000D01*
X78654000Y-41694000D01*
X78654000Y-43004693D01*
X78905011Y-43112698D01*
X79476027Y-42837992D01*
X79898451Y-42365679D01*
X80072687Y-41945009D01*
X79963922Y-41694000D01*
X78654000Y-41694000D01*
X78346000Y-41694000D01*
X77036078Y-41694000D01*
X76927313Y-41945009D01*
X76516118Y-41945009D01*
X76596680Y-41540000D01*
X76489076Y-40999039D01*
X76182646Y-40540434D01*
X76008951Y-40424375D01*
X76016000Y-40424375D01*
X76219818Y-40386024D01*
X76407012Y-40265568D01*
X76532594Y-40081773D01*
X76576775Y-39863600D01*
X76576775Y-38136400D01*
X76557956Y-38036388D01*
X76923225Y-38036388D01*
X76923225Y-40016000D01*
X76961576Y-40219818D01*
X77082032Y-40407012D01*
X77264743Y-40531853D01*
X77101549Y-40714321D01*
X76927313Y-41134991D01*
X77036078Y-41386000D01*
X78346000Y-41386000D01*
X78346000Y-41366000D01*
X78654000Y-41366000D01*
X78654000Y-41386000D01*
X79963922Y-41386000D01*
X80072687Y-41134991D01*
X79898451Y-40714321D01*
X79733347Y-40529718D01*
X79907012Y-40417968D01*
X80032594Y-40234173D01*
X80076775Y-40016000D01*
X80076775Y-39627253D01*
X81251283Y-39627253D01*
X81440956Y-40086295D01*
X81791858Y-40437810D01*
X82250568Y-40628283D01*
X82747253Y-40628717D01*
X83206295Y-40439044D01*
X83557810Y-40088142D01*
X83748283Y-39629432D01*
X83748717Y-39132747D01*
X83559044Y-38673705D01*
X83208142Y-38322190D01*
X82749432Y-38131717D01*
X82252747Y-38131283D01*
X81793705Y-38320956D01*
X81442190Y-38671858D01*
X81251717Y-39130568D01*
X81251283Y-39627253D01*
X80076775Y-39627253D01*
X80076775Y-37984000D01*
X80038424Y-37780182D01*
X79917968Y-37592988D01*
X79734173Y-37467406D01*
X79516000Y-37423225D01*
X79088564Y-37423225D01*
X78977297Y-37256703D01*
X78604685Y-36884091D01*
X78385700Y-36737769D01*
X78127388Y-36686388D01*
X72815986Y-36686388D01*
X72076851Y-35947253D01*
X72165929Y-35813937D01*
X72206162Y-35922629D01*
X72596359Y-36343822D01*
X73078951Y-36573811D01*
X73306000Y-36462983D01*
X73306000Y-35154000D01*
X73286000Y-35154000D01*
X73286000Y-34846000D01*
X73306000Y-34846000D01*
X73306000Y-34826000D01*
X73614000Y-34826000D01*
X73614000Y-34846000D01*
X73634000Y-34846000D01*
X73634000Y-35154000D01*
X73614000Y-35154000D01*
X73614000Y-36462983D01*
X73841049Y-36573811D01*
X74323641Y-36343822D01*
X74584355Y-36062397D01*
X74613976Y-36219818D01*
X74734432Y-36407012D01*
X74918227Y-36532594D01*
X75136400Y-36576775D01*
X76863600Y-36576775D01*
X77067418Y-36538424D01*
X77254612Y-36417968D01*
X77380194Y-36234173D01*
X77424375Y-36016000D01*
X77424375Y-33984000D01*
X77405555Y-33883981D01*
X80429387Y-33883981D01*
X85379202Y-38833796D01*
G36*
X71481931Y-54985858D02*
X71467789Y-55000000D01*
X71481931Y-55014142D01*
X71264142Y-55231931D01*
X71250000Y-55217789D01*
X71235858Y-55231931D01*
X71018069Y-55014142D01*
X71032211Y-55000000D01*
X71018069Y-54985858D01*
X71235858Y-54768069D01*
X71250000Y-54782211D01*
X71264142Y-54768069D01*
X71481931Y-54985858D01*
X71481931Y-54985858D01*
G37*
X71481931Y-54985858D02*
X71467789Y-55000000D01*
X71481931Y-55014142D01*
X71264142Y-55231931D01*
X71250000Y-55217789D01*
X71235858Y-55231931D01*
X71018069Y-55014142D01*
X71032211Y-55000000D01*
X71018069Y-54985858D01*
X71235858Y-54768069D01*
X71250000Y-54782211D01*
X71264142Y-54768069D01*
X71481931Y-54985858D01*
G36*
X48074000Y-34846000D02*
X48094000Y-34846000D01*
X48094000Y-35154000D01*
X48074000Y-35154000D01*
X48074000Y-36462983D01*
X48249463Y-36548631D01*
X48029826Y-36767885D01*
X47900148Y-37080183D01*
X47899853Y-37418334D01*
X48028985Y-37730857D01*
X48267885Y-37970174D01*
X48485055Y-38060351D01*
X47622181Y-38923225D01*
X45984000Y-38923225D01*
X45780182Y-38961576D01*
X45592988Y-39082032D01*
X45467406Y-39265827D01*
X45423225Y-39484000D01*
X45423225Y-40579365D01*
X45417412Y-40575481D01*
X45159100Y-40524100D01*
X44554987Y-40524100D01*
X44625000Y-40172120D01*
X44625000Y-39826080D01*
X44546977Y-39433829D01*
X44324784Y-39101296D01*
X43992251Y-38879103D01*
X43600000Y-38801080D01*
X43207749Y-38879103D01*
X43070306Y-38970940D01*
X46518240Y-35523006D01*
X46666162Y-35922629D01*
X47056359Y-36343822D01*
X47538951Y-36573811D01*
X47766000Y-36462983D01*
X47766000Y-35154000D01*
X47746000Y-35154000D01*
X47746000Y-34846000D01*
X47766000Y-34846000D01*
X47766000Y-34826000D01*
X48074000Y-34826000D01*
X48074000Y-34846000D01*
X48074000Y-34846000D01*
G37*
X48074000Y-34846000D02*
X48094000Y-34846000D01*
X48094000Y-35154000D01*
X48074000Y-35154000D01*
X48074000Y-36462983D01*
X48249463Y-36548631D01*
X48029826Y-36767885D01*
X47900148Y-37080183D01*
X47899853Y-37418334D01*
X48028985Y-37730857D01*
X48267885Y-37970174D01*
X48485055Y-38060351D01*
X47622181Y-38923225D01*
X45984000Y-38923225D01*
X45780182Y-38961576D01*
X45592988Y-39082032D01*
X45467406Y-39265827D01*
X45423225Y-39484000D01*
X45423225Y-40579365D01*
X45417412Y-40575481D01*
X45159100Y-40524100D01*
X44554987Y-40524100D01*
X44625000Y-40172120D01*
X44625000Y-39826080D01*
X44546977Y-39433829D01*
X44324784Y-39101296D01*
X43992251Y-38879103D01*
X43600000Y-38801080D01*
X43207749Y-38879103D01*
X43070306Y-38970940D01*
X46518240Y-35523006D01*
X46666162Y-35922629D01*
X47056359Y-36343822D01*
X47538951Y-36573811D01*
X47766000Y-36462983D01*
X47766000Y-35154000D01*
X47746000Y-35154000D01*
X47746000Y-34846000D01*
X47766000Y-34846000D01*
X47766000Y-34826000D01*
X48074000Y-34826000D01*
X48074000Y-34846000D01*
M02*
